solid OpenSCAD_Model
  facet normal -1 0 0
    outer loop
      vertex 0 36.2 0
      vertex 0 28.2 2.8
      vertex 0 36.2 4.9
    endloop
  endfacet
  facet normal -1 0 0
    outer loop
      vertex 0 36.2 0
      vertex 0 8 2.8
      vertex 0 28.2 2.8
    endloop
  endfacet
  facet normal -1 0 0
    outer loop
      vertex 0 0 0
      vertex 0 8 2.8
      vertex 0 36.2 0
    endloop
  endfacet
  facet normal -1 0 0
    outer loop
      vertex 0 0 4.9
      vertex 0 8 2.8
      vertex 0 0 0
    endloop
  endfacet
  facet normal -1 0 0
    outer loop
      vertex 0 8 2.8
      vertex 0 0 4.9
      vertex 0 8 4.9
    endloop
  endfacet
  facet normal -1 -0 0
    outer loop
      vertex 0 36.2 4.9
      vertex 0 28.2 2.8
      vertex 0 28.2 4.9
    endloop
  endfacet
  facet normal 0 0 1
    outer loop
      vertex 8.54205 3.83827 4.9
      vertex 13.8 8 4.9
      vertex 8.55 4 4.9
    endloop
  endfacet
  facet normal 0 0 1
    outer loop
      vertex 13.8 8 4.9
      vertex 8.54205 4.16173 4.9
      vertex 8.55 4 4.9
    endloop
  endfacet
  facet normal 0 0 1
    outer loop
      vertex 13.8 8 4.9
      vertex 8.5183 4.3219 4.9
      vertex 8.54205 4.16173 4.9
    endloop
  endfacet
  facet normal 0 0 1
    outer loop
      vertex 13.8 8 4.9
      vertex 8.47895 4.47897 4.9
      vertex 8.5183 4.3219 4.9
    endloop
  endfacet
  facet normal 0 0 1
    outer loop
      vertex 13.8 8 4.9
      vertex 8.4244 4.63143 4.9
      vertex 8.47895 4.47897 4.9
    endloop
  endfacet
  facet normal 0 0 1
    outer loop
      vertex 13.8 8 4.9
      vertex 8.35517 4.7778 4.9
      vertex 8.4244 4.63143 4.9
    endloop
  endfacet
  facet normal 0 0 1
    outer loop
      vertex 13.8 8 4.9
      vertex 8.27192 4.91669 4.9
      vertex 8.35517 4.7778 4.9
    endloop
  endfacet
  facet normal 0 0 1
    outer loop
      vertex 13.8 8 4.9
      vertex 8.17547 5.04675 4.9
      vertex 8.27192 4.91669 4.9
    endloop
  endfacet
  facet normal 0 0 1
    outer loop
      vertex 13.8 8 4.9
      vertex 8.06673 5.16673 4.9
      vertex 8.17547 5.04675 4.9
    endloop
  endfacet
  facet normal 0 0 1
    outer loop
      vertex 13.8 8 4.9
      vertex 7.94675 5.27547 4.9
      vertex 8.06673 5.16673 4.9
    endloop
  endfacet
  facet normal 0 0 1
    outer loop
      vertex 13.8 8 4.9
      vertex 7.81669 5.37192 4.9
      vertex 7.94675 5.27547 4.9
    endloop
  endfacet
  facet normal 0 0 1
    outer loop
      vertex 13.8 8 4.9
      vertex 7.6778 5.45517 4.9
      vertex 7.81669 5.37192 4.9
    endloop
  endfacet
  facet normal 0 0 1
    outer loop
      vertex 13.8 8 4.9
      vertex 7.53143 5.5244 4.9
      vertex 7.6778 5.45517 4.9
    endloop
  endfacet
  facet normal 0 0 1
    outer loop
      vertex 13.8 8 4.9
      vertex 7.37897 5.57895 4.9
      vertex 7.53143 5.5244 4.9
    endloop
  endfacet
  facet normal 0 0 1
    outer loop
      vertex 13.8 8 4.9
      vertex 7.2219 5.6183 4.9
      vertex 7.37897 5.57895 4.9
    endloop
  endfacet
  facet normal 0 0 1
    outer loop
      vertex 13.8 8 4.9
      vertex 7.06173 5.64205 4.9
      vertex 7.2219 5.6183 4.9
    endloop
  endfacet
  facet normal 0 0 1
    outer loop
      vertex 13.8 8 4.9
      vertex 6.9 5.65 4.9
      vertex 7.06173 5.64205 4.9
    endloop
  endfacet
  facet normal -0 0 1
    outer loop
      vertex 0 8 4.9
      vertex 6.9 5.65 4.9
      vertex 13.8 8 4.9
    endloop
  endfacet
  facet normal 0 0 1
    outer loop
      vertex 6.9 5.65 4.9
      vertex 0 8 4.9
      vertex 6.73827 5.64205 4.9
    endloop
  endfacet
  facet normal 0 0 1
    outer loop
      vertex 6.73827 5.64205 4.9
      vertex 0 8 4.9
      vertex 6.5781 5.6183 4.9
    endloop
  endfacet
  facet normal 0 0 1
    outer loop
      vertex 5.25795 4.16173 4.9
      vertex 0 8 4.9
      vertex 5.25 4 4.9
    endloop
  endfacet
  facet normal 0 0 1
    outer loop
      vertex 5.2817 4.3219 4.9
      vertex 0 8 4.9
      vertex 5.25795 4.16173 4.9
    endloop
  endfacet
  facet normal 0 0 1
    outer loop
      vertex 5.32105 4.47897 4.9
      vertex 0 8 4.9
      vertex 5.2817 4.3219 4.9
    endloop
  endfacet
  facet normal 0 0 1
    outer loop
      vertex 5.3756 4.63143 4.9
      vertex 0 8 4.9
      vertex 5.32105 4.47897 4.9
    endloop
  endfacet
  facet normal 0 0 1
    outer loop
      vertex 5.44483 4.7778 4.9
      vertex 0 8 4.9
      vertex 5.3756 4.63143 4.9
    endloop
  endfacet
  facet normal 0 0 1
    outer loop
      vertex 5.52807 4.91669 4.9
      vertex 0 8 4.9
      vertex 5.44483 4.7778 4.9
    endloop
  endfacet
  facet normal 0 0 1
    outer loop
      vertex 5.62453 5.04675 4.9
      vertex 0 8 4.9
      vertex 5.52807 4.91669 4.9
    endloop
  endfacet
  facet normal 0 0 1
    outer loop
      vertex 5.73327 5.16673 4.9
      vertex 0 8 4.9
      vertex 5.62453 5.04675 4.9
    endloop
  endfacet
  facet normal 0 0 1
    outer loop
      vertex 5.85325 5.27547 4.9
      vertex 0 8 4.9
      vertex 5.73327 5.16673 4.9
    endloop
  endfacet
  facet normal 0 0 1
    outer loop
      vertex 5.98331 5.37192 4.9
      vertex 0 8 4.9
      vertex 5.85325 5.27547 4.9
    endloop
  endfacet
  facet normal 0 0 1
    outer loop
      vertex 6.1222 5.45517 4.9
      vertex 0 8 4.9
      vertex 5.98331 5.37192 4.9
    endloop
  endfacet
  facet normal 0 0 1
    outer loop
      vertex 6.26857 5.5244 4.9
      vertex 0 8 4.9
      vertex 6.1222 5.45517 4.9
    endloop
  endfacet
  facet normal 0 0 1
    outer loop
      vertex 6.42103 5.57895 4.9
      vertex 0 8 4.9
      vertex 6.26857 5.5244 4.9
    endloop
  endfacet
  facet normal 0 0 1
    outer loop
      vertex 6.5781 5.6183 4.9
      vertex 0 8 4.9
      vertex 6.42103 5.57895 4.9
    endloop
  endfacet
  facet normal 0 0 1
    outer loop
      vertex 13.8 8 4.9
      vertex 8.54205 3.83827 4.9
      vertex 9.8 0 4.9
    endloop
  endfacet
  facet normal -0 0 1
    outer loop
      vertex 8.5183 3.6781 4.9
      vertex 9.8 0 4.9
      vertex 8.54205 3.83827 4.9
    endloop
  endfacet
  facet normal -0 0 1
    outer loop
      vertex 8.47895 3.52103 4.9
      vertex 9.8 0 4.9
      vertex 8.5183 3.6781 4.9
    endloop
  endfacet
  facet normal -0 0 1
    outer loop
      vertex 8.4244 3.36857 4.9
      vertex 9.8 0 4.9
      vertex 8.47895 3.52103 4.9
    endloop
  endfacet
  facet normal -0 0 1
    outer loop
      vertex 8.35517 3.22219 4.9
      vertex 9.8 0 4.9
      vertex 8.4244 3.36857 4.9
    endloop
  endfacet
  facet normal -0 0 1
    outer loop
      vertex 8.27192 3.08331 4.9
      vertex 9.8 0 4.9
      vertex 8.35517 3.22219 4.9
    endloop
  endfacet
  facet normal -0 0 1
    outer loop
      vertex 8.17547 2.95325 4.9
      vertex 9.8 0 4.9
      vertex 8.27192 3.08331 4.9
    endloop
  endfacet
  facet normal -0 0 1
    outer loop
      vertex 8.06673 2.83327 4.9
      vertex 9.8 0 4.9
      vertex 8.17547 2.95325 4.9
    endloop
  endfacet
  facet normal -0 0 1
    outer loop
      vertex 7.94675 2.72453 4.9
      vertex 9.8 0 4.9
      vertex 8.06673 2.83327 4.9
    endloop
  endfacet
  facet normal -0 0 1
    outer loop
      vertex 7.81669 2.62807 4.9
      vertex 9.8 0 4.9
      vertex 7.94675 2.72453 4.9
    endloop
  endfacet
  facet normal -0 0 1
    outer loop
      vertex 7.6778 2.54483 4.9
      vertex 9.8 0 4.9
      vertex 7.81669 2.62807 4.9
    endloop
  endfacet
  facet normal -0 0 1
    outer loop
      vertex 7.53143 2.4756 4.9
      vertex 9.8 0 4.9
      vertex 7.6778 2.54483 4.9
    endloop
  endfacet
  facet normal -0 0 1
    outer loop
      vertex 7.37897 2.42105 4.9
      vertex 9.8 0 4.9
      vertex 7.53143 2.4756 4.9
    endloop
  endfacet
  facet normal -0 0 1
    outer loop
      vertex 7.2219 2.3817 4.9
      vertex 9.8 0 4.9
      vertex 7.37897 2.42105 4.9
    endloop
  endfacet
  facet normal -0 0 1
    outer loop
      vertex 7.06173 2.35794 4.9
      vertex 9.8 0 4.9
      vertex 7.2219 2.3817 4.9
    endloop
  endfacet
  facet normal -0 0 1
    outer loop
      vertex 6.9 2.35 4.9
      vertex 9.8 0 4.9
      vertex 7.06173 2.35794 4.9
    endloop
  endfacet
  facet normal 0 0 1
    outer loop
      vertex 6.73827 2.35794 4.9
      vertex 9.8 0 4.9
      vertex 6.9 2.35 4.9
    endloop
  endfacet
  facet normal 0 0 1
    outer loop
      vertex 6.5781 2.3817 4.9
      vertex 9.8 0 4.9
      vertex 6.73827 2.35794 4.9
    endloop
  endfacet
  facet normal 0 0 1
    outer loop
      vertex 6.42103 2.42105 4.9
      vertex 9.8 0 4.9
      vertex 6.5781 2.3817 4.9
    endloop
  endfacet
  facet normal 0 0 1
    outer loop
      vertex 0 0 4.9
      vertex 6.42103 2.42105 4.9
      vertex 6.26857 2.4756 4.9
    endloop
  endfacet
  facet normal 0 0 1
    outer loop
      vertex 0 0 4.9
      vertex 6.26857 2.4756 4.9
      vertex 6.1222 2.54483 4.9
    endloop
  endfacet
  facet normal 0 0 1
    outer loop
      vertex 0 0 4.9
      vertex 6.1222 2.54483 4.9
      vertex 5.98331 2.62807 4.9
    endloop
  endfacet
  facet normal 0 0 1
    outer loop
      vertex 0 0 4.9
      vertex 5.25 4 4.9
      vertex 0 8 4.9
    endloop
  endfacet
  facet normal 0 0 1
    outer loop
      vertex 5.25 4 4.9
      vertex 0 0 4.9
      vertex 5.25795 3.83827 4.9
    endloop
  endfacet
  facet normal 0 0 1
    outer loop
      vertex 5.25795 3.83827 4.9
      vertex 0 0 4.9
      vertex 5.2817 3.6781 4.9
    endloop
  endfacet
  facet normal 0 0 1
    outer loop
      vertex 5.2817 3.6781 4.9
      vertex 0 0 4.9
      vertex 5.32105 3.52103 4.9
    endloop
  endfacet
  facet normal 0 0 1
    outer loop
      vertex 5.32105 3.52103 4.9
      vertex 0 0 4.9
      vertex 5.3756 3.36857 4.9
    endloop
  endfacet
  facet normal 0 0 1
    outer loop
      vertex 5.3756 3.36857 4.9
      vertex 0 0 4.9
      vertex 5.44483 3.22219 4.9
    endloop
  endfacet
  facet normal 0 0 1
    outer loop
      vertex 5.44483 3.22219 4.9
      vertex 0 0 4.9
      vertex 5.52807 3.08331 4.9
    endloop
  endfacet
  facet normal 0 0 1
    outer loop
      vertex 5.52807 3.08331 4.9
      vertex 0 0 4.9
      vertex 5.62453 2.95325 4.9
    endloop
  endfacet
  facet normal 0 0 1
    outer loop
      vertex 5.62453 2.95325 4.9
      vertex 0 0 4.9
      vertex 5.73327 2.83327 4.9
    endloop
  endfacet
  facet normal 0 0 1
    outer loop
      vertex 6.42103 2.42105 4.9
      vertex 0 0 4.9
      vertex 9.8 0 4.9
    endloop
  endfacet
  facet normal 0 0 1
    outer loop
      vertex 5.85325 2.72453 4.9
      vertex 0 0 4.9
      vertex 5.98331 2.62807 4.9
    endloop
  endfacet
  facet normal 0 0 1
    outer loop
      vertex 5.73327 2.83327 4.9
      vertex 0 0 4.9
      vertex 5.85325 2.72453 4.9
    endloop
  endfacet
  facet normal 0 0 1
    outer loop
      vertex 13.8 28.2 4.9
      vertex 8.54205 32.3617 4.9
      vertex 8.55 32.2 4.9
    endloop
  endfacet
  facet normal 0 0 1
    outer loop
      vertex 9.8 36.2 4.9
      vertex 8.5183 32.5219 4.9
      vertex 8.54205 32.3617 4.9
    endloop
  endfacet
  facet normal 0 0 1
    outer loop
      vertex 9.8 36.2 4.9
      vertex 8.47895 32.679 4.9
      vertex 8.5183 32.5219 4.9
    endloop
  endfacet
  facet normal 0 0 1
    outer loop
      vertex 9.8 36.2 4.9
      vertex 8.4244 32.8314 4.9
      vertex 8.47895 32.679 4.9
    endloop
  endfacet
  facet normal 0 0 1
    outer loop
      vertex 9.8 36.2 4.9
      vertex 8.35517 32.9778 4.9
      vertex 8.4244 32.8314 4.9
    endloop
  endfacet
  facet normal 0 0 1
    outer loop
      vertex 9.8 36.2 4.9
      vertex 8.27192 33.1167 4.9
      vertex 8.35517 32.9778 4.9
    endloop
  endfacet
  facet normal 0 0 1
    outer loop
      vertex 9.8 36.2 4.9
      vertex 8.17547 33.2467 4.9
      vertex 8.27192 33.1167 4.9
    endloop
  endfacet
  facet normal 0 0 1
    outer loop
      vertex 9.8 36.2 4.9
      vertex 8.06673 33.3667 4.9
      vertex 8.17547 33.2467 4.9
    endloop
  endfacet
  facet normal 0 0 1
    outer loop
      vertex 9.8 36.2 4.9
      vertex 7.94675 33.4755 4.9
      vertex 8.06673 33.3667 4.9
    endloop
  endfacet
  facet normal 0 0 1
    outer loop
      vertex 9.8 36.2 4.9
      vertex 7.81669 33.5719 4.9
      vertex 7.94675 33.4755 4.9
    endloop
  endfacet
  facet normal 0 0 1
    outer loop
      vertex 9.8 36.2 4.9
      vertex 7.6778 33.6552 4.9
      vertex 7.81669 33.5719 4.9
    endloop
  endfacet
  facet normal 0 0 1
    outer loop
      vertex 9.8 36.2 4.9
      vertex 7.53143 33.7244 4.9
      vertex 7.6778 33.6552 4.9
    endloop
  endfacet
  facet normal 0 0 1
    outer loop
      vertex 9.8 36.2 4.9
      vertex 7.37897 33.7789 4.9
      vertex 7.53143 33.7244 4.9
    endloop
  endfacet
  facet normal 0 0 1
    outer loop
      vertex 9.8 36.2 4.9
      vertex 7.2219 33.8183 4.9
      vertex 7.37897 33.7789 4.9
    endloop
  endfacet
  facet normal 0 0 1
    outer loop
      vertex 9.8 36.2 4.9
      vertex 7.06173 33.8421 4.9
      vertex 7.2219 33.8183 4.9
    endloop
  endfacet
  facet normal 0 0 1
    outer loop
      vertex 9.8 36.2 4.9
      vertex 6.9 33.85 4.9
      vertex 7.06173 33.8421 4.9
    endloop
  endfacet
  facet normal 0 0 1
    outer loop
      vertex 9.8 36.2 4.9
      vertex 6.73827 33.8421 4.9
      vertex 6.9 33.85 4.9
    endloop
  endfacet
  facet normal 0 0 1
    outer loop
      vertex 9.8 36.2 4.9
      vertex 6.5781 33.8183 4.9
      vertex 6.73827 33.8421 4.9
    endloop
  endfacet
  facet normal 0 0 1
    outer loop
      vertex 9.8 36.2 4.9
      vertex 6.42103 33.7789 4.9
      vertex 6.5781 33.8183 4.9
    endloop
  endfacet
  facet normal -0 0 1
    outer loop
      vertex 0 36.2 4.9
      vertex 6.42103 33.7789 4.9
      vertex 9.8 36.2 4.9
    endloop
  endfacet
  facet normal 0 0 1
    outer loop
      vertex 6.42103 33.7789 4.9
      vertex 0 36.2 4.9
      vertex 6.26857 33.7244 4.9
    endloop
  endfacet
  facet normal 0 0 1
    outer loop
      vertex 6.26857 33.7244 4.9
      vertex 0 36.2 4.9
      vertex 6.1222 33.6552 4.9
    endloop
  endfacet
  facet normal 0 0 1
    outer loop
      vertex 5.25795 32.3617 4.9
      vertex 0 36.2 4.9
      vertex 5.25 32.2 4.9
    endloop
  endfacet
  facet normal 0 0 1
    outer loop
      vertex 5.2817 32.5219 4.9
      vertex 0 36.2 4.9
      vertex 5.25795 32.3617 4.9
    endloop
  endfacet
  facet normal 0 0 1
    outer loop
      vertex 5.32105 32.679 4.9
      vertex 0 36.2 4.9
      vertex 5.2817 32.5219 4.9
    endloop
  endfacet
  facet normal 0 0 1
    outer loop
      vertex 5.3756 32.8314 4.9
      vertex 0 36.2 4.9
      vertex 5.32105 32.679 4.9
    endloop
  endfacet
  facet normal 0 0 1
    outer loop
      vertex 5.44483 32.9778 4.9
      vertex 0 36.2 4.9
      vertex 5.3756 32.8314 4.9
    endloop
  endfacet
  facet normal 0 0 1
    outer loop
      vertex 5.52807 33.1167 4.9
      vertex 0 36.2 4.9
      vertex 5.44483 32.9778 4.9
    endloop
  endfacet
  facet normal 0 0 1
    outer loop
      vertex 5.62453 33.2467 4.9
      vertex 0 36.2 4.9
      vertex 5.52807 33.1167 4.9
    endloop
  endfacet
  facet normal 0 0 1
    outer loop
      vertex 5.73327 33.3667 4.9
      vertex 0 36.2 4.9
      vertex 5.62453 33.2467 4.9
    endloop
  endfacet
  facet normal 0 0 1
    outer loop
      vertex 5.85325 33.4755 4.9
      vertex 0 36.2 4.9
      vertex 5.73327 33.3667 4.9
    endloop
  endfacet
  facet normal 0 0 1
    outer loop
      vertex 5.98331 33.5719 4.9
      vertex 0 36.2 4.9
      vertex 5.85325 33.4755 4.9
    endloop
  endfacet
  facet normal 0 0 1
    outer loop
      vertex 6.1222 33.6552 4.9
      vertex 0 36.2 4.9
      vertex 5.98331 33.5719 4.9
    endloop
  endfacet
  facet normal -0 0 1
    outer loop
      vertex 8.54205 32.3617 4.9
      vertex 13.8 28.2 4.9
      vertex 9.8 36.2 4.9
    endloop
  endfacet
  facet normal -0 0 1
    outer loop
      vertex 8.54205 32.0383 4.9
      vertex 13.8 28.2 4.9
      vertex 8.55 32.2 4.9
    endloop
  endfacet
  facet normal -0 0 1
    outer loop
      vertex 8.5183 31.8781 4.9
      vertex 13.8 28.2 4.9
      vertex 8.54205 32.0383 4.9
    endloop
  endfacet
  facet normal -0 0 1
    outer loop
      vertex 8.47895 31.721 4.9
      vertex 13.8 28.2 4.9
      vertex 8.5183 31.8781 4.9
    endloop
  endfacet
  facet normal -0 0 1
    outer loop
      vertex 8.4244 31.5686 4.9
      vertex 13.8 28.2 4.9
      vertex 8.47895 31.721 4.9
    endloop
  endfacet
  facet normal -0 0 1
    outer loop
      vertex 8.35517 31.4222 4.9
      vertex 13.8 28.2 4.9
      vertex 8.4244 31.5686 4.9
    endloop
  endfacet
  facet normal -0 0 1
    outer loop
      vertex 8.27192 31.2833 4.9
      vertex 13.8 28.2 4.9
      vertex 8.35517 31.4222 4.9
    endloop
  endfacet
  facet normal -0 0 1
    outer loop
      vertex 8.17547 31.1533 4.9
      vertex 13.8 28.2 4.9
      vertex 8.27192 31.2833 4.9
    endloop
  endfacet
  facet normal -0 0 1
    outer loop
      vertex 8.06673 31.0333 4.9
      vertex 13.8 28.2 4.9
      vertex 8.17547 31.1533 4.9
    endloop
  endfacet
  facet normal -0 0 1
    outer loop
      vertex 7.94675 30.9245 4.9
      vertex 13.8 28.2 4.9
      vertex 8.06673 31.0333 4.9
    endloop
  endfacet
  facet normal -0 0 1
    outer loop
      vertex 7.81669 30.8281 4.9
      vertex 13.8 28.2 4.9
      vertex 7.94675 30.9245 4.9
    endloop
  endfacet
  facet normal -0 0 1
    outer loop
      vertex 7.6778 30.7448 4.9
      vertex 13.8 28.2 4.9
      vertex 7.81669 30.8281 4.9
    endloop
  endfacet
  facet normal -0 0 1
    outer loop
      vertex 7.53143 30.6756 4.9
      vertex 13.8 28.2 4.9
      vertex 7.6778 30.7448 4.9
    endloop
  endfacet
  facet normal -0 0 1
    outer loop
      vertex 7.37897 30.621 4.9
      vertex 13.8 28.2 4.9
      vertex 7.53143 30.6756 4.9
    endloop
  endfacet
  facet normal -0 0 1
    outer loop
      vertex 7.2219 30.5817 4.9
      vertex 13.8 28.2 4.9
      vertex 7.37897 30.621 4.9
    endloop
  endfacet
  facet normal -0 0 1
    outer loop
      vertex 7.06173 30.5579 4.9
      vertex 13.8 28.2 4.9
      vertex 7.2219 30.5817 4.9
    endloop
  endfacet
  facet normal -0 0 1
    outer loop
      vertex 6.9 30.55 4.9
      vertex 13.8 28.2 4.9
      vertex 7.06173 30.5579 4.9
    endloop
  endfacet
  facet normal 0 0 1
    outer loop
      vertex 0 28.2 4.9
      vertex 6.9 30.55 4.9
      vertex 6.73827 30.5579 4.9
    endloop
  endfacet
  facet normal 0 0 1
    outer loop
      vertex 0 28.2 4.9
      vertex 6.73827 30.5579 4.9
      vertex 6.5781 30.5817 4.9
    endloop
  endfacet
  facet normal 0 0 1
    outer loop
      vertex 0 28.2 4.9
      vertex 6.5781 30.5817 4.9
      vertex 6.42103 30.621 4.9
    endloop
  endfacet
  facet normal 0 0 1
    outer loop
      vertex 0 28.2 4.9
      vertex 5.25 32.2 4.9
      vertex 0 36.2 4.9
    endloop
  endfacet
  facet normal 0 0 1
    outer loop
      vertex 5.25 32.2 4.9
      vertex 0 28.2 4.9
      vertex 5.25795 32.0383 4.9
    endloop
  endfacet
  facet normal 0 0 1
    outer loop
      vertex 5.25795 32.0383 4.9
      vertex 0 28.2 4.9
      vertex 5.2817 31.8781 4.9
    endloop
  endfacet
  facet normal 0 0 1
    outer loop
      vertex 5.2817 31.8781 4.9
      vertex 0 28.2 4.9
      vertex 5.32105 31.721 4.9
    endloop
  endfacet
  facet normal 0 0 1
    outer loop
      vertex 5.32105 31.721 4.9
      vertex 0 28.2 4.9
      vertex 5.3756 31.5686 4.9
    endloop
  endfacet
  facet normal 0 0 1
    outer loop
      vertex 5.3756 31.5686 4.9
      vertex 0 28.2 4.9
      vertex 5.44483 31.4222 4.9
    endloop
  endfacet
  facet normal 0 0 1
    outer loop
      vertex 5.44483 31.4222 4.9
      vertex 0 28.2 4.9
      vertex 5.52807 31.2833 4.9
    endloop
  endfacet
  facet normal 0 0 1
    outer loop
      vertex 5.52807 31.2833 4.9
      vertex 0 28.2 4.9
      vertex 5.62453 31.1533 4.9
    endloop
  endfacet
  facet normal 0 0 1
    outer loop
      vertex 5.62453 31.1533 4.9
      vertex 0 28.2 4.9
      vertex 5.73327 31.0333 4.9
    endloop
  endfacet
  facet normal 0 0 1
    outer loop
      vertex 6.9 30.55 4.9
      vertex 0 28.2 4.9
      vertex 13.8 28.2 4.9
    endloop
  endfacet
  facet normal 0 0 1
    outer loop
      vertex 6.26857 30.6756 4.9
      vertex 0 28.2 4.9
      vertex 6.42103 30.621 4.9
    endloop
  endfacet
  facet normal 0 0 1
    outer loop
      vertex 6.1222 30.7448 4.9
      vertex 0 28.2 4.9
      vertex 6.26857 30.6756 4.9
    endloop
  endfacet
  facet normal 0 0 1
    outer loop
      vertex 5.98331 30.8281 4.9
      vertex 0 28.2 4.9
      vertex 6.1222 30.7448 4.9
    endloop
  endfacet
  facet normal 0 0 1
    outer loop
      vertex 5.85325 30.9245 4.9
      vertex 0 28.2 4.9
      vertex 5.98331 30.8281 4.9
    endloop
  endfacet
  facet normal 0 0 1
    outer loop
      vertex 5.73327 31.0333 4.9
      vertex 0 28.2 4.9
      vertex 5.85325 30.9245 4.9
    endloop
  endfacet
  facet normal 0 1 0
    outer loop
      vertex 28.2 36.2 2.8
      vertex 33.8 36.2 0
      vertex 9.8 36.2 2.8
    endloop
  endfacet
  facet normal 0 1 -0
    outer loop
      vertex 9.8 36.2 2.8
      vertex 0 36.2 4.9
      vertex 9.8 36.2 4.9
    endloop
  endfacet
  facet normal 0 1 0
    outer loop
      vertex 9.8 36.2 2.8
      vertex 0 36.2 0
      vertex 0 36.2 4.9
    endloop
  endfacet
  facet normal 0 1 0
    outer loop
      vertex 0 36.2 0
      vertex 9.8 36.2 2.8
      vertex 33.8 36.2 0
    endloop
  endfacet
  facet normal 0 0 -1
    outer loop
      vertex 8.47895 4.47897 0
      vertex 33.8 0 0
      vertex 8.5183 4.3219 0
    endloop
  endfacet
  facet normal 0 0 -1
    outer loop
      vertex 33.8 36.2 0
      vertex 8.54205 32.0383 0
      vertex 8.55 32.2 0
    endloop
  endfacet
  facet normal 0 0 -1
    outer loop
      vertex 8.4244 4.63143 0
      vertex 33.8 0 0
      vertex 8.47895 4.47897 0
    endloop
  endfacet
  facet normal 0 0 -1
    outer loop
      vertex 33.8 36.2 0
      vertex 8.5183 31.8781 0
      vertex 8.54205 32.0383 0
    endloop
  endfacet
  facet normal 0 0 -1
    outer loop
      vertex 8.35517 4.7778 0
      vertex 33.8 0 0
      vertex 8.4244 4.63143 0
    endloop
  endfacet
  facet normal 0 0 -1
    outer loop
      vertex 33.8 36.2 0
      vertex 8.47895 31.721 0
      vertex 8.5183 31.8781 0
    endloop
  endfacet
  facet normal 0 0 -1
    outer loop
      vertex 8.27192 4.91669 0
      vertex 33.8 0 0
      vertex 8.35517 4.7778 0
    endloop
  endfacet
  facet normal 0 0 -1
    outer loop
      vertex 33.8 36.2 0
      vertex 8.4244 31.5686 0
      vertex 8.47895 31.721 0
    endloop
  endfacet
  facet normal 0 0 -1
    outer loop
      vertex 8.17547 5.04675 0
      vertex 33.8 0 0
      vertex 8.27192 4.91669 0
    endloop
  endfacet
  facet normal 0 0 -1
    outer loop
      vertex 33.8 36.2 0
      vertex 8.35517 31.4222 0
      vertex 8.4244 31.5686 0
    endloop
  endfacet
  facet normal 0 0 -1
    outer loop
      vertex 33.8 0 0
      vertex 8.17547 5.04675 0
      vertex 33.8 36.2 0
    endloop
  endfacet
  facet normal 0 0 -1
    outer loop
      vertex 33.8 36.2 0
      vertex 8.27192 31.2833 0
      vertex 8.35517 31.4222 0
    endloop
  endfacet
  facet normal 0 0 -1
    outer loop
      vertex 8.17547 31.1533 0
      vertex 33.8 36.2 0
      vertex 8.17547 5.04675 0
    endloop
  endfacet
  facet normal 0 0 -1
    outer loop
      vertex 33.8 36.2 0
      vertex 8.17547 31.1533 0
      vertex 8.27192 31.2833 0
    endloop
  endfacet
  facet normal 0 0 -1
    outer loop
      vertex 8.06673 5.16673 0
      vertex 8.17547 31.1533 0
      vertex 8.17547 5.04675 0
    endloop
  endfacet
  facet normal 0 0 -1
    outer loop
      vertex 8.06673 5.16673 0
      vertex 8.06673 31.0333 0
      vertex 8.17547 31.1533 0
    endloop
  endfacet
  facet normal 0 0 -1
    outer loop
      vertex 7.94675 5.27547 0
      vertex 8.06673 31.0333 0
      vertex 8.06673 5.16673 0
    endloop
  endfacet
  facet normal 0 0 -1
    outer loop
      vertex 7.94675 5.27547 0
      vertex 7.94675 30.9245 0
      vertex 8.06673 31.0333 0
    endloop
  endfacet
  facet normal 0 0 -1
    outer loop
      vertex 7.81669 5.37192 0
      vertex 7.94675 30.9245 0
      vertex 7.94675 5.27547 0
    endloop
  endfacet
  facet normal 0 0 -1
    outer loop
      vertex 7.81669 5.37192 0
      vertex 7.81669 30.8281 0
      vertex 7.94675 30.9245 0
    endloop
  endfacet
  facet normal 0 0 -1
    outer loop
      vertex 7.6778 5.45517 0
      vertex 7.81669 30.8281 0
      vertex 7.81669 5.37192 0
    endloop
  endfacet
  facet normal 0 0 -1
    outer loop
      vertex 7.6778 5.45517 0
      vertex 7.6778 30.7448 0
      vertex 7.81669 30.8281 0
    endloop
  endfacet
  facet normal 0 0 -1
    outer loop
      vertex 7.53143 5.5244 0
      vertex 7.6778 30.7448 0
      vertex 7.6778 5.45517 0
    endloop
  endfacet
  facet normal 0 0 -1
    outer loop
      vertex 7.53143 5.5244 0
      vertex 7.53143 30.6756 0
      vertex 7.6778 30.7448 0
    endloop
  endfacet
  facet normal 0 0 -1
    outer loop
      vertex 7.37897 5.57895 0
      vertex 7.53143 30.6756 0
      vertex 7.53143 5.5244 0
    endloop
  endfacet
  facet normal 0 0 -1
    outer loop
      vertex 7.37897 5.57895 0
      vertex 7.37897 30.621 0
      vertex 7.53143 30.6756 0
    endloop
  endfacet
  facet normal 0 0 -1
    outer loop
      vertex 7.2219 5.6183 0
      vertex 7.37897 30.621 0
      vertex 7.37897 5.57895 0
    endloop
  endfacet
  facet normal 0 0 -1
    outer loop
      vertex 7.2219 5.6183 0
      vertex 7.2219 30.5817 0
      vertex 7.37897 30.621 0
    endloop
  endfacet
  facet normal 0 0 -1
    outer loop
      vertex 7.06173 5.64205 0
      vertex 7.2219 30.5817 0
      vertex 7.2219 5.6183 0
    endloop
  endfacet
  facet normal 0 0 -1
    outer loop
      vertex 7.06173 5.64205 0
      vertex 7.06173 30.5579 0
      vertex 7.2219 30.5817 0
    endloop
  endfacet
  facet normal 0 0 -1
    outer loop
      vertex 6.9 5.65 0
      vertex 7.06173 30.5579 0
      vertex 7.06173 5.64205 0
    endloop
  endfacet
  facet normal 0 0 -1
    outer loop
      vertex 6.9 5.65 0
      vertex 6.9 30.55 0
      vertex 7.06173 30.5579 0
    endloop
  endfacet
  facet normal 0 0 -1
    outer loop
      vertex 6.73827 5.64205 0
      vertex 6.9 30.55 0
      vertex 6.9 5.65 0
    endloop
  endfacet
  facet normal 0 0 -1
    outer loop
      vertex 6.73827 5.64205 0
      vertex 6.73827 30.5579 0
      vertex 6.9 30.55 0
    endloop
  endfacet
  facet normal 0 0 -1
    outer loop
      vertex 6.5781 5.6183 0
      vertex 6.73827 30.5579 0
      vertex 6.73827 5.64205 0
    endloop
  endfacet
  facet normal 0 0 -1
    outer loop
      vertex 6.5781 5.6183 0
      vertex 6.5781 30.5817 0
      vertex 6.73827 30.5579 0
    endloop
  endfacet
  facet normal 0 0 -1
    outer loop
      vertex 6.42103 5.57895 0
      vertex 6.5781 30.5817 0
      vertex 6.5781 5.6183 0
    endloop
  endfacet
  facet normal 0 0 -1
    outer loop
      vertex 6.42103 5.57895 0
      vertex 6.42103 30.621 0
      vertex 6.5781 30.5817 0
    endloop
  endfacet
  facet normal 0 0 -1
    outer loop
      vertex 6.26857 5.5244 0
      vertex 6.42103 30.621 0
      vertex 6.42103 5.57895 0
    endloop
  endfacet
  facet normal 0 0 -1
    outer loop
      vertex 6.26857 5.5244 0
      vertex 6.26857 30.6756 0
      vertex 6.42103 30.621 0
    endloop
  endfacet
  facet normal 0 0 -1
    outer loop
      vertex 6.1222 5.45517 0
      vertex 6.26857 30.6756 0
      vertex 6.26857 5.5244 0
    endloop
  endfacet
  facet normal 0 0 -1
    outer loop
      vertex 6.1222 5.45517 0
      vertex 6.1222 30.7448 0
      vertex 6.26857 30.6756 0
    endloop
  endfacet
  facet normal 0 0 -1
    outer loop
      vertex 5.98331 5.37192 0
      vertex 6.1222 30.7448 0
      vertex 6.1222 5.45517 0
    endloop
  endfacet
  facet normal 0 0 -1
    outer loop
      vertex 5.98331 5.37192 0
      vertex 5.98331 30.8281 0
      vertex 6.1222 30.7448 0
    endloop
  endfacet
  facet normal 0 0 -1
    outer loop
      vertex 5.85325 5.27547 0
      vertex 5.98331 30.8281 0
      vertex 5.98331 5.37192 0
    endloop
  endfacet
  facet normal 0 0 -1
    outer loop
      vertex 5.85325 5.27547 0
      vertex 5.85325 30.9245 0
      vertex 5.98331 30.8281 0
    endloop
  endfacet
  facet normal 0 0 -1
    outer loop
      vertex 5.73327 5.16673 0
      vertex 5.85325 30.9245 0
      vertex 5.85325 5.27547 0
    endloop
  endfacet
  facet normal 0 0 -1
    outer loop
      vertex 5.73327 5.16673 0
      vertex 5.73327 31.0333 0
      vertex 5.85325 30.9245 0
    endloop
  endfacet
  facet normal 0 0 -1
    outer loop
      vertex 5.62453 5.04675 0
      vertex 5.73327 31.0333 0
      vertex 5.73327 5.16673 0
    endloop
  endfacet
  facet normal 0 0 -1
    outer loop
      vertex 5.62453 5.04675 0
      vertex 5.62453 31.1533 0
      vertex 5.73327 31.0333 0
    endloop
  endfacet
  facet normal 0 0 -1
    outer loop
      vertex 0 0 0
      vertex 5.62453 5.04675 0
      vertex 5.52807 4.91669 0
    endloop
  endfacet
  facet normal -0 0 -1
    outer loop
      vertex 5.62453 5.04675 0
      vertex 0 0 0
      vertex 5.62453 31.1533 0
    endloop
  endfacet
  facet normal 0 0 -1
    outer loop
      vertex 0 0 0
      vertex 5.52807 4.91669 0
      vertex 5.44483 4.7778 0
    endloop
  endfacet
  facet normal 0 0 -1
    outer loop
      vertex 0 36.2 0
      vertex 5.62453 31.1533 0
      vertex 0 0 0
    endloop
  endfacet
  facet normal 0 0 -1
    outer loop
      vertex 0 0 0
      vertex 5.44483 4.7778 0
      vertex 5.3756 4.63143 0
    endloop
  endfacet
  facet normal 0 0 -1
    outer loop
      vertex 5.62453 31.1533 0
      vertex 0 36.2 0
      vertex 5.52807 31.2833 0
    endloop
  endfacet
  facet normal 0 0 -1
    outer loop
      vertex 0 0 0
      vertex 5.3756 4.63143 0
      vertex 5.32105 4.47897 0
    endloop
  endfacet
  facet normal 0 0 -1
    outer loop
      vertex 5.52807 31.2833 0
      vertex 0 36.2 0
      vertex 5.44483 31.4222 0
    endloop
  endfacet
  facet normal 0 0 -1
    outer loop
      vertex 0 0 0
      vertex 5.32105 4.47897 0
      vertex 5.2817 4.3219 0
    endloop
  endfacet
  facet normal 0 0 -1
    outer loop
      vertex 5.44483 31.4222 0
      vertex 0 36.2 0
      vertex 5.3756 31.5686 0
    endloop
  endfacet
  facet normal 0 0 -1
    outer loop
      vertex 0 0 0
      vertex 5.2817 4.3219 0
      vertex 5.25795 4.16173 0
    endloop
  endfacet
  facet normal 0 0 -1
    outer loop
      vertex 5.3756 31.5686 0
      vertex 0 36.2 0
      vertex 5.32105 31.721 0
    endloop
  endfacet
  facet normal 0 0 -1
    outer loop
      vertex 0 0 0
      vertex 5.25795 4.16173 0
      vertex 5.25 4 0
    endloop
  endfacet
  facet normal 0 0 -1
    outer loop
      vertex 5.32105 31.721 0
      vertex 0 36.2 0
      vertex 5.2817 31.8781 0
    endloop
  endfacet
  facet normal 0 0 -1
    outer loop
      vertex 8.54205 4.16173 0
      vertex 33.8 0 0
      vertex 8.55 4 0
    endloop
  endfacet
  facet normal 0 0 -1
    outer loop
      vertex 33.8 0 0
      vertex 8.54205 3.83827 0
      vertex 8.55 4 0
    endloop
  endfacet
  facet normal 0 0 -1
    outer loop
      vertex 33.8 0 0
      vertex 8.5183 3.6781 0
      vertex 8.54205 3.83827 0
    endloop
  endfacet
  facet normal 0 0 -1
    outer loop
      vertex 33.8 0 0
      vertex 8.47895 3.52103 0
      vertex 8.5183 3.6781 0
    endloop
  endfacet
  facet normal 0 0 -1
    outer loop
      vertex 33.8 0 0
      vertex 8.4244 3.36857 0
      vertex 8.47895 3.52103 0
    endloop
  endfacet
  facet normal 0 0 -1
    outer loop
      vertex 33.8 0 0
      vertex 8.35517 3.22219 0
      vertex 8.4244 3.36857 0
    endloop
  endfacet
  facet normal 0 0 -1
    outer loop
      vertex 33.8 0 0
      vertex 8.27192 3.08331 0
      vertex 8.35517 3.22219 0
    endloop
  endfacet
  facet normal 0 0 -1
    outer loop
      vertex 33.8 0 0
      vertex 8.17547 2.95325 0
      vertex 8.27192 3.08331 0
    endloop
  endfacet
  facet normal 0 0 -1
    outer loop
      vertex 33.8 0 0
      vertex 8.06673 2.83327 0
      vertex 8.17547 2.95325 0
    endloop
  endfacet
  facet normal 0 0 -1
    outer loop
      vertex 33.8 0 0
      vertex 7.94675 2.72453 0
      vertex 8.06673 2.83327 0
    endloop
  endfacet
  facet normal 0 0 -1
    outer loop
      vertex 33.8 0 0
      vertex 7.81669 2.62807 0
      vertex 7.94675 2.72453 0
    endloop
  endfacet
  facet normal 0 0 -1
    outer loop
      vertex 33.8 0 0
      vertex 7.6778 2.54483 0
      vertex 7.81669 2.62807 0
    endloop
  endfacet
  facet normal 0 0 -1
    outer loop
      vertex 33.8 0 0
      vertex 7.53143 2.4756 0
      vertex 7.6778 2.54483 0
    endloop
  endfacet
  facet normal 0 0 -1
    outer loop
      vertex 33.8 0 0
      vertex 7.37897 2.42105 0
      vertex 7.53143 2.4756 0
    endloop
  endfacet
  facet normal 0 0 -1
    outer loop
      vertex 33.8 0 0
      vertex 7.2219 2.3817 0
      vertex 7.37897 2.42105 0
    endloop
  endfacet
  facet normal 0 0 -1
    outer loop
      vertex 0 0 0
      vertex 7.2219 2.3817 0
      vertex 33.8 0 0
    endloop
  endfacet
  facet normal 0 0 -1
    outer loop
      vertex 7.2219 2.3817 0
      vertex 0 0 0
      vertex 7.06173 2.35794 0
    endloop
  endfacet
  facet normal 0 0 -1
    outer loop
      vertex 7.06173 2.35794 0
      vertex 0 0 0
      vertex 6.9 2.35 0
    endloop
  endfacet
  facet normal 0 0 -1
    outer loop
      vertex 5.2817 31.8781 0
      vertex 0 36.2 0
      vertex 5.25795 32.0383 0
    endloop
  endfacet
  facet normal -0 0 -1
    outer loop
      vertex 5.25795 3.83827 0
      vertex 0 0 0
      vertex 5.25 4 0
    endloop
  endfacet
  facet normal -0 0 -1
    outer loop
      vertex 5.2817 3.6781 0
      vertex 0 0 0
      vertex 5.25795 3.83827 0
    endloop
  endfacet
  facet normal -0 0 -1
    outer loop
      vertex 5.32105 3.52103 0
      vertex 0 0 0
      vertex 5.2817 3.6781 0
    endloop
  endfacet
  facet normal -0 0 -1
    outer loop
      vertex 5.3756 3.36857 0
      vertex 0 0 0
      vertex 5.32105 3.52103 0
    endloop
  endfacet
  facet normal -0 0 -1
    outer loop
      vertex 5.44483 3.22219 0
      vertex 0 0 0
      vertex 5.3756 3.36857 0
    endloop
  endfacet
  facet normal -0 0 -1
    outer loop
      vertex 5.52807 3.08331 0
      vertex 0 0 0
      vertex 5.44483 3.22219 0
    endloop
  endfacet
  facet normal -0 0 -1
    outer loop
      vertex 5.62453 2.95325 0
      vertex 0 0 0
      vertex 5.52807 3.08331 0
    endloop
  endfacet
  facet normal -0 0 -1
    outer loop
      vertex 5.73327 2.83327 0
      vertex 0 0 0
      vertex 5.62453 2.95325 0
    endloop
  endfacet
  facet normal -0 0 -1
    outer loop
      vertex 5.85325 2.72453 0
      vertex 0 0 0
      vertex 5.73327 2.83327 0
    endloop
  endfacet
  facet normal -0 0 -1
    outer loop
      vertex 5.98331 2.62807 0
      vertex 0 0 0
      vertex 5.85325 2.72453 0
    endloop
  endfacet
  facet normal -0 0 -1
    outer loop
      vertex 6.1222 2.54483 0
      vertex 0 0 0
      vertex 5.98331 2.62807 0
    endloop
  endfacet
  facet normal -0 0 -1
    outer loop
      vertex 6.26857 2.4756 0
      vertex 0 0 0
      vertex 6.1222 2.54483 0
    endloop
  endfacet
  facet normal -0 0 -1
    outer loop
      vertex 6.42103 2.42105 0
      vertex 0 0 0
      vertex 6.26857 2.4756 0
    endloop
  endfacet
  facet normal -0 0 -1
    outer loop
      vertex 6.5781 2.3817 0
      vertex 0 0 0
      vertex 6.42103 2.42105 0
    endloop
  endfacet
  facet normal -0 0 -1
    outer loop
      vertex 6.73827 2.35794 0
      vertex 0 0 0
      vertex 6.5781 2.3817 0
    endloop
  endfacet
  facet normal -0 0 -1
    outer loop
      vertex 6.9 2.35 0
      vertex 0 0 0
      vertex 6.73827 2.35794 0
    endloop
  endfacet
  facet normal 0 0 -1
    outer loop
      vertex 8.5183 4.3219 0
      vertex 33.8 0 0
      vertex 8.54205 4.16173 0
    endloop
  endfacet
  facet normal 0 0 -1
    outer loop
      vertex 8.54205 32.3617 0
      vertex 33.8 36.2 0
      vertex 8.55 32.2 0
    endloop
  endfacet
  facet normal 0 0 -1
    outer loop
      vertex 8.5183 32.5219 0
      vertex 33.8 36.2 0
      vertex 8.54205 32.3617 0
    endloop
  endfacet
  facet normal 0 0 -1
    outer loop
      vertex 8.47895 32.679 0
      vertex 33.8 36.2 0
      vertex 8.5183 32.5219 0
    endloop
  endfacet
  facet normal 0 0 -1
    outer loop
      vertex 8.4244 32.8314 0
      vertex 33.8 36.2 0
      vertex 8.47895 32.679 0
    endloop
  endfacet
  facet normal 0 0 -1
    outer loop
      vertex 8.35517 32.9778 0
      vertex 33.8 36.2 0
      vertex 8.4244 32.8314 0
    endloop
  endfacet
  facet normal 0 0 -1
    outer loop
      vertex 8.27192 33.1167 0
      vertex 33.8 36.2 0
      vertex 8.35517 32.9778 0
    endloop
  endfacet
  facet normal 0 0 -1
    outer loop
      vertex 8.17547 33.2467 0
      vertex 33.8 36.2 0
      vertex 8.27192 33.1167 0
    endloop
  endfacet
  facet normal 0 0 -1
    outer loop
      vertex 8.06673 33.3667 0
      vertex 33.8 36.2 0
      vertex 8.17547 33.2467 0
    endloop
  endfacet
  facet normal 0 0 -1
    outer loop
      vertex 7.94675 33.4755 0
      vertex 33.8 36.2 0
      vertex 8.06673 33.3667 0
    endloop
  endfacet
  facet normal 0 0 -1
    outer loop
      vertex 7.81669 33.5719 0
      vertex 33.8 36.2 0
      vertex 7.94675 33.4755 0
    endloop
  endfacet
  facet normal 0 0 -1
    outer loop
      vertex 7.6778 33.6552 0
      vertex 33.8 36.2 0
      vertex 7.81669 33.5719 0
    endloop
  endfacet
  facet normal 0 0 -1
    outer loop
      vertex 7.53143 33.7244 0
      vertex 33.8 36.2 0
      vertex 7.6778 33.6552 0
    endloop
  endfacet
  facet normal 0 0 -1
    outer loop
      vertex 7.37897 33.7789 0
      vertex 33.8 36.2 0
      vertex 7.53143 33.7244 0
    endloop
  endfacet
  facet normal 0 0 -1
    outer loop
      vertex 7.2219 33.8183 0
      vertex 33.8 36.2 0
      vertex 7.37897 33.7789 0
    endloop
  endfacet
  facet normal 0 0 -1
    outer loop
      vertex 0 36.2 0
      vertex 7.2219 33.8183 0
      vertex 7.06173 33.8421 0
    endloop
  endfacet
  facet normal 0 0 -1
    outer loop
      vertex 0 36.2 0
      vertex 7.06173 33.8421 0
      vertex 6.9 33.85 0
    endloop
  endfacet
  facet normal 0 0 -1
    outer loop
      vertex 0 36.2 0
      vertex 6.9 33.85 0
      vertex 6.73827 33.8421 0
    endloop
  endfacet
  facet normal 0 0 -1
    outer loop
      vertex 5.25795 32.0383 0
      vertex 0 36.2 0
      vertex 5.25 32.2 0
    endloop
  endfacet
  facet normal 0 0 -1
    outer loop
      vertex 5.25 32.2 0
      vertex 0 36.2 0
      vertex 5.25795 32.3617 0
    endloop
  endfacet
  facet normal 0 0 -1
    outer loop
      vertex 7.2219 33.8183 0
      vertex 0 36.2 0
      vertex 33.8 36.2 0
    endloop
  endfacet
  facet normal 0 0 -1
    outer loop
      vertex 6.5781 33.8183 0
      vertex 0 36.2 0
      vertex 6.73827 33.8421 0
    endloop
  endfacet
  facet normal 0 0 -1
    outer loop
      vertex 6.42103 33.7789 0
      vertex 0 36.2 0
      vertex 6.5781 33.8183 0
    endloop
  endfacet
  facet normal 0 0 -1
    outer loop
      vertex 6.26857 33.7244 0
      vertex 0 36.2 0
      vertex 6.42103 33.7789 0
    endloop
  endfacet
  facet normal 0 0 -1
    outer loop
      vertex 6.1222 33.6552 0
      vertex 0 36.2 0
      vertex 6.26857 33.7244 0
    endloop
  endfacet
  facet normal 0 0 -1
    outer loop
      vertex 5.98331 33.5719 0
      vertex 0 36.2 0
      vertex 6.1222 33.6552 0
    endloop
  endfacet
  facet normal 0 0 -1
    outer loop
      vertex 5.85325 33.4755 0
      vertex 0 36.2 0
      vertex 5.98331 33.5719 0
    endloop
  endfacet
  facet normal 0 0 -1
    outer loop
      vertex 5.73327 33.3667 0
      vertex 0 36.2 0
      vertex 5.85325 33.4755 0
    endloop
  endfacet
  facet normal 0 0 -1
    outer loop
      vertex 5.62453 33.2467 0
      vertex 0 36.2 0
      vertex 5.73327 33.3667 0
    endloop
  endfacet
  facet normal 0 0 -1
    outer loop
      vertex 5.52807 33.1167 0
      vertex 0 36.2 0
      vertex 5.62453 33.2467 0
    endloop
  endfacet
  facet normal 0 0 -1
    outer loop
      vertex 5.44483 32.9778 0
      vertex 0 36.2 0
      vertex 5.52807 33.1167 0
    endloop
  endfacet
  facet normal 0 0 -1
    outer loop
      vertex 5.3756 32.8314 0
      vertex 0 36.2 0
      vertex 5.44483 32.9778 0
    endloop
  endfacet
  facet normal 0 0 -1
    outer loop
      vertex 5.32105 32.679 0
      vertex 0 36.2 0
      vertex 5.3756 32.8314 0
    endloop
  endfacet
  facet normal 0 0 -1
    outer loop
      vertex 5.2817 32.5219 0
      vertex 0 36.2 0
      vertex 5.32105 32.679 0
    endloop
  endfacet
  facet normal 0 0 -1
    outer loop
      vertex 5.25795 32.3617 0
      vertex 0 36.2 0
      vertex 5.2817 32.5219 0
    endloop
  endfacet
  facet normal 0 -1 0
    outer loop
      vertex 0 0 4.9
      vertex 9.8 0 2.8
      vertex 9.8 0 4.9
    endloop
  endfacet
  facet normal 0 -1 0
    outer loop
      vertex 0 0 0
      vertex 9.8 0 2.8
      vertex 0 0 4.9
    endloop
  endfacet
  facet normal 0 -1 0
    outer loop
      vertex 33.8 0 0
      vertex 9.8 0 2.8
      vertex 0 0 0
    endloop
  endfacet
  facet normal 0 -1 0
    outer loop
      vertex 9.8 0 2.8
      vertex 33.8 0 0
      vertex 28.2 0 2.8
    endloop
  endfacet
  facet normal 1 -0 0
    outer loop
      vertex 3.2 8 2.8
      vertex 3.2 28.2 1.6
      vertex 3.2 28.2 2.8
    endloop
  endfacet
  facet normal 1 0 0
    outer loop
      vertex 3.2 28.2 1.6
      vertex 3.2 8 2.8
      vertex 3.2 8 1.6
    endloop
  endfacet
  facet normal -1 0 0
    outer loop
      vertex 13.8 8 1.6
      vertex 13.8 28.2 2.8
      vertex 13.8 28.2 1.6
    endloop
  endfacet
  facet normal -1 -0 0
    outer loop
      vertex 13.8 28.2 2.8
      vertex 13.8 8 1.6
      vertex 13.8 8 2.8
    endloop
  endfacet
  facet normal -0 0 1
    outer loop
      vertex 3.2 28.2 1.6
      vertex 13.8 8 1.6
      vertex 13.8 28.2 1.6
    endloop
  endfacet
  facet normal 0 0 1
    outer loop
      vertex 13.8 8 1.6
      vertex 3.2 28.2 1.6
      vertex 3.2 8 1.6
    endloop
  endfacet
  facet normal 0 1 -0
    outer loop
      vertex 13.8 8 1.6
      vertex 3.2 8 2.8
      vertex 13.8 8 2.8
    endloop
  endfacet
  facet normal 0 1 0
    outer loop
      vertex 3.2 8 2.8
      vertex 13.8 8 1.6
      vertex 3.2 8 1.6
    endloop
  endfacet
  facet normal 0 1 0
    outer loop
      vertex 3.2 8 2.8
      vertex 13.8 8 4.9
      vertex 13.8 8 2.8
    endloop
  endfacet
  facet normal 0 1 0
    outer loop
      vertex 13.8 8 4.9
      vertex 3.2 8 2.8
      vertex 0 8 4.9
    endloop
  endfacet
  facet normal 0 1 0
    outer loop
      vertex 0 8 4.9
      vertex 3.2 8 2.8
      vertex 0 8 2.8
    endloop
  endfacet
  facet normal 0 -1 0
    outer loop
      vertex 3.2 28.2 2.8
      vertex 0 28.2 4.9
      vertex 0 28.2 2.8
    endloop
  endfacet
  facet normal 0 -1 0
    outer loop
      vertex 0 28.2 4.9
      vertex 3.2 28.2 2.8
      vertex 13.8 28.2 4.9
    endloop
  endfacet
  facet normal 0 -1 0
    outer loop
      vertex 3.2 28.2 2.8
      vertex 13.8 28.2 2.8
      vertex 13.8 28.2 4.9
    endloop
  endfacet
  facet normal 0 -1 0
    outer loop
      vertex 3.2 28.2 1.6
      vertex 13.8 28.2 2.8
      vertex 3.2 28.2 2.8
    endloop
  endfacet
  facet normal 0 -1 -0
    outer loop
      vertex 13.8 28.2 2.8
      vertex 3.2 28.2 1.6
      vertex 13.8 28.2 1.6
    endloop
  endfacet
  facet normal -0 0 1
    outer loop
      vertex 0 28.2 2.8
      vertex 3.2 8 2.8
      vertex 3.2 28.2 2.8
    endloop
  endfacet
  facet normal 0 0 1
    outer loop
      vertex 3.2 8 2.8
      vertex 0 28.2 2.8
      vertex 0 8 2.8
    endloop
  endfacet
  facet normal 0 0 1
    outer loop
      vertex 28.2 36.2 2.8
      vertex 13.8 28.2 2.8
      vertex 28.2 0 2.8
    endloop
  endfacet
  facet normal 0 -0 1
    outer loop
      vertex 13.8 28.2 2.8
      vertex 28.2 36.2 2.8
      vertex 9.8 36.2 2.8
    endloop
  endfacet
  facet normal -0 0 1
    outer loop
      vertex 13.8 8 2.8
      vertex 28.2 0 2.8
      vertex 13.8 28.2 2.8
    endloop
  endfacet
  facet normal 0 0 1
    outer loop
      vertex 28.2 0 2.8
      vertex 13.8 8 2.8
      vertex 9.8 0 2.8
    endloop
  endfacet
  facet normal 0.447214 0 0.894427
    outer loop
      vertex 28.2 36.2 2.8
      vertex 33.8 0 0
      vertex 33.8 36.2 0
    endloop
  endfacet
  facet normal 0.447214 0 0.894427
    outer loop
      vertex 33.8 0 0
      vertex 28.2 36.2 2.8
      vertex 28.2 0 2.8
    endloop
  endfacet
  facet normal 0.894427 -0.447214 0
    outer loop
      vertex 9.8 0 4.9
      vertex 13.8 8 2.8
      vertex 13.8 8 4.9
    endloop
  endfacet
  facet normal 0.894427 -0.447214 0
    outer loop
      vertex 13.8 8 2.8
      vertex 9.8 0 4.9
      vertex 9.8 0 2.8
    endloop
  endfacet
  facet normal 0.894427 0.447214 0
    outer loop
      vertex 13.8 28.2 4.9
      vertex 9.8 36.2 2.8
      vertex 9.8 36.2 4.9
    endloop
  endfacet
  facet normal 0.894427 0.447214 0
    outer loop
      vertex 9.8 36.2 2.8
      vertex 13.8 28.2 4.9
      vertex 13.8 28.2 2.8
    endloop
  endfacet
  facet normal -0.998795 -0.0490669 0
    outer loop
      vertex 8.55 4 0
      vertex 8.54205 4.16173 4.9
      vertex 8.54205 4.16173 0
    endloop
  endfacet
  facet normal -0.998795 -0.0490669 0
    outer loop
      vertex 8.54205 4.16173 4.9
      vertex 8.55 4 0
      vertex 8.55 4 4.9
    endloop
  endfacet
  facet normal 0.0490669 -0.998795 0
    outer loop
      vertex 6.73827 5.64205 0
      vertex 6.9 5.65 4.9
      vertex 6.73827 5.64205 4.9
    endloop
  endfacet
  facet normal 0.0490669 -0.998795 0
    outer loop
      vertex 6.9 5.65 4.9
      vertex 6.73827 5.64205 0
      vertex 6.9 5.65 0
    endloop
  endfacet
  facet normal -0.671559 -0.740951 0
    outer loop
      vertex 7.94675 5.27547 0
      vertex 8.06673 5.16673 4.9
      vertex 7.94675 5.27547 4.9
    endloop
  endfacet
  facet normal -0.671559 -0.740951 -0
    outer loop
      vertex 8.06673 5.16673 4.9
      vertex 7.94675 5.27547 0
      vertex 8.06673 5.16673 0
    endloop
  endfacet
  facet normal 0.740954 -0.671556 0
    outer loop
      vertex 5.62453 5.04675 4.9
      vertex 5.73327 5.16673 0
      vertex 5.73327 5.16673 4.9
    endloop
  endfacet
  facet normal 0.740954 -0.671556 0
    outer loop
      vertex 5.73327 5.16673 0
      vertex 5.62453 5.04675 4.9
      vertex 5.62453 5.04675 0
    endloop
  endfacet
  facet normal 0.427555 -0.903989 0
    outer loop
      vertex 6.1222 5.45517 0
      vertex 6.26857 5.5244 4.9
      vertex 6.1222 5.45517 4.9
    endloop
  endfacet
  facet normal 0.427555 -0.903989 0
    outer loop
      vertex 6.26857 5.5244 4.9
      vertex 6.1222 5.45517 0
      vertex 6.26857 5.5244 0
    endloop
  endfacet
  facet normal -0.90399 -0.427553 0
    outer loop
      vertex 8.4244 4.63143 0
      vertex 8.35517 4.7778 4.9
      vertex 8.35517 4.7778 0
    endloop
  endfacet
  facet normal -0.90399 -0.427553 0
    outer loop
      vertex 8.35517 4.7778 4.9
      vertex 8.4244 4.63143 0
      vertex 8.4244 4.63143 4.9
    endloop
  endfacet
  facet normal -0.336889 -0.941545 0
    outer loop
      vertex 7.37897 5.57895 0
      vertex 7.53143 5.5244 4.9
      vertex 7.37897 5.57895 4.9
    endloop
  endfacet
  facet normal -0.336889 -0.941545 -0
    outer loop
      vertex 7.53143 5.5244 4.9
      vertex 7.37897 5.57895 0
      vertex 7.53143 5.5244 0
    endloop
  endfacet
  facet normal -0.514102 -0.857729 0
    outer loop
      vertex 7.6778 5.45517 0
      vertex 7.81669 5.37192 4.9
      vertex 7.6778 5.45517 4.9
    endloop
  endfacet
  facet normal -0.514102 -0.857729 -0
    outer loop
      vertex 7.81669 5.37192 4.9
      vertex 7.6778 5.45517 0
      vertex 7.81669 5.37192 0
    endloop
  endfacet
  facet normal 0.941544 -0.33689 0
    outer loop
      vertex 5.32105 4.47897 4.9
      vertex 5.3756 4.63143 0
      vertex 5.3756 4.63143 4.9
    endloop
  endfacet
  facet normal 0.941544 -0.33689 0
    outer loop
      vertex 5.3756 4.63143 0
      vertex 5.32105 4.47897 4.9
      vertex 5.32105 4.47897 0
    endloop
  endfacet
  facet normal 0.242985 -0.97003 0
    outer loop
      vertex 6.42103 5.57895 0
      vertex 6.5781 5.6183 4.9
      vertex 6.42103 5.57895 4.9
    endloop
  endfacet
  facet normal 0.242985 -0.97003 0
    outer loop
      vertex 6.5781 5.6183 4.9
      vertex 6.42103 5.57895 0
      vertex 6.5781 5.6183 0
    endloop
  endfacet
  facet normal -0.970032 -0.242978 0
    outer loop
      vertex 8.5183 4.3219 0
      vertex 8.47895 4.47897 4.9
      vertex 8.47895 4.47897 0
    endloop
  endfacet
  facet normal -0.970032 -0.242978 0
    outer loop
      vertex 8.47895 4.47897 4.9
      vertex 8.5183 4.3219 0
      vertex 8.5183 4.3219 4.9
    endloop
  endfacet
  facet normal -0.989177 -0.146729 0
    outer loop
      vertex 8.54205 4.16173 0
      vertex 8.5183 4.3219 4.9
      vertex 8.5183 4.3219 0
    endloop
  endfacet
  facet normal -0.989177 -0.146729 0
    outer loop
      vertex 8.5183 4.3219 4.9
      vertex 8.54205 4.16173 0
      vertex 8.54205 4.16173 4.9
    endloop
  endfacet
  facet normal -0.941542 -0.336896 0
    outer loop
      vertex 8.47895 4.47897 0
      vertex 8.4244 4.63143 4.9
      vertex 8.4244 4.63143 0
    endloop
  endfacet
  facet normal -0.941542 -0.336896 0
    outer loop
      vertex 8.4244 4.63143 4.9
      vertex 8.47895 4.47897 0
      vertex 8.47895 4.47897 4.9
    endloop
  endfacet
  facet normal -0.803206 -0.595701 0
    outer loop
      vertex 8.27192 4.91669 0
      vertex 8.17547 5.04675 4.9
      vertex 8.17547 5.04675 0
    endloop
  endfacet
  facet normal -0.803206 -0.595701 0
    outer loop
      vertex 8.17547 5.04675 4.9
      vertex 8.27192 4.91669 0
      vertex 8.27192 4.91669 4.9
    endloop
  endfacet
  facet normal -0.740954 -0.671556 0
    outer loop
      vertex 8.17547 5.04675 0
      vertex 8.06673 5.16673 4.9
      vertex 8.06673 5.16673 0
    endloop
  endfacet
  facet normal -0.740954 -0.671556 0
    outer loop
      vertex 8.06673 5.16673 4.9
      vertex 8.17547 5.04675 0
      vertex 8.17547 5.04675 4.9
    endloop
  endfacet
  facet normal -0.857729 -0.514102 0
    outer loop
      vertex 8.35517 4.7778 0
      vertex 8.27192 4.91669 4.9
      vertex 8.27192 4.91669 0
    endloop
  endfacet
  facet normal -0.857729 -0.514102 0
    outer loop
      vertex 8.27192 4.91669 4.9
      vertex 8.35517 4.7778 0
      vertex 8.35517 4.7778 4.9
    endloop
  endfacet
  facet normal -0.146729 -0.989177 0
    outer loop
      vertex 7.06173 5.64205 0
      vertex 7.2219 5.6183 4.9
      vertex 7.06173 5.64205 4.9
    endloop
  endfacet
  facet normal -0.146729 -0.989177 -0
    outer loop
      vertex 7.2219 5.6183 4.9
      vertex 7.06173 5.64205 0
      vertex 7.2219 5.6183 0
    endloop
  endfacet
  facet normal -0.242983 -0.97003 0
    outer loop
      vertex 7.2219 5.6183 0
      vertex 7.37897 5.57895 4.9
      vertex 7.2219 5.6183 4.9
    endloop
  endfacet
  facet normal -0.242983 -0.97003 -0
    outer loop
      vertex 7.37897 5.57895 4.9
      vertex 7.2219 5.6183 0
      vertex 7.37897 5.57895 0
    endloop
  endfacet
  facet normal -0.0490669 -0.998795 0
    outer loop
      vertex 6.9 5.65 0
      vertex 7.06173 5.64205 4.9
      vertex 6.9 5.65 4.9
    endloop
  endfacet
  facet normal -0.0490669 -0.998795 -0
    outer loop
      vertex 7.06173 5.64205 4.9
      vertex 6.9 5.65 0
      vertex 7.06173 5.64205 0
    endloop
  endfacet
  facet normal -0.427555 -0.903989 0
    outer loop
      vertex 7.53143 5.5244 0
      vertex 7.6778 5.45517 4.9
      vertex 7.53143 5.5244 4.9
    endloop
  endfacet
  facet normal -0.427555 -0.903989 -0
    outer loop
      vertex 7.6778 5.45517 4.9
      vertex 7.53143 5.5244 0
      vertex 7.6778 5.45517 0
    endloop
  endfacet
  facet normal -0.595698 -0.803208 0
    outer loop
      vertex 7.81669 5.37192 0
      vertex 7.94675 5.27547 4.9
      vertex 7.81669 5.37192 4.9
    endloop
  endfacet
  facet normal -0.595698 -0.803208 -0
    outer loop
      vertex 7.94675 5.27547 4.9
      vertex 7.81669 5.37192 0
      vertex 7.94675 5.27547 0
    endloop
  endfacet
  facet normal 0.989177 -0.146729 0
    outer loop
      vertex 5.25795 4.16173 4.9
      vertex 5.2817 4.3219 0
      vertex 5.2817 4.3219 4.9
    endloop
  endfacet
  facet normal 0.989177 -0.146729 0
    outer loop
      vertex 5.2817 4.3219 0
      vertex 5.25795 4.16173 4.9
      vertex 5.25795 4.16173 0
    endloop
  endfacet
  facet normal 0.857729 -0.514102 0
    outer loop
      vertex 5.44483 4.7778 4.9
      vertex 5.52807 4.91669 0
      vertex 5.52807 4.91669 4.9
    endloop
  endfacet
  facet normal 0.857729 -0.514102 0
    outer loop
      vertex 5.52807 4.91669 0
      vertex 5.44483 4.7778 4.9
      vertex 5.44483 4.7778 0
    endloop
  endfacet
  facet normal 0.803204 -0.595705 0
    outer loop
      vertex 5.52807 4.91669 4.9
      vertex 5.62453 5.04675 0
      vertex 5.62453 5.04675 4.9
    endloop
  endfacet
  facet normal 0.803204 -0.595705 0
    outer loop
      vertex 5.62453 5.04675 0
      vertex 5.52807 4.91669 4.9
      vertex 5.52807 4.91669 0
    endloop
  endfacet
  facet normal 0.90399 -0.427553 0
    outer loop
      vertex 5.3756 4.63143 4.9
      vertex 5.44483 4.7778 0
      vertex 5.44483 4.7778 4.9
    endloop
  endfacet
  facet normal 0.90399 -0.427553 0
    outer loop
      vertex 5.44483 4.7778 0
      vertex 5.3756 4.63143 4.9
      vertex 5.3756 4.63143 0
    endloop
  endfacet
  facet normal 0.970032 -0.242978 0
    outer loop
      vertex 5.2817 4.3219 4.9
      vertex 5.32105 4.47897 0
      vertex 5.32105 4.47897 4.9
    endloop
  endfacet
  facet normal 0.970032 -0.242978 0
    outer loop
      vertex 5.32105 4.47897 0
      vertex 5.2817 4.3219 4.9
      vertex 5.2817 4.3219 0
    endloop
  endfacet
  facet normal 0.998795 -0.0490669 0
    outer loop
      vertex 5.25 4 4.9
      vertex 5.25795 4.16173 0
      vertex 5.25795 4.16173 4.9
    endloop
  endfacet
  facet normal 0.998795 -0.0490669 0
    outer loop
      vertex 5.25795 4.16173 0
      vertex 5.25 4 4.9
      vertex 5.25 4 0
    endloop
  endfacet
  facet normal 0.595698 -0.803208 0
    outer loop
      vertex 5.85325 5.27547 0
      vertex 5.98331 5.37192 4.9
      vertex 5.85325 5.27547 4.9
    endloop
  endfacet
  facet normal 0.595698 -0.803208 0
    outer loop
      vertex 5.98331 5.37192 4.9
      vertex 5.85325 5.27547 0
      vertex 5.98331 5.37192 0
    endloop
  endfacet
  facet normal 0.514102 -0.857729 0
    outer loop
      vertex 5.98331 5.37192 0
      vertex 6.1222 5.45517 4.9
      vertex 5.98331 5.37192 4.9
    endloop
  endfacet
  facet normal 0.514102 -0.857729 0
    outer loop
      vertex 6.1222 5.45517 4.9
      vertex 5.98331 5.37192 0
      vertex 6.1222 5.45517 0
    endloop
  endfacet
  facet normal 0.671559 -0.740951 0
    outer loop
      vertex 5.73327 5.16673 0
      vertex 5.85325 5.27547 4.9
      vertex 5.73327 5.16673 4.9
    endloop
  endfacet
  facet normal 0.671559 -0.740951 0
    outer loop
      vertex 5.85325 5.27547 4.9
      vertex 5.73327 5.16673 0
      vertex 5.85325 5.27547 0
    endloop
  endfacet
  facet normal 0.336889 -0.941545 0
    outer loop
      vertex 6.26857 5.5244 0
      vertex 6.42103 5.57895 4.9
      vertex 6.26857 5.5244 4.9
    endloop
  endfacet
  facet normal 0.336889 -0.941545 0
    outer loop
      vertex 6.42103 5.57895 4.9
      vertex 6.26857 5.5244 0
      vertex 6.42103 5.57895 0
    endloop
  endfacet
  facet normal 0.146729 -0.989177 0
    outer loop
      vertex 6.5781 5.6183 0
      vertex 6.73827 5.64205 4.9
      vertex 6.5781 5.6183 4.9
    endloop
  endfacet
  facet normal 0.146729 -0.989177 0
    outer loop
      vertex 6.73827 5.64205 4.9
      vertex 6.5781 5.6183 0
      vertex 6.73827 5.64205 0
    endloop
  endfacet
  facet normal -0.998796 0.0490666 0
    outer loop
      vertex 8.54205 3.83827 0
      vertex 8.55 4 4.9
      vertex 8.55 4 0
    endloop
  endfacet
  facet normal -0.998796 0.0490666 0
    outer loop
      vertex 8.55 4 4.9
      vertex 8.54205 3.83827 0
      vertex 8.54205 3.83827 4.9
    endloop
  endfacet
  facet normal -0.146729 0.989177 0
    outer loop
      vertex 7.2219 2.3817 0
      vertex 7.06173 2.35794 4.9
      vertex 7.2219 2.3817 4.9
    endloop
  endfacet
  facet normal -0.146729 0.989177 0
    outer loop
      vertex 7.06173 2.35794 4.9
      vertex 7.2219 2.3817 0
      vertex 7.06173 2.35794 0
    endloop
  endfacet
  facet normal -0.336889 0.941545 0
    outer loop
      vertex 7.53143 2.4756 0
      vertex 7.37897 2.42105 4.9
      vertex 7.53143 2.4756 4.9
    endloop
  endfacet
  facet normal -0.336889 0.941545 0
    outer loop
      vertex 7.37897 2.42105 4.9
      vertex 7.53143 2.4756 0
      vertex 7.37897 2.42105 0
    endloop
  endfacet
  facet normal -0.671559 0.740951 0
    outer loop
      vertex 8.06673 2.83327 0
      vertex 7.94675 2.72453 4.9
      vertex 8.06673 2.83327 4.9
    endloop
  endfacet
  facet normal -0.671559 0.740951 0
    outer loop
      vertex 7.94675 2.72453 4.9
      vertex 8.06673 2.83327 0
      vertex 7.94675 2.72453 0
    endloop
  endfacet
  facet normal -0.514102 0.857729 0
    outer loop
      vertex 7.81669 2.62807 0
      vertex 7.6778 2.54483 4.9
      vertex 7.81669 2.62807 4.9
    endloop
  endfacet
  facet normal -0.514102 0.857729 0
    outer loop
      vertex 7.6778 2.54483 4.9
      vertex 7.81669 2.62807 0
      vertex 7.6778 2.54483 0
    endloop
  endfacet
  facet normal -0.803206 0.595701 0
    outer loop
      vertex 8.17547 2.95325 0
      vertex 8.27192 3.08331 4.9
      vertex 8.27192 3.08331 0
    endloop
  endfacet
  facet normal -0.803206 0.595701 0
    outer loop
      vertex 8.27192 3.08331 4.9
      vertex 8.17547 2.95325 0
      vertex 8.17547 2.95325 4.9
    endloop
  endfacet
  facet normal -0.90399 0.427553 0
    outer loop
      vertex 8.35517 3.22219 0
      vertex 8.4244 3.36857 4.9
      vertex 8.4244 3.36857 0
    endloop
  endfacet
  facet normal -0.90399 0.427553 0
    outer loop
      vertex 8.4244 3.36857 4.9
      vertex 8.35517 3.22219 0
      vertex 8.35517 3.22219 4.9
    endloop
  endfacet
  facet normal -0.970032 0.242978 0
    outer loop
      vertex 8.47895 3.52103 0
      vertex 8.5183 3.6781 4.9
      vertex 8.5183 3.6781 0
    endloop
  endfacet
  facet normal -0.970032 0.242978 0
    outer loop
      vertex 8.5183 3.6781 4.9
      vertex 8.47895 3.52103 0
      vertex 8.47895 3.52103 4.9
    endloop
  endfacet
  facet normal 0.595698 0.803208 -0
    outer loop
      vertex 5.98331 2.62807 0
      vertex 5.85325 2.72453 4.9
      vertex 5.98331 2.62807 4.9
    endloop
  endfacet
  facet normal 0.595698 0.803208 0
    outer loop
      vertex 5.85325 2.72453 4.9
      vertex 5.98331 2.62807 0
      vertex 5.85325 2.72453 0
    endloop
  endfacet
  facet normal 0.427555 0.903989 -0
    outer loop
      vertex 6.26857 2.4756 0
      vertex 6.1222 2.54483 4.9
      vertex 6.26857 2.4756 4.9
    endloop
  endfacet
  facet normal 0.427555 0.903989 0
    outer loop
      vertex 6.1222 2.54483 4.9
      vertex 6.26857 2.4756 0
      vertex 6.1222 2.54483 0
    endloop
  endfacet
  facet normal 0.242985 0.97003 -0
    outer loop
      vertex 6.5781 2.3817 0
      vertex 6.42103 2.42105 4.9
      vertex 6.5781 2.3817 4.9
    endloop
  endfacet
  facet normal 0.242985 0.97003 0
    outer loop
      vertex 6.42103 2.42105 4.9
      vertex 6.5781 2.3817 0
      vertex 6.42103 2.42105 0
    endloop
  endfacet
  facet normal 0.0490669 0.998795 -0
    outer loop
      vertex 6.9 2.35 0
      vertex 6.73827 2.35794 4.9
      vertex 6.9 2.35 4.9
    endloop
  endfacet
  facet normal 0.0490669 0.998795 0
    outer loop
      vertex 6.73827 2.35794 4.9
      vertex 6.9 2.35 0
      vertex 6.73827 2.35794 0
    endloop
  endfacet
  facet normal 0.857729 0.514102 0
    outer loop
      vertex 5.52807 3.08331 4.9
      vertex 5.44483 3.22219 0
      vertex 5.44483 3.22219 4.9
    endloop
  endfacet
  facet normal 0.857729 0.514102 0
    outer loop
      vertex 5.44483 3.22219 0
      vertex 5.52807 3.08331 4.9
      vertex 5.52807 3.08331 0
    endloop
  endfacet
  facet normal 0.740954 0.671556 0
    outer loop
      vertex 5.73327 2.83327 4.9
      vertex 5.62453 2.95325 0
      vertex 5.62453 2.95325 4.9
    endloop
  endfacet
  facet normal 0.740954 0.671556 0
    outer loop
      vertex 5.62453 2.95325 0
      vertex 5.73327 2.83327 4.9
      vertex 5.73327 2.83327 0
    endloop
  endfacet
  facet normal 0.941544 0.33689 0
    outer loop
      vertex 5.3756 3.36857 4.9
      vertex 5.32105 3.52103 0
      vertex 5.32105 3.52103 4.9
    endloop
  endfacet
  facet normal 0.941544 0.33689 0
    outer loop
      vertex 5.32105 3.52103 0
      vertex 5.3756 3.36857 4.9
      vertex 5.3756 3.36857 0
    endloop
  endfacet
  facet normal 0.989177 0.146729 0
    outer loop
      vertex 5.2817 3.6781 4.9
      vertex 5.25795 3.83827 0
      vertex 5.25795 3.83827 4.9
    endloop
  endfacet
  facet normal 0.989177 0.146729 0
    outer loop
      vertex 5.25795 3.83827 0
      vertex 5.2817 3.6781 4.9
      vertex 5.2817 3.6781 0
    endloop
  endfacet
  facet normal 0.998796 0.0490666 0
    outer loop
      vertex 5.25795 3.83827 4.9
      vertex 5.25 4 0
      vertex 5.25 4 4.9
    endloop
  endfacet
  facet normal 0.998796 0.0490666 0
    outer loop
      vertex 5.25 4 0
      vertex 5.25795 3.83827 4.9
      vertex 5.25795 3.83827 0
    endloop
  endfacet
  facet normal -0.242983 0.97003 0
    outer loop
      vertex 7.37897 2.42105 0
      vertex 7.2219 2.3817 4.9
      vertex 7.37897 2.42105 4.9
    endloop
  endfacet
  facet normal -0.242983 0.97003 0
    outer loop
      vertex 7.2219 2.3817 4.9
      vertex 7.37897 2.42105 0
      vertex 7.2219 2.3817 0
    endloop
  endfacet
  facet normal -0.427555 0.903989 0
    outer loop
      vertex 7.6778 2.54483 0
      vertex 7.53143 2.4756 4.9
      vertex 7.6778 2.54483 4.9
    endloop
  endfacet
  facet normal -0.427555 0.903989 0
    outer loop
      vertex 7.53143 2.4756 4.9
      vertex 7.6778 2.54483 0
      vertex 7.53143 2.4756 0
    endloop
  endfacet
  facet normal -0.740954 0.671556 0
    outer loop
      vertex 8.06673 2.83327 0
      vertex 8.17547 2.95325 4.9
      vertex 8.17547 2.95325 0
    endloop
  endfacet
  facet normal -0.740954 0.671556 0
    outer loop
      vertex 8.17547 2.95325 4.9
      vertex 8.06673 2.83327 0
      vertex 8.06673 2.83327 4.9
    endloop
  endfacet
  facet normal -0.595698 0.803208 0
    outer loop
      vertex 7.94675 2.72453 0
      vertex 7.81669 2.62807 4.9
      vertex 7.94675 2.72453 4.9
    endloop
  endfacet
  facet normal -0.595698 0.803208 0
    outer loop
      vertex 7.81669 2.62807 4.9
      vertex 7.94675 2.72453 0
      vertex 7.81669 2.62807 0
    endloop
  endfacet
  facet normal -0.857729 0.514102 0
    outer loop
      vertex 8.27192 3.08331 0
      vertex 8.35517 3.22219 4.9
      vertex 8.35517 3.22219 0
    endloop
  endfacet
  facet normal -0.857729 0.514102 0
    outer loop
      vertex 8.35517 3.22219 4.9
      vertex 8.27192 3.08331 0
      vertex 8.27192 3.08331 4.9
    endloop
  endfacet
  facet normal -0.941542 0.336896 0
    outer loop
      vertex 8.4244 3.36857 0
      vertex 8.47895 3.52103 4.9
      vertex 8.47895 3.52103 0
    endloop
  endfacet
  facet normal -0.941542 0.336896 0
    outer loop
      vertex 8.47895 3.52103 4.9
      vertex 8.4244 3.36857 0
      vertex 8.4244 3.36857 4.9
    endloop
  endfacet
  facet normal -0.989177 0.146729 0
    outer loop
      vertex 8.5183 3.6781 0
      vertex 8.54205 3.83827 4.9
      vertex 8.54205 3.83827 0
    endloop
  endfacet
  facet normal -0.989177 0.146729 0
    outer loop
      vertex 8.54205 3.83827 4.9
      vertex 8.5183 3.6781 0
      vertex 8.5183 3.6781 4.9
    endloop
  endfacet
  facet normal 0.514102 0.857729 -0
    outer loop
      vertex 6.1222 2.54483 0
      vertex 5.98331 2.62807 4.9
      vertex 6.1222 2.54483 4.9
    endloop
  endfacet
  facet normal 0.514102 0.857729 0
    outer loop
      vertex 5.98331 2.62807 4.9
      vertex 6.1222 2.54483 0
      vertex 5.98331 2.62807 0
    endloop
  endfacet
  facet normal 0.336889 0.941545 -0
    outer loop
      vertex 6.42103 2.42105 0
      vertex 6.26857 2.4756 4.9
      vertex 6.42103 2.42105 4.9
    endloop
  endfacet
  facet normal 0.336889 0.941545 0
    outer loop
      vertex 6.26857 2.4756 4.9
      vertex 6.42103 2.42105 0
      vertex 6.26857 2.4756 0
    endloop
  endfacet
  facet normal 0.146729 0.989177 -0
    outer loop
      vertex 6.73827 2.35794 0
      vertex 6.5781 2.3817 4.9
      vertex 6.73827 2.35794 4.9
    endloop
  endfacet
  facet normal 0.146729 0.989177 0
    outer loop
      vertex 6.5781 2.3817 4.9
      vertex 6.73827 2.35794 0
      vertex 6.5781 2.3817 0
    endloop
  endfacet
  facet normal -0.0490669 0.998795 0
    outer loop
      vertex 7.06173 2.35794 0
      vertex 6.9 2.35 4.9
      vertex 7.06173 2.35794 4.9
    endloop
  endfacet
  facet normal -0.0490669 0.998795 0
    outer loop
      vertex 6.9 2.35 4.9
      vertex 7.06173 2.35794 0
      vertex 6.9 2.35 0
    endloop
  endfacet
  facet normal 0.803204 0.595705 0
    outer loop
      vertex 5.62453 2.95325 4.9
      vertex 5.52807 3.08331 0
      vertex 5.52807 3.08331 4.9
    endloop
  endfacet
  facet normal 0.803204 0.595705 0
    outer loop
      vertex 5.52807 3.08331 0
      vertex 5.62453 2.95325 4.9
      vertex 5.62453 2.95325 0
    endloop
  endfacet
  facet normal 0.671559 0.740951 -0
    outer loop
      vertex 5.85325 2.72453 0
      vertex 5.73327 2.83327 4.9
      vertex 5.85325 2.72453 4.9
    endloop
  endfacet
  facet normal 0.671559 0.740951 0
    outer loop
      vertex 5.73327 2.83327 4.9
      vertex 5.85325 2.72453 0
      vertex 5.73327 2.83327 0
    endloop
  endfacet
  facet normal 0.90399 0.427553 0
    outer loop
      vertex 5.44483 3.22219 4.9
      vertex 5.3756 3.36857 0
      vertex 5.3756 3.36857 4.9
    endloop
  endfacet
  facet normal 0.90399 0.427553 0
    outer loop
      vertex 5.3756 3.36857 0
      vertex 5.44483 3.22219 4.9
      vertex 5.44483 3.22219 0
    endloop
  endfacet
  facet normal 0.970032 0.242978 0
    outer loop
      vertex 5.32105 3.52103 4.9
      vertex 5.2817 3.6781 0
      vertex 5.2817 3.6781 4.9
    endloop
  endfacet
  facet normal 0.970032 0.242978 0
    outer loop
      vertex 5.2817 3.6781 0
      vertex 5.32105 3.52103 4.9
      vertex 5.32105 3.52103 0
    endloop
  endfacet
  facet normal -0.595687 -0.803217 0
    outer loop
      vertex 7.81669 33.5719 0
      vertex 7.94675 33.4755 4.9
      vertex 7.81669 33.5719 4.9
    endloop
  endfacet
  facet normal -0.595687 -0.803217 -0
    outer loop
      vertex 7.94675 33.4755 4.9
      vertex 7.81669 33.5719 0
      vertex 7.94675 33.4755 0
    endloop
  endfacet
  facet normal 0.427546 -0.903994 0
    outer loop
      vertex 6.1222 33.6552 0
      vertex 6.26857 33.7244 4.9
      vertex 6.1222 33.6552 4.9
    endloop
  endfacet
  facet normal 0.427546 -0.903994 0
    outer loop
      vertex 6.26857 33.7244 4.9
      vertex 6.1222 33.6552 0
      vertex 6.26857 33.7244 0
    endloop
  endfacet
  facet normal 0.941545 -0.336889 0
    outer loop
      vertex 5.32105 32.679 4.9
      vertex 5.3756 32.8314 0
      vertex 5.3756 32.8314 4.9
    endloop
  endfacet
  facet normal 0.941545 -0.336889 0
    outer loop
      vertex 5.3756 32.8314 0
      vertex 5.32105 32.679 4.9
      vertex 5.32105 32.679 0
    endloop
  endfacet
  facet normal -0.90399 -0.427553 0
    outer loop
      vertex 8.4244 32.8314 0
      vertex 8.35517 32.9778 4.9
      vertex 8.35517 32.9778 0
    endloop
  endfacet
  facet normal -0.90399 -0.427553 0
    outer loop
      vertex 8.35517 32.9778 4.9
      vertex 8.4244 32.8314 0
      vertex 8.4244 32.8314 4.9
    endloop
  endfacet
  facet normal -0.857727 -0.514105 0
    outer loop
      vertex 8.35517 32.9778 0
      vertex 8.27192 33.1167 4.9
      vertex 8.27192 33.1167 0
    endloop
  endfacet
  facet normal -0.857727 -0.514105 0
    outer loop
      vertex 8.27192 33.1167 4.9
      vertex 8.35517 32.9778 0
      vertex 8.35517 32.9778 4.9
    endloop
  endfacet
  facet normal -0.336889 -0.941545 0
    outer loop
      vertex 7.37897 33.7789 0
      vertex 7.53143 33.7244 4.9
      vertex 7.37897 33.7789 4.9
    endloop
  endfacet
  facet normal -0.336889 -0.941545 -0
    outer loop
      vertex 7.53143 33.7244 4.9
      vertex 7.37897 33.7789 0
      vertex 7.53143 33.7244 0
    endloop
  endfacet
  facet normal 0.803206 -0.595702 0
    outer loop
      vertex 5.52807 33.1167 4.9
      vertex 5.62453 33.2467 0
      vertex 5.62453 33.2467 4.9
    endloop
  endfacet
  facet normal 0.803206 -0.595702 0
    outer loop
      vertex 5.62453 33.2467 0
      vertex 5.52807 33.1167 4.9
      vertex 5.52807 33.1167 0
    endloop
  endfacet
  facet normal 0.242985 -0.97003 0
    outer loop
      vertex 6.42103 33.7789 0
      vertex 6.5781 33.8183 4.9
      vertex 6.42103 33.7789 4.9
    endloop
  endfacet
  facet normal 0.242985 -0.97003 0
    outer loop
      vertex 6.5781 33.8183 4.9
      vertex 6.42103 33.7789 0
      vertex 6.5781 33.8183 0
    endloop
  endfacet
  facet normal -0.998796 0.0490658 0
    outer loop
      vertex 8.54205 32.0383 0
      vertex 8.55 32.2 4.9
      vertex 8.55 32.2 0
    endloop
  endfacet
  facet normal -0.998796 0.0490658 0
    outer loop
      vertex 8.55 32.2 4.9
      vertex 8.54205 32.0383 0
      vertex 8.54205 32.0383 4.9
    endloop
  endfacet
  facet normal -0.803208 0.595698 0
    outer loop
      vertex 8.17547 31.1533 0
      vertex 8.27192 31.2833 4.9
      vertex 8.27192 31.2833 0
    endloop
  endfacet
  facet normal -0.803208 0.595698 0
    outer loop
      vertex 8.27192 31.2833 4.9
      vertex 8.17547 31.1533 0
      vertex 8.17547 31.1533 4.9
    endloop
  endfacet
  facet normal 0.0490728 0.998795 -0
    outer loop
      vertex 6.9 30.55 0
      vertex 6.73827 30.5579 4.9
      vertex 6.9 30.55 4.9
    endloop
  endfacet
  facet normal 0.0490728 0.998795 0
    outer loop
      vertex 6.73827 30.5579 4.9
      vertex 6.9 30.55 0
      vertex 6.73827 30.5579 0
    endloop
  endfacet
  facet normal 0.595694 0.803211 -0
    outer loop
      vertex 5.98331 30.8281 0
      vertex 5.85325 30.9245 4.9
      vertex 5.98331 30.8281 4.9
    endloop
  endfacet
  facet normal 0.595694 0.803211 0
    outer loop
      vertex 5.85325 30.9245 4.9
      vertex 5.98331 30.8281 0
      vertex 5.85325 30.9245 0
    endloop
  endfacet
  facet normal 0.90399 0.427553 0
    outer loop
      vertex 5.44483 31.4222 4.9
      vertex 5.3756 31.5686 0
      vertex 5.3756 31.5686 4.9
    endloop
  endfacet
  facet normal 0.90399 0.427553 0
    outer loop
      vertex 5.3756 31.5686 0
      vertex 5.44483 31.4222 4.9
      vertex 5.44483 31.4222 0
    endloop
  endfacet
  facet normal -0.970033 -0.242974 0
    outer loop
      vertex 8.5183 32.5219 0
      vertex 8.47895 32.679 4.9
      vertex 8.47895 32.679 0
    endloop
  endfacet
  facet normal -0.970033 -0.242974 0
    outer loop
      vertex 8.47895 32.679 4.9
      vertex 8.5183 32.5219 0
      vertex 8.5183 32.5219 4.9
    endloop
  endfacet
  facet normal -0.941543 -0.336894 0
    outer loop
      vertex 8.47895 32.679 0
      vertex 8.4244 32.8314 4.9
      vertex 8.4244 32.8314 0
    endloop
  endfacet
  facet normal -0.941543 -0.336894 0
    outer loop
      vertex 8.4244 32.8314 4.9
      vertex 8.47895 32.679 0
      vertex 8.47895 32.679 4.9
    endloop
  endfacet
  facet normal -0.740948 -0.671562 0
    outer loop
      vertex 8.17547 33.2467 0
      vertex 8.06673 33.3667 4.9
      vertex 8.06673 33.3667 0
    endloop
  endfacet
  facet normal -0.740948 -0.671562 0
    outer loop
      vertex 8.06673 33.3667 4.9
      vertex 8.17547 33.2467 0
      vertex 8.17547 33.2467 4.9
    endloop
  endfacet
  facet normal -0.803208 -0.595698 0
    outer loop
      vertex 8.27192 33.1167 0
      vertex 8.17547 33.2467 4.9
      vertex 8.17547 33.2467 0
    endloop
  endfacet
  facet normal -0.803208 -0.595698 0
    outer loop
      vertex 8.17547 33.2467 4.9
      vertex 8.27192 33.1167 0
      vertex 8.27192 33.1167 4.9
    endloop
  endfacet
  facet normal -0.671562 -0.740948 0
    outer loop
      vertex 7.94675 33.4755 0
      vertex 8.06673 33.3667 4.9
      vertex 7.94675 33.4755 4.9
    endloop
  endfacet
  facet normal -0.671562 -0.740948 -0
    outer loop
      vertex 8.06673 33.3667 4.9
      vertex 7.94675 33.4755 0
      vertex 8.06673 33.3667 0
    endloop
  endfacet
  facet normal -0.514115 -0.857721 0
    outer loop
      vertex 7.6778 33.6552 0
      vertex 7.81669 33.5719 4.9
      vertex 7.6778 33.6552 4.9
    endloop
  endfacet
  facet normal -0.514115 -0.857721 -0
    outer loop
      vertex 7.81669 33.5719 4.9
      vertex 7.6778 33.6552 0
      vertex 7.81669 33.5719 0
    endloop
  endfacet
  facet normal 0.0490493 -0.998796 0
    outer loop
      vertex 6.73827 33.8421 0
      vertex 6.9 33.85 4.9
      vertex 6.73827 33.8421 4.9
    endloop
  endfacet
  facet normal 0.0490493 -0.998796 0
    outer loop
      vertex 6.9 33.85 4.9
      vertex 6.73827 33.8421 0
      vertex 6.9 33.85 0
    endloop
  endfacet
  facet normal -0.427546 -0.903994 0
    outer loop
      vertex 7.53143 33.7244 0
      vertex 7.6778 33.6552 4.9
      vertex 7.53143 33.7244 4.9
    endloop
  endfacet
  facet normal -0.427546 -0.903994 -0
    outer loop
      vertex 7.6778 33.6552 4.9
      vertex 7.53143 33.7244 0
      vertex 7.6778 33.6552 0
    endloop
  endfacet
  facet normal -0.242983 -0.97003 0
    outer loop
      vertex 7.2219 33.8183 0
      vertex 7.37897 33.7789 4.9
      vertex 7.2219 33.8183 4.9
    endloop
  endfacet
  facet normal -0.242983 -0.97003 -0
    outer loop
      vertex 7.37897 33.7789 4.9
      vertex 7.2219 33.8183 0
      vertex 7.37897 33.7789 0
    endloop
  endfacet
  facet normal -0.146747 -0.989174 0
    outer loop
      vertex 7.06173 33.8421 0
      vertex 7.2219 33.8183 4.9
      vertex 7.06173 33.8421 4.9
    endloop
  endfacet
  facet normal -0.146747 -0.989174 -0
    outer loop
      vertex 7.2219 33.8183 4.9
      vertex 7.06173 33.8421 0
      vertex 7.2219 33.8183 0
    endloop
  endfacet
  facet normal 0.998796 0.0490658 0
    outer loop
      vertex 5.25795 32.0383 4.9
      vertex 5.25 32.2 0
      vertex 5.25 32.2 4.9
    endloop
  endfacet
  facet normal 0.998796 0.0490658 0
    outer loop
      vertex 5.25 32.2 0
      vertex 5.25795 32.0383 4.9
      vertex 5.25795 32.0383 0
    endloop
  endfacet
  facet normal 0.970033 -0.242974 0
    outer loop
      vertex 5.2817 32.5219 4.9
      vertex 5.32105 32.679 0
      vertex 5.32105 32.679 4.9
    endloop
  endfacet
  facet normal 0.970033 -0.242974 0
    outer loop
      vertex 5.32105 32.679 0
      vertex 5.2817 32.5219 4.9
      vertex 5.2817 32.5219 0
    endloop
  endfacet
  facet normal 0.989176 -0.146732 0
    outer loop
      vertex 5.25795 32.3617 4.9
      vertex 5.2817 32.5219 0
      vertex 5.2817 32.5219 4.9
    endloop
  endfacet
  facet normal 0.989176 -0.146732 0
    outer loop
      vertex 5.2817 32.5219 0
      vertex 5.25795 32.3617 4.9
      vertex 5.25795 32.3617 0
    endloop
  endfacet
  facet normal 0.90399 -0.427553 0
    outer loop
      vertex 5.3756 32.8314 4.9
      vertex 5.44483 32.9778 0
      vertex 5.44483 32.9778 4.9
    endloop
  endfacet
  facet normal 0.90399 -0.427553 0
    outer loop
      vertex 5.44483 32.9778 0
      vertex 5.3756 32.8314 4.9
      vertex 5.3756 32.8314 0
    endloop
  endfacet
  facet normal 0.857727 -0.514105 0
    outer loop
      vertex 5.44483 32.9778 4.9
      vertex 5.52807 33.1167 0
      vertex 5.52807 33.1167 4.9
    endloop
  endfacet
  facet normal 0.857727 -0.514105 0
    outer loop
      vertex 5.52807 33.1167 0
      vertex 5.44483 32.9778 4.9
      vertex 5.44483 32.9778 0
    endloop
  endfacet
  facet normal 0.336889 -0.941545 0
    outer loop
      vertex 6.26857 33.7244 0
      vertex 6.42103 33.7789 4.9
      vertex 6.26857 33.7244 4.9
    endloop
  endfacet
  facet normal 0.336889 -0.941545 0
    outer loop
      vertex 6.42103 33.7789 4.9
      vertex 6.26857 33.7244 0
      vertex 6.42103 33.7789 0
    endloop
  endfacet
  facet normal 0.146746 -0.989174 0
    outer loop
      vertex 6.5781 33.8183 0
      vertex 6.73827 33.8421 4.9
      vertex 6.5781 33.8183 4.9
    endloop
  endfacet
  facet normal 0.146746 -0.989174 0
    outer loop
      vertex 6.73827 33.8421 4.9
      vertex 6.5781 33.8183 0
      vertex 6.73827 33.8421 0
    endloop
  endfacet
  facet normal 0.595687 -0.803217 0
    outer loop
      vertex 5.85325 33.4755 0
      vertex 5.98331 33.5719 4.9
      vertex 5.85325 33.4755 4.9
    endloop
  endfacet
  facet normal 0.595687 -0.803217 0
    outer loop
      vertex 5.98331 33.5719 4.9
      vertex 5.85325 33.4755 0
      vertex 5.98331 33.5719 0
    endloop
  endfacet
  facet normal 0.671562 -0.740948 0
    outer loop
      vertex 5.73327 33.3667 0
      vertex 5.85325 33.4755 4.9
      vertex 5.73327 33.3667 4.9
    endloop
  endfacet
  facet normal 0.671562 -0.740948 0
    outer loop
      vertex 5.85325 33.4755 4.9
      vertex 5.73327 33.3667 0
      vertex 5.85325 33.4755 0
    endloop
  endfacet
  facet normal 0.514115 -0.857721 0
    outer loop
      vertex 5.98331 33.5719 0
      vertex 6.1222 33.6552 4.9
      vertex 5.98331 33.5719 4.9
    endloop
  endfacet
  facet normal 0.514115 -0.857721 0
    outer loop
      vertex 6.1222 33.6552 4.9
      vertex 5.98331 33.5719 0
      vertex 6.1222 33.6552 0
    endloop
  endfacet
  facet normal 0.740948 -0.671562 0
    outer loop
      vertex 5.62453 33.2467 4.9
      vertex 5.73327 33.3667 0
      vertex 5.73327 33.3667 4.9
    endloop
  endfacet
  facet normal 0.740948 -0.671562 0
    outer loop
      vertex 5.73327 33.3667 0
      vertex 5.62453 33.2467 4.9
      vertex 5.62453 33.2467 0
    endloop
  endfacet
  facet normal -0.998795 -0.0490669 0
    outer loop
      vertex 8.55 32.2 0
      vertex 8.54205 32.3617 4.9
      vertex 8.54205 32.3617 0
    endloop
  endfacet
  facet normal -0.998795 -0.0490669 0
    outer loop
      vertex 8.54205 32.3617 4.9
      vertex 8.55 32.2 0
      vertex 8.55 32.2 4.9
    endloop
  endfacet
  facet normal -0.146724 0.989178 0
    outer loop
      vertex 7.2219 30.5817 0
      vertex 7.06173 30.5579 4.9
      vertex 7.2219 30.5817 4.9
    endloop
  endfacet
  facet normal -0.146724 0.989178 0
    outer loop
      vertex 7.06173 30.5579 4.9
      vertex 7.2219 30.5817 0
      vertex 7.06173 30.5579 0
    endloop
  endfacet
  facet normal -0.970032 0.242979 0
    outer loop
      vertex 8.47895 31.721 0
      vertex 8.5183 31.8781 4.9
      vertex 8.5183 31.8781 0
    endloop
  endfacet
  facet normal -0.970032 0.242979 0
    outer loop
      vertex 8.5183 31.8781 4.9
      vertex 8.47895 31.721 0
      vertex 8.47895 31.721 4.9
    endloop
  endfacet
  facet normal -0.242983 0.97003 0
    outer loop
      vertex 7.37897 30.621 0
      vertex 7.2219 30.5817 4.9
      vertex 7.37897 30.621 4.9
    endloop
  endfacet
  facet normal -0.242983 0.97003 0
    outer loop
      vertex 7.2219 30.5817 4.9
      vertex 7.37897 30.621 0
      vertex 7.2219 30.5817 0
    endloop
  endfacet
  facet normal -0.336889 0.941545 0
    outer loop
      vertex 7.53143 30.6756 0
      vertex 7.37897 30.621 4.9
      vertex 7.53143 30.6756 4.9
    endloop
  endfacet
  facet normal -0.336889 0.941545 0
    outer loop
      vertex 7.37897 30.621 4.9
      vertex 7.53143 30.6756 0
      vertex 7.37897 30.621 0
    endloop
  endfacet
  facet normal -0.671562 0.740948 0
    outer loop
      vertex 8.06673 31.0333 0
      vertex 7.94675 30.9245 4.9
      vertex 8.06673 31.0333 4.9
    endloop
  endfacet
  facet normal -0.671562 0.740948 0
    outer loop
      vertex 7.94675 30.9245 4.9
      vertex 8.06673 31.0333 0
      vertex 7.94675 30.9245 0
    endloop
  endfacet
  facet normal -0.514107 0.857726 0
    outer loop
      vertex 7.81669 30.8281 0
      vertex 7.6778 30.7448 4.9
      vertex 7.81669 30.8281 4.9
    endloop
  endfacet
  facet normal -0.514107 0.857726 0
    outer loop
      vertex 7.6778 30.7448 4.9
      vertex 7.81669 30.8281 0
      vertex 7.6778 30.7448 0
    endloop
  endfacet
  facet normal -0.90399 0.427553 0
    outer loop
      vertex 8.35517 31.4222 0
      vertex 8.4244 31.5686 4.9
      vertex 8.4244 31.5686 0
    endloop
  endfacet
  facet normal -0.90399 0.427553 0
    outer loop
      vertex 8.4244 31.5686 4.9
      vertex 8.35517 31.4222 0
      vertex 8.35517 31.4222 4.9
    endloop
  endfacet
  facet normal -0.0490728 0.998795 0
    outer loop
      vertex 7.06173 30.5579 0
      vertex 6.9 30.55 4.9
      vertex 7.06173 30.5579 4.9
    endloop
  endfacet
  facet normal -0.0490728 0.998795 0
    outer loop
      vertex 6.9 30.55 4.9
      vertex 7.06173 30.5579 0
      vertex 6.9 30.55 0
    endloop
  endfacet
  facet normal 0.242985 0.97003 -0
    outer loop
      vertex 6.5781 30.5817 0
      vertex 6.42103 30.621 4.9
      vertex 6.5781 30.5817 4.9
    endloop
  endfacet
  facet normal 0.242985 0.97003 0
    outer loop
      vertex 6.42103 30.621 4.9
      vertex 6.5781 30.5817 0
      vertex 6.42103 30.621 0
    endloop
  endfacet
  facet normal 0.427555 0.903989 -0
    outer loop
      vertex 6.26857 30.6756 0
      vertex 6.1222 30.7448 4.9
      vertex 6.26857 30.6756 4.9
    endloop
  endfacet
  facet normal 0.427555 0.903989 0
    outer loop
      vertex 6.1222 30.7448 4.9
      vertex 6.26857 30.6756 0
      vertex 6.1222 30.7448 0
    endloop
  endfacet
  facet normal 0.989176 0.146732 0
    outer loop
      vertex 5.2817 31.8781 4.9
      vertex 5.25795 32.0383 0
      vertex 5.25795 32.0383 4.9
    endloop
  endfacet
  facet normal 0.989176 0.146732 0
    outer loop
      vertex 5.25795 32.0383 0
      vertex 5.2817 31.8781 4.9
      vertex 5.2817 31.8781 0
    endloop
  endfacet
  facet normal 0.941545 0.336889 0
    outer loop
      vertex 5.3756 31.5686 4.9
      vertex 5.32105 31.721 0
      vertex 5.32105 31.721 4.9
    endloop
  endfacet
  facet normal 0.941545 0.336889 0
    outer loop
      vertex 5.32105 31.721 0
      vertex 5.3756 31.5686 4.9
      vertex 5.3756 31.5686 0
    endloop
  endfacet
  facet normal 0.740954 0.671556 0
    outer loop
      vertex 5.73327 31.0333 4.9
      vertex 5.62453 31.1533 0
      vertex 5.62453 31.1533 4.9
    endloop
  endfacet
  facet normal 0.740954 0.671556 0
    outer loop
      vertex 5.62453 31.1533 0
      vertex 5.73327 31.0333 4.9
      vertex 5.73327 31.0333 0
    endloop
  endfacet
  facet normal 0.857727 0.514105 0
    outer loop
      vertex 5.52807 31.2833 4.9
      vertex 5.44483 31.4222 0
      vertex 5.44483 31.4222 4.9
    endloop
  endfacet
  facet normal 0.857727 0.514105 0
    outer loop
      vertex 5.44483 31.4222 0
      vertex 5.52807 31.2833 4.9
      vertex 5.52807 31.2833 0
    endloop
  endfacet
  facet normal 0.671562 0.740948 -0
    outer loop
      vertex 5.85325 30.9245 0
      vertex 5.73327 31.0333 4.9
      vertex 5.85325 30.9245 4.9
    endloop
  endfacet
  facet normal 0.671562 0.740948 0
    outer loop
      vertex 5.73327 31.0333 4.9
      vertex 5.85325 30.9245 0
      vertex 5.73327 31.0333 0
    endloop
  endfacet
  facet normal -0.989176 -0.146732 0
    outer loop
      vertex 8.54205 32.3617 0
      vertex 8.5183 32.5219 4.9
      vertex 8.5183 32.5219 0
    endloop
  endfacet
  facet normal -0.989176 -0.146732 0
    outer loop
      vertex 8.5183 32.5219 4.9
      vertex 8.54205 32.3617 0
      vertex 8.54205 32.3617 4.9
    endloop
  endfacet
  facet normal -0.0490493 -0.998796 0
    outer loop
      vertex 6.9 33.85 0
      vertex 7.06173 33.8421 4.9
      vertex 6.9 33.85 4.9
    endloop
  endfacet
  facet normal -0.0490493 -0.998796 -0
    outer loop
      vertex 7.06173 33.8421 4.9
      vertex 6.9 33.85 0
      vertex 7.06173 33.8421 0
    endloop
  endfacet
  facet normal 0.998795 -0.0490669 0
    outer loop
      vertex 5.25 32.2 4.9
      vertex 5.25795 32.3617 0
      vertex 5.25795 32.3617 4.9
    endloop
  endfacet
  facet normal 0.998795 -0.0490669 0
    outer loop
      vertex 5.25795 32.3617 0
      vertex 5.25 32.2 4.9
      vertex 5.25 32.2 0
    endloop
  endfacet
  facet normal -0.989176 0.146732 0
    outer loop
      vertex 8.5183 31.8781 0
      vertex 8.54205 32.0383 4.9
      vertex 8.54205 32.0383 0
    endloop
  endfacet
  facet normal -0.989176 0.146732 0
    outer loop
      vertex 8.54205 32.0383 4.9
      vertex 8.5183 31.8781 0
      vertex 8.5183 31.8781 4.9
    endloop
  endfacet
  facet normal -0.427555 0.903989 0
    outer loop
      vertex 7.6778 30.7448 0
      vertex 7.53143 30.6756 4.9
      vertex 7.6778 30.7448 4.9
    endloop
  endfacet
  facet normal -0.427555 0.903989 0
    outer loop
      vertex 7.53143 30.6756 4.9
      vertex 7.6778 30.7448 0
      vertex 7.53143 30.6756 0
    endloop
  endfacet
  facet normal -0.740954 0.671556 0
    outer loop
      vertex 8.06673 31.0333 0
      vertex 8.17547 31.1533 4.9
      vertex 8.17547 31.1533 0
    endloop
  endfacet
  facet normal -0.740954 0.671556 0
    outer loop
      vertex 8.17547 31.1533 4.9
      vertex 8.06673 31.0333 0
      vertex 8.06673 31.0333 4.9
    endloop
  endfacet
  facet normal -0.595694 0.803211 0
    outer loop
      vertex 7.94675 30.9245 0
      vertex 7.81669 30.8281 4.9
      vertex 7.94675 30.9245 4.9
    endloop
  endfacet
  facet normal -0.595694 0.803211 0
    outer loop
      vertex 7.81669 30.8281 4.9
      vertex 7.94675 30.9245 0
      vertex 7.81669 30.8281 0
    endloop
  endfacet
  facet normal -0.941543 0.336894 0
    outer loop
      vertex 8.4244 31.5686 0
      vertex 8.47895 31.721 4.9
      vertex 8.47895 31.721 0
    endloop
  endfacet
  facet normal -0.941543 0.336894 0
    outer loop
      vertex 8.47895 31.721 4.9
      vertex 8.4244 31.5686 0
      vertex 8.4244 31.5686 4.9
    endloop
  endfacet
  facet normal -0.857727 0.514105 0
    outer loop
      vertex 8.27192 31.2833 0
      vertex 8.35517 31.4222 4.9
      vertex 8.35517 31.4222 0
    endloop
  endfacet
  facet normal -0.857727 0.514105 0
    outer loop
      vertex 8.35517 31.4222 4.9
      vertex 8.27192 31.2833 0
      vertex 8.27192 31.2833 4.9
    endloop
  endfacet
  facet normal 0.146723 0.989178 -0
    outer loop
      vertex 6.73827 30.5579 0
      vertex 6.5781 30.5817 4.9
      vertex 6.73827 30.5579 4.9
    endloop
  endfacet
  facet normal 0.146723 0.989178 0
    outer loop
      vertex 6.5781 30.5817 4.9
      vertex 6.73827 30.5579 0
      vertex 6.5781 30.5817 0
    endloop
  endfacet
  facet normal 0.336889 0.941545 -0
    outer loop
      vertex 6.42103 30.621 0
      vertex 6.26857 30.6756 4.9
      vertex 6.42103 30.621 4.9
    endloop
  endfacet
  facet normal 0.336889 0.941545 0
    outer loop
      vertex 6.26857 30.6756 4.9
      vertex 6.42103 30.621 0
      vertex 6.26857 30.6756 0
    endloop
  endfacet
  facet normal 0.514107 0.857726 -0
    outer loop
      vertex 6.1222 30.7448 0
      vertex 5.98331 30.8281 4.9
      vertex 6.1222 30.7448 4.9
    endloop
  endfacet
  facet normal 0.514107 0.857726 0
    outer loop
      vertex 5.98331 30.8281 4.9
      vertex 6.1222 30.7448 0
      vertex 5.98331 30.8281 0
    endloop
  endfacet
  facet normal 0.970032 0.242979 0
    outer loop
      vertex 5.32105 31.721 4.9
      vertex 5.2817 31.8781 0
      vertex 5.2817 31.8781 4.9
    endloop
  endfacet
  facet normal 0.970032 0.242979 0
    outer loop
      vertex 5.2817 31.8781 0
      vertex 5.32105 31.721 4.9
      vertex 5.32105 31.721 0
    endloop
  endfacet
  facet normal 0.803206 0.595702 0
    outer loop
      vertex 5.62453 31.1533 4.9
      vertex 5.52807 31.2833 0
      vertex 5.52807 31.2833 4.9
    endloop
  endfacet
  facet normal 0.803206 0.595702 0
    outer loop
      vertex 5.52807 31.2833 0
      vertex 5.62453 31.1533 4.9
      vertex 5.62453 31.1533 0
    endloop
  endfacet
endsolid OpenSCAD_Model
