solid OpenSCAD_Model
  facet normal -1 0 0
    outer loop
      vertex 0 36.2 0
      vertex 0 28.2 2.8
      vertex 0 36.2 4.9
    endloop
  endfacet
  facet normal -1 0 0
    outer loop
      vertex 0 36.2 0
      vertex 0 8 2.8
      vertex 0 28.2 2.8
    endloop
  endfacet
  facet normal -1 0 0
    outer loop
      vertex 0 0 0
      vertex 0 8 2.8
      vertex 0 36.2 0
    endloop
  endfacet
  facet normal -1 0 0
    outer loop
      vertex 0 0 4.9
      vertex 0 8 2.8
      vertex 0 0 0
    endloop
  endfacet
  facet normal -1 0 0
    outer loop
      vertex 0 8 2.8
      vertex 0 0 4.9
      vertex 0 8 4.9
    endloop
  endfacet
  facet normal -1 -0 0
    outer loop
      vertex 0 36.2 4.9
      vertex 0 28.2 2.8
      vertex 0 28.2 4.9
    endloop
  endfacet
  facet normal 0 0 1
    outer loop
      vertex 8.44254 3.84807 4.9
      vertex 13.8 8 4.9
      vertex 8.45 4 4.9
    endloop
  endfacet
  facet normal 0 0 1
    outer loop
      vertex 13.8 8 4.9
      vertex 8.44254 4.15193 4.9
      vertex 8.45 4 4.9
    endloop
  endfacet
  facet normal 0 0 1
    outer loop
      vertex 13.8 8 4.9
      vertex 8.42022 4.30239 4.9
      vertex 8.44254 4.15193 4.9
    endloop
  endfacet
  facet normal 0 0 1
    outer loop
      vertex 13.8 8 4.9
      vertex 8.38326 4.44994 4.9
      vertex 8.42022 4.30239 4.9
    endloop
  endfacet
  facet normal 0 0 1
    outer loop
      vertex 13.8 8 4.9
      vertex 8.33201 4.59316 4.9
      vertex 8.38326 4.44994 4.9
    endloop
  endfacet
  facet normal 0 0 1
    outer loop
      vertex 13.8 8 4.9
      vertex 8.26698 4.73066 4.9
      vertex 8.33201 4.59316 4.9
    endloop
  endfacet
  facet normal 0 0 1
    outer loop
      vertex 13.8 8 4.9
      vertex 8.18878 4.86113 4.9
      vertex 8.26698 4.73066 4.9
    endloop
  endfacet
  facet normal 0 0 1
    outer loop
      vertex 13.8 8 4.9
      vertex 8.09817 4.98331 4.9
      vertex 8.18878 4.86113 4.9
    endloop
  endfacet
  facet normal 0 0 1
    outer loop
      vertex 13.8 8 4.9
      vertex 7.99601 5.09601 4.9
      vertex 8.09817 4.98331 4.9
    endloop
  endfacet
  facet normal 0 0 1
    outer loop
      vertex 13.8 8 4.9
      vertex 7.88331 5.19817 4.9
      vertex 7.99601 5.09601 4.9
    endloop
  endfacet
  facet normal 0 0 1
    outer loop
      vertex 13.8 8 4.9
      vertex 7.76113 5.28878 4.9
      vertex 7.88331 5.19817 4.9
    endloop
  endfacet
  facet normal 0 0 1
    outer loop
      vertex 13.8 8 4.9
      vertex 7.63066 5.36698 4.9
      vertex 7.76113 5.28878 4.9
    endloop
  endfacet
  facet normal 0 0 1
    outer loop
      vertex 13.8 8 4.9
      vertex 7.49316 5.43201 4.9
      vertex 7.63066 5.36698 4.9
    endloop
  endfacet
  facet normal 0 0 1
    outer loop
      vertex 13.8 8 4.9
      vertex 7.34994 5.48326 4.9
      vertex 7.49316 5.43201 4.9
    endloop
  endfacet
  facet normal 0 0 1
    outer loop
      vertex 13.8 8 4.9
      vertex 7.20239 5.52022 4.9
      vertex 7.34994 5.48326 4.9
    endloop
  endfacet
  facet normal 0 0 1
    outer loop
      vertex 13.8 8 4.9
      vertex 7.05193 5.54254 4.9
      vertex 7.20239 5.52022 4.9
    endloop
  endfacet
  facet normal 0 0 1
    outer loop
      vertex 13.8 8 4.9
      vertex 6.9 5.55 4.9
      vertex 7.05193 5.54254 4.9
    endloop
  endfacet
  facet normal -0 0 1
    outer loop
      vertex 0 8 4.9
      vertex 6.9 5.55 4.9
      vertex 13.8 8 4.9
    endloop
  endfacet
  facet normal 0 0 1
    outer loop
      vertex 6.9 5.55 4.9
      vertex 0 8 4.9
      vertex 6.74807 5.54254 4.9
    endloop
  endfacet
  facet normal 0 0 1
    outer loop
      vertex 6.74807 5.54254 4.9
      vertex 0 8 4.9
      vertex 6.59761 5.52022 4.9
    endloop
  endfacet
  facet normal 0 0 1
    outer loop
      vertex 5.35746 4.15193 4.9
      vertex 0 8 4.9
      vertex 5.35 4 4.9
    endloop
  endfacet
  facet normal 0 0 1
    outer loop
      vertex 5.37978 4.30239 4.9
      vertex 0 8 4.9
      vertex 5.35746 4.15193 4.9
    endloop
  endfacet
  facet normal 0 0 1
    outer loop
      vertex 5.41674 4.44994 4.9
      vertex 0 8 4.9
      vertex 5.37978 4.30239 4.9
    endloop
  endfacet
  facet normal 0 0 1
    outer loop
      vertex 5.46799 4.59316 4.9
      vertex 0 8 4.9
      vertex 5.41674 4.44994 4.9
    endloop
  endfacet
  facet normal 0 0 1
    outer loop
      vertex 5.53302 4.73066 4.9
      vertex 0 8 4.9
      vertex 5.46799 4.59316 4.9
    endloop
  endfacet
  facet normal 0 0 1
    outer loop
      vertex 5.61122 4.86113 4.9
      vertex 0 8 4.9
      vertex 5.53302 4.73066 4.9
    endloop
  endfacet
  facet normal 0 0 1
    outer loop
      vertex 5.70183 4.98331 4.9
      vertex 0 8 4.9
      vertex 5.61122 4.86113 4.9
    endloop
  endfacet
  facet normal 0 0 1
    outer loop
      vertex 5.80398 5.09601 4.9
      vertex 0 8 4.9
      vertex 5.70183 4.98331 4.9
    endloop
  endfacet
  facet normal 0 0 1
    outer loop
      vertex 5.91669 5.19817 4.9
      vertex 0 8 4.9
      vertex 5.80398 5.09601 4.9
    endloop
  endfacet
  facet normal 0 0 1
    outer loop
      vertex 6.03887 5.28878 4.9
      vertex 0 8 4.9
      vertex 5.91669 5.19817 4.9
    endloop
  endfacet
  facet normal 0 0 1
    outer loop
      vertex 6.16933 5.36698 4.9
      vertex 0 8 4.9
      vertex 6.03887 5.28878 4.9
    endloop
  endfacet
  facet normal 0 0 1
    outer loop
      vertex 6.30684 5.43201 4.9
      vertex 0 8 4.9
      vertex 6.16933 5.36698 4.9
    endloop
  endfacet
  facet normal 0 0 1
    outer loop
      vertex 6.45006 5.48326 4.9
      vertex 0 8 4.9
      vertex 6.30684 5.43201 4.9
    endloop
  endfacet
  facet normal 0 0 1
    outer loop
      vertex 6.59761 5.52022 4.9
      vertex 0 8 4.9
      vertex 6.45006 5.48326 4.9
    endloop
  endfacet
  facet normal 0 0 1
    outer loop
      vertex 13.8 8 4.9
      vertex 8.44254 3.84807 4.9
      vertex 9.8 0 4.9
    endloop
  endfacet
  facet normal -0 0 1
    outer loop
      vertex 8.42022 3.69761 4.9
      vertex 9.8 0 4.9
      vertex 8.44254 3.84807 4.9
    endloop
  endfacet
  facet normal -0 0 1
    outer loop
      vertex 8.38326 3.55006 4.9
      vertex 9.8 0 4.9
      vertex 8.42022 3.69761 4.9
    endloop
  endfacet
  facet normal -0 0 1
    outer loop
      vertex 8.33201 3.40684 4.9
      vertex 9.8 0 4.9
      vertex 8.38326 3.55006 4.9
    endloop
  endfacet
  facet normal -0 0 1
    outer loop
      vertex 8.26698 3.26933 4.9
      vertex 9.8 0 4.9
      vertex 8.33201 3.40684 4.9
    endloop
  endfacet
  facet normal -0 0 1
    outer loop
      vertex 8.18878 3.13887 4.9
      vertex 9.8 0 4.9
      vertex 8.26698 3.26933 4.9
    endloop
  endfacet
  facet normal -0 0 1
    outer loop
      vertex 8.09817 3.01669 4.9
      vertex 9.8 0 4.9
      vertex 8.18878 3.13887 4.9
    endloop
  endfacet
  facet normal -0 0 1
    outer loop
      vertex 7.99601 2.90398 4.9
      vertex 9.8 0 4.9
      vertex 8.09817 3.01669 4.9
    endloop
  endfacet
  facet normal -0 0 1
    outer loop
      vertex 7.88331 2.80183 4.9
      vertex 9.8 0 4.9
      vertex 7.99601 2.90398 4.9
    endloop
  endfacet
  facet normal -0 0 1
    outer loop
      vertex 7.76113 2.71122 4.9
      vertex 9.8 0 4.9
      vertex 7.88331 2.80183 4.9
    endloop
  endfacet
  facet normal -0 0 1
    outer loop
      vertex 7.63066 2.63302 4.9
      vertex 9.8 0 4.9
      vertex 7.76113 2.71122 4.9
    endloop
  endfacet
  facet normal -0 0 1
    outer loop
      vertex 7.49316 2.56799 4.9
      vertex 9.8 0 4.9
      vertex 7.63066 2.63302 4.9
    endloop
  endfacet
  facet normal -0 0 1
    outer loop
      vertex 7.34994 2.51674 4.9
      vertex 9.8 0 4.9
      vertex 7.49316 2.56799 4.9
    endloop
  endfacet
  facet normal -0 0 1
    outer loop
      vertex 7.20239 2.47978 4.9
      vertex 9.8 0 4.9
      vertex 7.34994 2.51674 4.9
    endloop
  endfacet
  facet normal -0 0 1
    outer loop
      vertex 7.05193 2.45746 4.9
      vertex 9.8 0 4.9
      vertex 7.20239 2.47978 4.9
    endloop
  endfacet
  facet normal -0 0 1
    outer loop
      vertex 6.9 2.45 4.9
      vertex 9.8 0 4.9
      vertex 7.05193 2.45746 4.9
    endloop
  endfacet
  facet normal 0 0 1
    outer loop
      vertex 6.74807 2.45746 4.9
      vertex 9.8 0 4.9
      vertex 6.9 2.45 4.9
    endloop
  endfacet
  facet normal 0 0 1
    outer loop
      vertex 6.59761 2.47978 4.9
      vertex 9.8 0 4.9
      vertex 6.74807 2.45746 4.9
    endloop
  endfacet
  facet normal 0 0 1
    outer loop
      vertex 6.45006 2.51674 4.9
      vertex 9.8 0 4.9
      vertex 6.59761 2.47978 4.9
    endloop
  endfacet
  facet normal 0 0 1
    outer loop
      vertex 0 0 4.9
      vertex 6.45006 2.51674 4.9
      vertex 6.30684 2.56799 4.9
    endloop
  endfacet
  facet normal 0 0 1
    outer loop
      vertex 0 0 4.9
      vertex 6.30684 2.56799 4.9
      vertex 6.16933 2.63302 4.9
    endloop
  endfacet
  facet normal 0 0 1
    outer loop
      vertex 0 0 4.9
      vertex 6.16933 2.63302 4.9
      vertex 6.03887 2.71122 4.9
    endloop
  endfacet
  facet normal 0 0 1
    outer loop
      vertex 0 0 4.9
      vertex 5.35 4 4.9
      vertex 0 8 4.9
    endloop
  endfacet
  facet normal 0 0 1
    outer loop
      vertex 5.35 4 4.9
      vertex 0 0 4.9
      vertex 5.35746 3.84807 4.9
    endloop
  endfacet
  facet normal 0 0 1
    outer loop
      vertex 5.35746 3.84807 4.9
      vertex 0 0 4.9
      vertex 5.37978 3.69761 4.9
    endloop
  endfacet
  facet normal 0 0 1
    outer loop
      vertex 5.37978 3.69761 4.9
      vertex 0 0 4.9
      vertex 5.41674 3.55006 4.9
    endloop
  endfacet
  facet normal 0 0 1
    outer loop
      vertex 5.41674 3.55006 4.9
      vertex 0 0 4.9
      vertex 5.46799 3.40684 4.9
    endloop
  endfacet
  facet normal 0 0 1
    outer loop
      vertex 5.46799 3.40684 4.9
      vertex 0 0 4.9
      vertex 5.53302 3.26933 4.9
    endloop
  endfacet
  facet normal 0 0 1
    outer loop
      vertex 5.53302 3.26933 4.9
      vertex 0 0 4.9
      vertex 5.61122 3.13887 4.9
    endloop
  endfacet
  facet normal 0 0 1
    outer loop
      vertex 5.61122 3.13887 4.9
      vertex 0 0 4.9
      vertex 5.70183 3.01669 4.9
    endloop
  endfacet
  facet normal 0 0 1
    outer loop
      vertex 5.70183 3.01669 4.9
      vertex 0 0 4.9
      vertex 5.80398 2.90398 4.9
    endloop
  endfacet
  facet normal 0 0 1
    outer loop
      vertex 6.45006 2.51674 4.9
      vertex 0 0 4.9
      vertex 9.8 0 4.9
    endloop
  endfacet
  facet normal 0 0 1
    outer loop
      vertex 5.91669 2.80183 4.9
      vertex 0 0 4.9
      vertex 6.03887 2.71122 4.9
    endloop
  endfacet
  facet normal 0 0 1
    outer loop
      vertex 5.80398 2.90398 4.9
      vertex 0 0 4.9
      vertex 5.91669 2.80183 4.9
    endloop
  endfacet
  facet normal 0 0 1
    outer loop
      vertex 13.8 28.2 4.9
      vertex 8.44254 32.3519 4.9
      vertex 8.45 32.2 4.9
    endloop
  endfacet
  facet normal 0 0 1
    outer loop
      vertex 9.8 36.2 4.9
      vertex 8.42022 32.5024 4.9
      vertex 8.44254 32.3519 4.9
    endloop
  endfacet
  facet normal 0 0 1
    outer loop
      vertex 9.8 36.2 4.9
      vertex 8.38326 32.6499 4.9
      vertex 8.42022 32.5024 4.9
    endloop
  endfacet
  facet normal 0 0 1
    outer loop
      vertex 9.8 36.2 4.9
      vertex 8.33201 32.7932 4.9
      vertex 8.38326 32.6499 4.9
    endloop
  endfacet
  facet normal 0 0 1
    outer loop
      vertex 9.8 36.2 4.9
      vertex 8.26698 32.9307 4.9
      vertex 8.33201 32.7932 4.9
    endloop
  endfacet
  facet normal 0 0 1
    outer loop
      vertex 9.8 36.2 4.9
      vertex 8.18878 33.0611 4.9
      vertex 8.26698 32.9307 4.9
    endloop
  endfacet
  facet normal 0 0 1
    outer loop
      vertex 9.8 36.2 4.9
      vertex 8.09817 33.1833 4.9
      vertex 8.18878 33.0611 4.9
    endloop
  endfacet
  facet normal 0 0 1
    outer loop
      vertex 9.8 36.2 4.9
      vertex 7.99601 33.296 4.9
      vertex 8.09817 33.1833 4.9
    endloop
  endfacet
  facet normal 0 0 1
    outer loop
      vertex 9.8 36.2 4.9
      vertex 7.88331 33.3982 4.9
      vertex 7.99601 33.296 4.9
    endloop
  endfacet
  facet normal 0 0 1
    outer loop
      vertex 9.8 36.2 4.9
      vertex 7.76113 33.4888 4.9
      vertex 7.88331 33.3982 4.9
    endloop
  endfacet
  facet normal 0 0 1
    outer loop
      vertex 9.8 36.2 4.9
      vertex 7.63066 33.567 4.9
      vertex 7.76113 33.4888 4.9
    endloop
  endfacet
  facet normal 0 0 1
    outer loop
      vertex 9.8 36.2 4.9
      vertex 7.49316 33.632 4.9
      vertex 7.63066 33.567 4.9
    endloop
  endfacet
  facet normal 0 0 1
    outer loop
      vertex 9.8 36.2 4.9
      vertex 7.34994 33.6833 4.9
      vertex 7.49316 33.632 4.9
    endloop
  endfacet
  facet normal 0 0 1
    outer loop
      vertex 9.8 36.2 4.9
      vertex 7.20239 33.7202 4.9
      vertex 7.34994 33.6833 4.9
    endloop
  endfacet
  facet normal 0 0 1
    outer loop
      vertex 9.8 36.2 4.9
      vertex 7.05193 33.7425 4.9
      vertex 7.20239 33.7202 4.9
    endloop
  endfacet
  facet normal 0 0 1
    outer loop
      vertex 9.8 36.2 4.9
      vertex 6.9 33.75 4.9
      vertex 7.05193 33.7425 4.9
    endloop
  endfacet
  facet normal 0 0 1
    outer loop
      vertex 9.8 36.2 4.9
      vertex 6.74807 33.7425 4.9
      vertex 6.9 33.75 4.9
    endloop
  endfacet
  facet normal 0 0 1
    outer loop
      vertex 9.8 36.2 4.9
      vertex 6.59761 33.7202 4.9
      vertex 6.74807 33.7425 4.9
    endloop
  endfacet
  facet normal 0 0 1
    outer loop
      vertex 9.8 36.2 4.9
      vertex 6.45006 33.6833 4.9
      vertex 6.59761 33.7202 4.9
    endloop
  endfacet
  facet normal -0 0 1
    outer loop
      vertex 0 36.2 4.9
      vertex 6.45006 33.6833 4.9
      vertex 9.8 36.2 4.9
    endloop
  endfacet
  facet normal 0 0 1
    outer loop
      vertex 6.45006 33.6833 4.9
      vertex 0 36.2 4.9
      vertex 6.30684 33.632 4.9
    endloop
  endfacet
  facet normal 0 0 1
    outer loop
      vertex 6.30684 33.632 4.9
      vertex 0 36.2 4.9
      vertex 6.16933 33.567 4.9
    endloop
  endfacet
  facet normal 0 0 1
    outer loop
      vertex 5.35746 32.3519 4.9
      vertex 0 36.2 4.9
      vertex 5.35 32.2 4.9
    endloop
  endfacet
  facet normal 0 0 1
    outer loop
      vertex 5.37978 32.5024 4.9
      vertex 0 36.2 4.9
      vertex 5.35746 32.3519 4.9
    endloop
  endfacet
  facet normal 0 0 1
    outer loop
      vertex 5.41674 32.6499 4.9
      vertex 0 36.2 4.9
      vertex 5.37978 32.5024 4.9
    endloop
  endfacet
  facet normal 0 0 1
    outer loop
      vertex 5.46799 32.7932 4.9
      vertex 0 36.2 4.9
      vertex 5.41674 32.6499 4.9
    endloop
  endfacet
  facet normal 0 0 1
    outer loop
      vertex 5.53302 32.9307 4.9
      vertex 0 36.2 4.9
      vertex 5.46799 32.7932 4.9
    endloop
  endfacet
  facet normal 0 0 1
    outer loop
      vertex 5.61122 33.0611 4.9
      vertex 0 36.2 4.9
      vertex 5.53302 32.9307 4.9
    endloop
  endfacet
  facet normal 0 0 1
    outer loop
      vertex 5.70183 33.1833 4.9
      vertex 0 36.2 4.9
      vertex 5.61122 33.0611 4.9
    endloop
  endfacet
  facet normal 0 0 1
    outer loop
      vertex 5.80398 33.296 4.9
      vertex 0 36.2 4.9
      vertex 5.70183 33.1833 4.9
    endloop
  endfacet
  facet normal 0 0 1
    outer loop
      vertex 5.91669 33.3982 4.9
      vertex 0 36.2 4.9
      vertex 5.80398 33.296 4.9
    endloop
  endfacet
  facet normal 0 0 1
    outer loop
      vertex 6.03887 33.4888 4.9
      vertex 0 36.2 4.9
      vertex 5.91669 33.3982 4.9
    endloop
  endfacet
  facet normal 0 0 1
    outer loop
      vertex 6.16933 33.567 4.9
      vertex 0 36.2 4.9
      vertex 6.03887 33.4888 4.9
    endloop
  endfacet
  facet normal -0 0 1
    outer loop
      vertex 8.44254 32.3519 4.9
      vertex 13.8 28.2 4.9
      vertex 9.8 36.2 4.9
    endloop
  endfacet
  facet normal -0 0 1
    outer loop
      vertex 8.44254 32.0481 4.9
      vertex 13.8 28.2 4.9
      vertex 8.45 32.2 4.9
    endloop
  endfacet
  facet normal -0 0 1
    outer loop
      vertex 8.42022 31.8976 4.9
      vertex 13.8 28.2 4.9
      vertex 8.44254 32.0481 4.9
    endloop
  endfacet
  facet normal -0 0 1
    outer loop
      vertex 8.38326 31.7501 4.9
      vertex 13.8 28.2 4.9
      vertex 8.42022 31.8976 4.9
    endloop
  endfacet
  facet normal -0 0 1
    outer loop
      vertex 8.33201 31.6068 4.9
      vertex 13.8 28.2 4.9
      vertex 8.38326 31.7501 4.9
    endloop
  endfacet
  facet normal -0 0 1
    outer loop
      vertex 8.26698 31.4693 4.9
      vertex 13.8 28.2 4.9
      vertex 8.33201 31.6068 4.9
    endloop
  endfacet
  facet normal -0 0 1
    outer loop
      vertex 8.18878 31.3389 4.9
      vertex 13.8 28.2 4.9
      vertex 8.26698 31.4693 4.9
    endloop
  endfacet
  facet normal -0 0 1
    outer loop
      vertex 8.09817 31.2167 4.9
      vertex 13.8 28.2 4.9
      vertex 8.18878 31.3389 4.9
    endloop
  endfacet
  facet normal -0 0 1
    outer loop
      vertex 7.99601 31.104 4.9
      vertex 13.8 28.2 4.9
      vertex 8.09817 31.2167 4.9
    endloop
  endfacet
  facet normal -0 0 1
    outer loop
      vertex 7.88331 31.0018 4.9
      vertex 13.8 28.2 4.9
      vertex 7.99601 31.104 4.9
    endloop
  endfacet
  facet normal -0 0 1
    outer loop
      vertex 7.76113 30.9112 4.9
      vertex 13.8 28.2 4.9
      vertex 7.88331 31.0018 4.9
    endloop
  endfacet
  facet normal -0 0 1
    outer loop
      vertex 7.63066 30.833 4.9
      vertex 13.8 28.2 4.9
      vertex 7.76113 30.9112 4.9
    endloop
  endfacet
  facet normal -0 0 1
    outer loop
      vertex 7.49316 30.768 4.9
      vertex 13.8 28.2 4.9
      vertex 7.63066 30.833 4.9
    endloop
  endfacet
  facet normal -0 0 1
    outer loop
      vertex 7.34994 30.7167 4.9
      vertex 13.8 28.2 4.9
      vertex 7.49316 30.768 4.9
    endloop
  endfacet
  facet normal -0 0 1
    outer loop
      vertex 7.20239 30.6798 4.9
      vertex 13.8 28.2 4.9
      vertex 7.34994 30.7167 4.9
    endloop
  endfacet
  facet normal -0 0 1
    outer loop
      vertex 7.05193 30.6575 4.9
      vertex 13.8 28.2 4.9
      vertex 7.20239 30.6798 4.9
    endloop
  endfacet
  facet normal -0 0 1
    outer loop
      vertex 6.9 30.65 4.9
      vertex 13.8 28.2 4.9
      vertex 7.05193 30.6575 4.9
    endloop
  endfacet
  facet normal 0 0 1
    outer loop
      vertex 0 28.2 4.9
      vertex 6.9 30.65 4.9
      vertex 6.74807 30.6575 4.9
    endloop
  endfacet
  facet normal 0 0 1
    outer loop
      vertex 0 28.2 4.9
      vertex 6.74807 30.6575 4.9
      vertex 6.59761 30.6798 4.9
    endloop
  endfacet
  facet normal 0 0 1
    outer loop
      vertex 0 28.2 4.9
      vertex 6.59761 30.6798 4.9
      vertex 6.45006 30.7167 4.9
    endloop
  endfacet
  facet normal 0 0 1
    outer loop
      vertex 0 28.2 4.9
      vertex 5.35 32.2 4.9
      vertex 0 36.2 4.9
    endloop
  endfacet
  facet normal 0 0 1
    outer loop
      vertex 5.35 32.2 4.9
      vertex 0 28.2 4.9
      vertex 5.35746 32.0481 4.9
    endloop
  endfacet
  facet normal 0 0 1
    outer loop
      vertex 5.35746 32.0481 4.9
      vertex 0 28.2 4.9
      vertex 5.37978 31.8976 4.9
    endloop
  endfacet
  facet normal 0 0 1
    outer loop
      vertex 5.37978 31.8976 4.9
      vertex 0 28.2 4.9
      vertex 5.41674 31.7501 4.9
    endloop
  endfacet
  facet normal 0 0 1
    outer loop
      vertex 5.41674 31.7501 4.9
      vertex 0 28.2 4.9
      vertex 5.46799 31.6068 4.9
    endloop
  endfacet
  facet normal 0 0 1
    outer loop
      vertex 5.46799 31.6068 4.9
      vertex 0 28.2 4.9
      vertex 5.53302 31.4693 4.9
    endloop
  endfacet
  facet normal 0 0 1
    outer loop
      vertex 5.53302 31.4693 4.9
      vertex 0 28.2 4.9
      vertex 5.61122 31.3389 4.9
    endloop
  endfacet
  facet normal 0 0 1
    outer loop
      vertex 5.61122 31.3389 4.9
      vertex 0 28.2 4.9
      vertex 5.70183 31.2167 4.9
    endloop
  endfacet
  facet normal 0 0 1
    outer loop
      vertex 5.70183 31.2167 4.9
      vertex 0 28.2 4.9
      vertex 5.80398 31.104 4.9
    endloop
  endfacet
  facet normal 0 0 1
    outer loop
      vertex 6.9 30.65 4.9
      vertex 0 28.2 4.9
      vertex 13.8 28.2 4.9
    endloop
  endfacet
  facet normal 0 0 1
    outer loop
      vertex 6.30684 30.768 4.9
      vertex 0 28.2 4.9
      vertex 6.45006 30.7167 4.9
    endloop
  endfacet
  facet normal 0 0 1
    outer loop
      vertex 6.16933 30.833 4.9
      vertex 0 28.2 4.9
      vertex 6.30684 30.768 4.9
    endloop
  endfacet
  facet normal 0 0 1
    outer loop
      vertex 6.03887 30.9112 4.9
      vertex 0 28.2 4.9
      vertex 6.16933 30.833 4.9
    endloop
  endfacet
  facet normal 0 0 1
    outer loop
      vertex 5.91669 31.0018 4.9
      vertex 0 28.2 4.9
      vertex 6.03887 30.9112 4.9
    endloop
  endfacet
  facet normal 0 0 1
    outer loop
      vertex 5.80398 31.104 4.9
      vertex 0 28.2 4.9
      vertex 5.91669 31.0018 4.9
    endloop
  endfacet
  facet normal 0 1 0
    outer loop
      vertex 28.2 36.2 2.8
      vertex 33.8 36.2 0
      vertex 9.8 36.2 2.8
    endloop
  endfacet
  facet normal 0 1 -0
    outer loop
      vertex 9.8 36.2 2.8
      vertex 0 36.2 4.9
      vertex 9.8 36.2 4.9
    endloop
  endfacet
  facet normal 0 1 0
    outer loop
      vertex 9.8 36.2 2.8
      vertex 0 36.2 0
      vertex 0 36.2 4.9
    endloop
  endfacet
  facet normal 0 1 0
    outer loop
      vertex 0 36.2 0
      vertex 9.8 36.2 2.8
      vertex 33.8 36.2 0
    endloop
  endfacet
  facet normal 0 0 -1
    outer loop
      vertex 8.38326 4.44994 0
      vertex 33.8 0 0
      vertex 8.42022 4.30239 0
    endloop
  endfacet
  facet normal 0 0 -1
    outer loop
      vertex 33.8 36.2 0
      vertex 8.44254 32.0481 0
      vertex 8.45 32.2 0
    endloop
  endfacet
  facet normal 0 0 -1
    outer loop
      vertex 8.33201 4.59316 0
      vertex 33.8 0 0
      vertex 8.38326 4.44994 0
    endloop
  endfacet
  facet normal 0 0 -1
    outer loop
      vertex 33.8 36.2 0
      vertex 8.42022 31.8976 0
      vertex 8.44254 32.0481 0
    endloop
  endfacet
  facet normal 0 0 -1
    outer loop
      vertex 8.26698 4.73066 0
      vertex 33.8 0 0
      vertex 8.33201 4.59316 0
    endloop
  endfacet
  facet normal 0 0 -1
    outer loop
      vertex 33.8 36.2 0
      vertex 8.38326 31.7501 0
      vertex 8.42022 31.8976 0
    endloop
  endfacet
  facet normal 0 0 -1
    outer loop
      vertex 8.18878 4.86113 0
      vertex 33.8 0 0
      vertex 8.26698 4.73066 0
    endloop
  endfacet
  facet normal 0 0 -1
    outer loop
      vertex 33.8 36.2 0
      vertex 8.33201 31.6068 0
      vertex 8.38326 31.7501 0
    endloop
  endfacet
  facet normal 0 0 -1
    outer loop
      vertex 8.09817 4.98331 0
      vertex 33.8 0 0
      vertex 8.18878 4.86113 0
    endloop
  endfacet
  facet normal 0 0 -1
    outer loop
      vertex 33.8 36.2 0
      vertex 8.26698 31.4693 0
      vertex 8.33201 31.6068 0
    endloop
  endfacet
  facet normal 0 0 -1
    outer loop
      vertex 33.8 0 0
      vertex 8.09817 4.98331 0
      vertex 33.8 36.2 0
    endloop
  endfacet
  facet normal 0 0 -1
    outer loop
      vertex 33.8 36.2 0
      vertex 8.18878 31.3389 0
      vertex 8.26698 31.4693 0
    endloop
  endfacet
  facet normal 0 0 -1
    outer loop
      vertex 8.09817 31.2167 0
      vertex 33.8 36.2 0
      vertex 8.09817 4.98331 0
    endloop
  endfacet
  facet normal 0 0 -1
    outer loop
      vertex 33.8 36.2 0
      vertex 8.09817 31.2167 0
      vertex 8.18878 31.3389 0
    endloop
  endfacet
  facet normal 0 0 -1
    outer loop
      vertex 7.99601 5.09601 0
      vertex 8.09817 31.2167 0
      vertex 8.09817 4.98331 0
    endloop
  endfacet
  facet normal 0 0 -1
    outer loop
      vertex 7.99601 5.09601 0
      vertex 7.99601 31.104 0
      vertex 8.09817 31.2167 0
    endloop
  endfacet
  facet normal 0 0 -1
    outer loop
      vertex 7.88331 5.19817 0
      vertex 7.99601 31.104 0
      vertex 7.99601 5.09601 0
    endloop
  endfacet
  facet normal 0 0 -1
    outer loop
      vertex 7.88331 5.19817 0
      vertex 7.88331 31.0018 0
      vertex 7.99601 31.104 0
    endloop
  endfacet
  facet normal 0 0 -1
    outer loop
      vertex 7.76113 5.28878 0
      vertex 7.88331 31.0018 0
      vertex 7.88331 5.19817 0
    endloop
  endfacet
  facet normal 0 0 -1
    outer loop
      vertex 7.76113 5.28878 0
      vertex 7.76113 30.9112 0
      vertex 7.88331 31.0018 0
    endloop
  endfacet
  facet normal 0 0 -1
    outer loop
      vertex 7.63066 5.36698 0
      vertex 7.76113 30.9112 0
      vertex 7.76113 5.28878 0
    endloop
  endfacet
  facet normal 0 0 -1
    outer loop
      vertex 7.63066 5.36698 0
      vertex 7.63066 30.833 0
      vertex 7.76113 30.9112 0
    endloop
  endfacet
  facet normal 0 0 -1
    outer loop
      vertex 7.49316 5.43201 0
      vertex 7.63066 30.833 0
      vertex 7.63066 5.36698 0
    endloop
  endfacet
  facet normal 0 0 -1
    outer loop
      vertex 7.49316 5.43201 0
      vertex 7.49316 30.768 0
      vertex 7.63066 30.833 0
    endloop
  endfacet
  facet normal 0 0 -1
    outer loop
      vertex 7.34994 5.48326 0
      vertex 7.49316 30.768 0
      vertex 7.49316 5.43201 0
    endloop
  endfacet
  facet normal 0 0 -1
    outer loop
      vertex 7.34994 5.48326 0
      vertex 7.34994 30.7167 0
      vertex 7.49316 30.768 0
    endloop
  endfacet
  facet normal 0 0 -1
    outer loop
      vertex 7.20239 5.52022 0
      vertex 7.34994 30.7167 0
      vertex 7.34994 5.48326 0
    endloop
  endfacet
  facet normal 0 0 -1
    outer loop
      vertex 7.20239 5.52022 0
      vertex 7.20239 30.6798 0
      vertex 7.34994 30.7167 0
    endloop
  endfacet
  facet normal 0 0 -1
    outer loop
      vertex 7.05193 5.54254 0
      vertex 7.20239 30.6798 0
      vertex 7.20239 5.52022 0
    endloop
  endfacet
  facet normal 0 0 -1
    outer loop
      vertex 7.05193 5.54254 0
      vertex 7.05193 30.6575 0
      vertex 7.20239 30.6798 0
    endloop
  endfacet
  facet normal 0 0 -1
    outer loop
      vertex 6.9 5.55 0
      vertex 7.05193 30.6575 0
      vertex 7.05193 5.54254 0
    endloop
  endfacet
  facet normal 0 0 -1
    outer loop
      vertex 6.9 5.55 0
      vertex 6.9 30.65 0
      vertex 7.05193 30.6575 0
    endloop
  endfacet
  facet normal 0 0 -1
    outer loop
      vertex 6.74807 5.54254 0
      vertex 6.9 30.65 0
      vertex 6.9 5.55 0
    endloop
  endfacet
  facet normal 0 0 -1
    outer loop
      vertex 6.74807 5.54254 0
      vertex 6.74807 30.6575 0
      vertex 6.9 30.65 0
    endloop
  endfacet
  facet normal 0 0 -1
    outer loop
      vertex 6.59761 5.52022 0
      vertex 6.74807 30.6575 0
      vertex 6.74807 5.54254 0
    endloop
  endfacet
  facet normal 0 0 -1
    outer loop
      vertex 6.59761 5.52022 0
      vertex 6.59761 30.6798 0
      vertex 6.74807 30.6575 0
    endloop
  endfacet
  facet normal 0 0 -1
    outer loop
      vertex 6.45006 5.48326 0
      vertex 6.59761 30.6798 0
      vertex 6.59761 5.52022 0
    endloop
  endfacet
  facet normal 0 0 -1
    outer loop
      vertex 6.45006 5.48326 0
      vertex 6.45006 30.7167 0
      vertex 6.59761 30.6798 0
    endloop
  endfacet
  facet normal 0 0 -1
    outer loop
      vertex 6.30684 5.43201 0
      vertex 6.45006 30.7167 0
      vertex 6.45006 5.48326 0
    endloop
  endfacet
  facet normal 0 0 -1
    outer loop
      vertex 6.30684 5.43201 0
      vertex 6.30684 30.768 0
      vertex 6.45006 30.7167 0
    endloop
  endfacet
  facet normal 0 0 -1
    outer loop
      vertex 6.16933 5.36698 0
      vertex 6.30684 30.768 0
      vertex 6.30684 5.43201 0
    endloop
  endfacet
  facet normal 0 0 -1
    outer loop
      vertex 6.16933 5.36698 0
      vertex 6.16933 30.833 0
      vertex 6.30684 30.768 0
    endloop
  endfacet
  facet normal 0 0 -1
    outer loop
      vertex 6.03887 5.28878 0
      vertex 6.16933 30.833 0
      vertex 6.16933 5.36698 0
    endloop
  endfacet
  facet normal 0 0 -1
    outer loop
      vertex 6.03887 5.28878 0
      vertex 6.03887 30.9112 0
      vertex 6.16933 30.833 0
    endloop
  endfacet
  facet normal 0 0 -1
    outer loop
      vertex 5.91669 5.19817 0
      vertex 6.03887 30.9112 0
      vertex 6.03887 5.28878 0
    endloop
  endfacet
  facet normal 0 0 -1
    outer loop
      vertex 5.91669 5.19817 0
      vertex 5.91669 31.0018 0
      vertex 6.03887 30.9112 0
    endloop
  endfacet
  facet normal 0 0 -1
    outer loop
      vertex 5.80398 5.09601 0
      vertex 5.91669 31.0018 0
      vertex 5.91669 5.19817 0
    endloop
  endfacet
  facet normal 0 0 -1
    outer loop
      vertex 5.80398 5.09601 0
      vertex 5.80398 31.104 0
      vertex 5.91669 31.0018 0
    endloop
  endfacet
  facet normal 0 0 -1
    outer loop
      vertex 5.70183 4.98331 0
      vertex 5.80398 31.104 0
      vertex 5.80398 5.09601 0
    endloop
  endfacet
  facet normal 0 0 -1
    outer loop
      vertex 5.70183 4.98331 0
      vertex 5.70183 31.2167 0
      vertex 5.80398 31.104 0
    endloop
  endfacet
  facet normal 0 0 -1
    outer loop
      vertex 0 0 0
      vertex 5.70183 4.98331 0
      vertex 5.61122 4.86113 0
    endloop
  endfacet
  facet normal -0 0 -1
    outer loop
      vertex 5.70183 4.98331 0
      vertex 0 0 0
      vertex 5.70183 31.2167 0
    endloop
  endfacet
  facet normal 0 0 -1
    outer loop
      vertex 0 0 0
      vertex 5.61122 4.86113 0
      vertex 5.53302 4.73066 0
    endloop
  endfacet
  facet normal 0 0 -1
    outer loop
      vertex 0 36.2 0
      vertex 5.70183 31.2167 0
      vertex 0 0 0
    endloop
  endfacet
  facet normal 0 0 -1
    outer loop
      vertex 0 0 0
      vertex 5.53302 4.73066 0
      vertex 5.46799 4.59316 0
    endloop
  endfacet
  facet normal 0 0 -1
    outer loop
      vertex 5.70183 31.2167 0
      vertex 0 36.2 0
      vertex 5.61122 31.3389 0
    endloop
  endfacet
  facet normal 0 0 -1
    outer loop
      vertex 0 0 0
      vertex 5.46799 4.59316 0
      vertex 5.41674 4.44994 0
    endloop
  endfacet
  facet normal 0 0 -1
    outer loop
      vertex 5.61122 31.3389 0
      vertex 0 36.2 0
      vertex 5.53302 31.4693 0
    endloop
  endfacet
  facet normal 0 0 -1
    outer loop
      vertex 0 0 0
      vertex 5.41674 4.44994 0
      vertex 5.37978 4.30239 0
    endloop
  endfacet
  facet normal 0 0 -1
    outer loop
      vertex 5.53302 31.4693 0
      vertex 0 36.2 0
      vertex 5.46799 31.6068 0
    endloop
  endfacet
  facet normal 0 0 -1
    outer loop
      vertex 0 0 0
      vertex 5.37978 4.30239 0
      vertex 5.35746 4.15193 0
    endloop
  endfacet
  facet normal 0 0 -1
    outer loop
      vertex 5.46799 31.6068 0
      vertex 0 36.2 0
      vertex 5.41674 31.7501 0
    endloop
  endfacet
  facet normal 0 0 -1
    outer loop
      vertex 0 0 0
      vertex 5.35746 4.15193 0
      vertex 5.35 4 0
    endloop
  endfacet
  facet normal 0 0 -1
    outer loop
      vertex 5.41674 31.7501 0
      vertex 0 36.2 0
      vertex 5.37978 31.8976 0
    endloop
  endfacet
  facet normal 0 0 -1
    outer loop
      vertex 8.44254 4.15193 0
      vertex 33.8 0 0
      vertex 8.45 4 0
    endloop
  endfacet
  facet normal 0 0 -1
    outer loop
      vertex 33.8 0 0
      vertex 8.44254 3.84807 0
      vertex 8.45 4 0
    endloop
  endfacet
  facet normal 0 0 -1
    outer loop
      vertex 33.8 0 0
      vertex 8.42022 3.69761 0
      vertex 8.44254 3.84807 0
    endloop
  endfacet
  facet normal 0 0 -1
    outer loop
      vertex 33.8 0 0
      vertex 8.38326 3.55006 0
      vertex 8.42022 3.69761 0
    endloop
  endfacet
  facet normal 0 0 -1
    outer loop
      vertex 33.8 0 0
      vertex 8.33201 3.40684 0
      vertex 8.38326 3.55006 0
    endloop
  endfacet
  facet normal 0 0 -1
    outer loop
      vertex 33.8 0 0
      vertex 8.26698 3.26933 0
      vertex 8.33201 3.40684 0
    endloop
  endfacet
  facet normal 0 0 -1
    outer loop
      vertex 33.8 0 0
      vertex 8.18878 3.13887 0
      vertex 8.26698 3.26933 0
    endloop
  endfacet
  facet normal 0 0 -1
    outer loop
      vertex 33.8 0 0
      vertex 8.09817 3.01669 0
      vertex 8.18878 3.13887 0
    endloop
  endfacet
  facet normal 0 0 -1
    outer loop
      vertex 33.8 0 0
      vertex 7.99601 2.90398 0
      vertex 8.09817 3.01669 0
    endloop
  endfacet
  facet normal 0 0 -1
    outer loop
      vertex 33.8 0 0
      vertex 7.88331 2.80183 0
      vertex 7.99601 2.90398 0
    endloop
  endfacet
  facet normal 0 0 -1
    outer loop
      vertex 33.8 0 0
      vertex 7.76113 2.71122 0
      vertex 7.88331 2.80183 0
    endloop
  endfacet
  facet normal 0 0 -1
    outer loop
      vertex 33.8 0 0
      vertex 7.63066 2.63302 0
      vertex 7.76113 2.71122 0
    endloop
  endfacet
  facet normal 0 0 -1
    outer loop
      vertex 33.8 0 0
      vertex 7.49316 2.56799 0
      vertex 7.63066 2.63302 0
    endloop
  endfacet
  facet normal 0 0 -1
    outer loop
      vertex 33.8 0 0
      vertex 7.34994 2.51674 0
      vertex 7.49316 2.56799 0
    endloop
  endfacet
  facet normal 0 0 -1
    outer loop
      vertex 33.8 0 0
      vertex 7.20239 2.47978 0
      vertex 7.34994 2.51674 0
    endloop
  endfacet
  facet normal 0 0 -1
    outer loop
      vertex 0 0 0
      vertex 7.20239 2.47978 0
      vertex 33.8 0 0
    endloop
  endfacet
  facet normal 0 0 -1
    outer loop
      vertex 7.20239 2.47978 0
      vertex 0 0 0
      vertex 7.05193 2.45746 0
    endloop
  endfacet
  facet normal 0 0 -1
    outer loop
      vertex 7.05193 2.45746 0
      vertex 0 0 0
      vertex 6.9 2.45 0
    endloop
  endfacet
  facet normal 0 0 -1
    outer loop
      vertex 5.37978 31.8976 0
      vertex 0 36.2 0
      vertex 5.35746 32.0481 0
    endloop
  endfacet
  facet normal -0 0 -1
    outer loop
      vertex 5.35746 3.84807 0
      vertex 0 0 0
      vertex 5.35 4 0
    endloop
  endfacet
  facet normal -0 0 -1
    outer loop
      vertex 5.37978 3.69761 0
      vertex 0 0 0
      vertex 5.35746 3.84807 0
    endloop
  endfacet
  facet normal -0 0 -1
    outer loop
      vertex 5.41674 3.55006 0
      vertex 0 0 0
      vertex 5.37978 3.69761 0
    endloop
  endfacet
  facet normal -0 0 -1
    outer loop
      vertex 5.46799 3.40684 0
      vertex 0 0 0
      vertex 5.41674 3.55006 0
    endloop
  endfacet
  facet normal -0 0 -1
    outer loop
      vertex 5.53302 3.26933 0
      vertex 0 0 0
      vertex 5.46799 3.40684 0
    endloop
  endfacet
  facet normal -0 0 -1
    outer loop
      vertex 5.61122 3.13887 0
      vertex 0 0 0
      vertex 5.53302 3.26933 0
    endloop
  endfacet
  facet normal -0 0 -1
    outer loop
      vertex 5.70183 3.01669 0
      vertex 0 0 0
      vertex 5.61122 3.13887 0
    endloop
  endfacet
  facet normal -0 0 -1
    outer loop
      vertex 5.80398 2.90398 0
      vertex 0 0 0
      vertex 5.70183 3.01669 0
    endloop
  endfacet
  facet normal -0 0 -1
    outer loop
      vertex 5.91669 2.80183 0
      vertex 0 0 0
      vertex 5.80398 2.90398 0
    endloop
  endfacet
  facet normal -0 0 -1
    outer loop
      vertex 6.03887 2.71122 0
      vertex 0 0 0
      vertex 5.91669 2.80183 0
    endloop
  endfacet
  facet normal -0 0 -1
    outer loop
      vertex 6.16933 2.63302 0
      vertex 0 0 0
      vertex 6.03887 2.71122 0
    endloop
  endfacet
  facet normal -0 0 -1
    outer loop
      vertex 6.30684 2.56799 0
      vertex 0 0 0
      vertex 6.16933 2.63302 0
    endloop
  endfacet
  facet normal -0 0 -1
    outer loop
      vertex 6.45006 2.51674 0
      vertex 0 0 0
      vertex 6.30684 2.56799 0
    endloop
  endfacet
  facet normal -0 0 -1
    outer loop
      vertex 6.59761 2.47978 0
      vertex 0 0 0
      vertex 6.45006 2.51674 0
    endloop
  endfacet
  facet normal -0 0 -1
    outer loop
      vertex 6.74807 2.45746 0
      vertex 0 0 0
      vertex 6.59761 2.47978 0
    endloop
  endfacet
  facet normal -0 0 -1
    outer loop
      vertex 6.9 2.45 0
      vertex 0 0 0
      vertex 6.74807 2.45746 0
    endloop
  endfacet
  facet normal 0 0 -1
    outer loop
      vertex 8.42022 4.30239 0
      vertex 33.8 0 0
      vertex 8.44254 4.15193 0
    endloop
  endfacet
  facet normal 0 0 -1
    outer loop
      vertex 8.44254 32.3519 0
      vertex 33.8 36.2 0
      vertex 8.45 32.2 0
    endloop
  endfacet
  facet normal 0 0 -1
    outer loop
      vertex 8.42022 32.5024 0
      vertex 33.8 36.2 0
      vertex 8.44254 32.3519 0
    endloop
  endfacet
  facet normal 0 0 -1
    outer loop
      vertex 8.38326 32.6499 0
      vertex 33.8 36.2 0
      vertex 8.42022 32.5024 0
    endloop
  endfacet
  facet normal 0 0 -1
    outer loop
      vertex 8.33201 32.7932 0
      vertex 33.8 36.2 0
      vertex 8.38326 32.6499 0
    endloop
  endfacet
  facet normal 0 0 -1
    outer loop
      vertex 8.26698 32.9307 0
      vertex 33.8 36.2 0
      vertex 8.33201 32.7932 0
    endloop
  endfacet
  facet normal 0 0 -1
    outer loop
      vertex 8.18878 33.0611 0
      vertex 33.8 36.2 0
      vertex 8.26698 32.9307 0
    endloop
  endfacet
  facet normal 0 0 -1
    outer loop
      vertex 8.09817 33.1833 0
      vertex 33.8 36.2 0
      vertex 8.18878 33.0611 0
    endloop
  endfacet
  facet normal 0 0 -1
    outer loop
      vertex 7.99601 33.296 0
      vertex 33.8 36.2 0
      vertex 8.09817 33.1833 0
    endloop
  endfacet
  facet normal 0 0 -1
    outer loop
      vertex 7.88331 33.3982 0
      vertex 33.8 36.2 0
      vertex 7.99601 33.296 0
    endloop
  endfacet
  facet normal 0 0 -1
    outer loop
      vertex 7.76113 33.4888 0
      vertex 33.8 36.2 0
      vertex 7.88331 33.3982 0
    endloop
  endfacet
  facet normal 0 0 -1
    outer loop
      vertex 7.63066 33.567 0
      vertex 33.8 36.2 0
      vertex 7.76113 33.4888 0
    endloop
  endfacet
  facet normal 0 0 -1
    outer loop
      vertex 7.49316 33.632 0
      vertex 33.8 36.2 0
      vertex 7.63066 33.567 0
    endloop
  endfacet
  facet normal 0 0 -1
    outer loop
      vertex 7.34994 33.6833 0
      vertex 33.8 36.2 0
      vertex 7.49316 33.632 0
    endloop
  endfacet
  facet normal 0 0 -1
    outer loop
      vertex 7.20239 33.7202 0
      vertex 33.8 36.2 0
      vertex 7.34994 33.6833 0
    endloop
  endfacet
  facet normal 0 0 -1
    outer loop
      vertex 0 36.2 0
      vertex 7.20239 33.7202 0
      vertex 7.05193 33.7425 0
    endloop
  endfacet
  facet normal 0 0 -1
    outer loop
      vertex 0 36.2 0
      vertex 7.05193 33.7425 0
      vertex 6.9 33.75 0
    endloop
  endfacet
  facet normal 0 0 -1
    outer loop
      vertex 0 36.2 0
      vertex 6.9 33.75 0
      vertex 6.74807 33.7425 0
    endloop
  endfacet
  facet normal 0 0 -1
    outer loop
      vertex 5.35746 32.0481 0
      vertex 0 36.2 0
      vertex 5.35 32.2 0
    endloop
  endfacet
  facet normal 0 0 -1
    outer loop
      vertex 5.35 32.2 0
      vertex 0 36.2 0
      vertex 5.35746 32.3519 0
    endloop
  endfacet
  facet normal 0 0 -1
    outer loop
      vertex 7.20239 33.7202 0
      vertex 0 36.2 0
      vertex 33.8 36.2 0
    endloop
  endfacet
  facet normal 0 0 -1
    outer loop
      vertex 6.59761 33.7202 0
      vertex 0 36.2 0
      vertex 6.74807 33.7425 0
    endloop
  endfacet
  facet normal 0 0 -1
    outer loop
      vertex 6.45006 33.6833 0
      vertex 0 36.2 0
      vertex 6.59761 33.7202 0
    endloop
  endfacet
  facet normal 0 0 -1
    outer loop
      vertex 6.30684 33.632 0
      vertex 0 36.2 0
      vertex 6.45006 33.6833 0
    endloop
  endfacet
  facet normal 0 0 -1
    outer loop
      vertex 6.16933 33.567 0
      vertex 0 36.2 0
      vertex 6.30684 33.632 0
    endloop
  endfacet
  facet normal 0 0 -1
    outer loop
      vertex 6.03887 33.4888 0
      vertex 0 36.2 0
      vertex 6.16933 33.567 0
    endloop
  endfacet
  facet normal 0 0 -1
    outer loop
      vertex 5.91669 33.3982 0
      vertex 0 36.2 0
      vertex 6.03887 33.4888 0
    endloop
  endfacet
  facet normal 0 0 -1
    outer loop
      vertex 5.80398 33.296 0
      vertex 0 36.2 0
      vertex 5.91669 33.3982 0
    endloop
  endfacet
  facet normal 0 0 -1
    outer loop
      vertex 5.70183 33.1833 0
      vertex 0 36.2 0
      vertex 5.80398 33.296 0
    endloop
  endfacet
  facet normal 0 0 -1
    outer loop
      vertex 5.61122 33.0611 0
      vertex 0 36.2 0
      vertex 5.70183 33.1833 0
    endloop
  endfacet
  facet normal 0 0 -1
    outer loop
      vertex 5.53302 32.9307 0
      vertex 0 36.2 0
      vertex 5.61122 33.0611 0
    endloop
  endfacet
  facet normal 0 0 -1
    outer loop
      vertex 5.46799 32.7932 0
      vertex 0 36.2 0
      vertex 5.53302 32.9307 0
    endloop
  endfacet
  facet normal 0 0 -1
    outer loop
      vertex 5.41674 32.6499 0
      vertex 0 36.2 0
      vertex 5.46799 32.7932 0
    endloop
  endfacet
  facet normal 0 0 -1
    outer loop
      vertex 5.37978 32.5024 0
      vertex 0 36.2 0
      vertex 5.41674 32.6499 0
    endloop
  endfacet
  facet normal 0 0 -1
    outer loop
      vertex 5.35746 32.3519 0
      vertex 0 36.2 0
      vertex 5.37978 32.5024 0
    endloop
  endfacet
  facet normal 0 -1 0
    outer loop
      vertex 0 0 4.9
      vertex 9.8 0 2.8
      vertex 9.8 0 4.9
    endloop
  endfacet
  facet normal 0 -1 0
    outer loop
      vertex 0 0 0
      vertex 9.8 0 2.8
      vertex 0 0 4.9
    endloop
  endfacet
  facet normal 0 -1 0
    outer loop
      vertex 33.8 0 0
      vertex 9.8 0 2.8
      vertex 0 0 0
    endloop
  endfacet
  facet normal 0 -1 0
    outer loop
      vertex 9.8 0 2.8
      vertex 33.8 0 0
      vertex 28.2 0 2.8
    endloop
  endfacet
  facet normal 1 -0 0
    outer loop
      vertex 3.2 8 2.8
      vertex 3.2 28.2 1.6
      vertex 3.2 28.2 2.8
    endloop
  endfacet
  facet normal 1 0 0
    outer loop
      vertex 3.2 28.2 1.6
      vertex 3.2 8 2.8
      vertex 3.2 8 1.6
    endloop
  endfacet
  facet normal -1 0 0
    outer loop
      vertex 13.8 8 1.6
      vertex 13.8 28.2 2.8
      vertex 13.8 28.2 1.6
    endloop
  endfacet
  facet normal -1 -0 0
    outer loop
      vertex 13.8 28.2 2.8
      vertex 13.8 8 1.6
      vertex 13.8 8 2.8
    endloop
  endfacet
  facet normal 0 -1 0
    outer loop
      vertex 3.2 28.2 2.8
      vertex 0 28.2 4.9
      vertex 0 28.2 2.8
    endloop
  endfacet
  facet normal 0 -1 0
    outer loop
      vertex 0 28.2 4.9
      vertex 3.2 28.2 2.8
      vertex 13.8 28.2 4.9
    endloop
  endfacet
  facet normal 0 -1 0
    outer loop
      vertex 3.2 28.2 2.8
      vertex 13.8 28.2 2.8
      vertex 13.8 28.2 4.9
    endloop
  endfacet
  facet normal 0 -1 0
    outer loop
      vertex 3.2 28.2 1.6
      vertex 13.8 28.2 2.8
      vertex 3.2 28.2 2.8
    endloop
  endfacet
  facet normal 0 -1 -0
    outer loop
      vertex 13.8 28.2 2.8
      vertex 3.2 28.2 1.6
      vertex 13.8 28.2 1.6
    endloop
  endfacet
  facet normal -0 0 1
    outer loop
      vertex 3.2 28.2 1.6
      vertex 13.8 8 1.6
      vertex 13.8 28.2 1.6
    endloop
  endfacet
  facet normal 0 0 1
    outer loop
      vertex 13.8 8 1.6
      vertex 3.2 28.2 1.6
      vertex 3.2 8 1.6
    endloop
  endfacet
  facet normal 0 1 -0
    outer loop
      vertex 13.8 8 1.6
      vertex 3.2 8 2.8
      vertex 13.8 8 2.8
    endloop
  endfacet
  facet normal 0 1 0
    outer loop
      vertex 3.2 8 2.8
      vertex 13.8 8 1.6
      vertex 3.2 8 1.6
    endloop
  endfacet
  facet normal 0 1 0
    outer loop
      vertex 3.2 8 2.8
      vertex 13.8 8 4.9
      vertex 13.8 8 2.8
    endloop
  endfacet
  facet normal 0 1 0
    outer loop
      vertex 13.8 8 4.9
      vertex 3.2 8 2.8
      vertex 0 8 4.9
    endloop
  endfacet
  facet normal 0 1 0
    outer loop
      vertex 0 8 4.9
      vertex 3.2 8 2.8
      vertex 0 8 2.8
    endloop
  endfacet
  facet normal -0 0 1
    outer loop
      vertex 0 28.2 2.8
      vertex 3.2 8 2.8
      vertex 3.2 28.2 2.8
    endloop
  endfacet
  facet normal 0 0 1
    outer loop
      vertex 3.2 8 2.8
      vertex 0 28.2 2.8
      vertex 0 8 2.8
    endloop
  endfacet
  facet normal 0 0 1
    outer loop
      vertex 28.2 36.2 2.8
      vertex 13.8 28.2 2.8
      vertex 28.2 0 2.8
    endloop
  endfacet
  facet normal 0 -0 1
    outer loop
      vertex 13.8 28.2 2.8
      vertex 28.2 36.2 2.8
      vertex 9.8 36.2 2.8
    endloop
  endfacet
  facet normal -0 0 1
    outer loop
      vertex 13.8 8 2.8
      vertex 28.2 0 2.8
      vertex 13.8 28.2 2.8
    endloop
  endfacet
  facet normal 0 0 1
    outer loop
      vertex 28.2 0 2.8
      vertex 13.8 8 2.8
      vertex 9.8 0 2.8
    endloop
  endfacet
  facet normal 0.447214 0 0.894427
    outer loop
      vertex 28.2 36.2 2.8
      vertex 33.8 0 0
      vertex 33.8 36.2 0
    endloop
  endfacet
  facet normal 0.447214 0 0.894427
    outer loop
      vertex 33.8 0 0
      vertex 28.2 36.2 2.8
      vertex 28.2 0 2.8
    endloop
  endfacet
  facet normal 0.894427 -0.447214 0
    outer loop
      vertex 9.8 0 4.9
      vertex 13.8 8 2.8
      vertex 13.8 8 4.9
    endloop
  endfacet
  facet normal 0.894427 -0.447214 0
    outer loop
      vertex 13.8 8 2.8
      vertex 9.8 0 4.9
      vertex 9.8 0 2.8
    endloop
  endfacet
  facet normal 0.894427 0.447214 0
    outer loop
      vertex 13.8 28.2 4.9
      vertex 9.8 36.2 2.8
      vertex 9.8 36.2 4.9
    endloop
  endfacet
  facet normal 0.894427 0.447214 0
    outer loop
      vertex 9.8 36.2 2.8
      vertex 13.8 28.2 4.9
      vertex 13.8 28.2 2.8
    endloop
  endfacet
  facet normal -0.970031 -0.24298 0
    outer loop
      vertex 8.42022 4.30239 0
      vertex 8.38326 4.44994 4.9
      vertex 8.38326 4.44994 0
    endloop
  endfacet
  facet normal -0.970031 -0.24298 0
    outer loop
      vertex 8.38326 4.44994 4.9
      vertex 8.42022 4.30239 0
      vertex 8.42022 4.30239 4.9
    endloop
  endfacet
  facet normal -0.998795 -0.0490727 0
    outer loop
      vertex 8.45 4 0
      vertex 8.44254 4.15193 4.9
      vertex 8.44254 4.15193 0
    endloop
  endfacet
  facet normal -0.998795 -0.0490727 0
    outer loop
      vertex 8.44254 4.15193 4.9
      vertex 8.45 4 0
      vertex 8.45 4 4.9
    endloop
  endfacet
  facet normal 0.0490661 -0.998796 0
    outer loop
      vertex 6.74807 5.54254 0
      vertex 6.9 5.55 4.9
      vertex 6.74807 5.54254 4.9
    endloop
  endfacet
  facet normal 0.0490661 -0.998796 0
    outer loop
      vertex 6.9 5.55 4.9
      vertex 6.74807 5.54254 0
      vertex 6.9 5.55 0
    endloop
  endfacet
  facet normal -0.671562 -0.740948 0
    outer loop
      vertex 7.88331 5.19817 0
      vertex 7.99601 5.09601 4.9
      vertex 7.88331 5.19817 4.9
    endloop
  endfacet
  facet normal -0.671562 -0.740948 -0
    outer loop
      vertex 7.99601 5.09601 4.9
      vertex 7.88331 5.19817 0
      vertex 7.99601 5.09601 0
    endloop
  endfacet
  facet normal 0.740954 -0.671555 0
    outer loop
      vertex 5.70183 4.98331 4.9
      vertex 5.80398 5.09601 0
      vertex 5.80398 5.09601 4.9
    endloop
  endfacet
  facet normal 0.740954 -0.671555 0
    outer loop
      vertex 5.80398 5.09601 0
      vertex 5.70183 4.98331 4.9
      vertex 5.70183 4.98331 0
    endloop
  endfacet
  facet normal 0.427553 -0.90399 0
    outer loop
      vertex 6.16933 5.36698 0
      vertex 6.30684 5.43201 4.9
      vertex 6.16933 5.36698 4.9
    endloop
  endfacet
  facet normal 0.427553 -0.90399 0
    outer loop
      vertex 6.30684 5.43201 4.9
      vertex 6.16933 5.36698 0
      vertex 6.30684 5.43201 0
    endloop
  endfacet
  facet normal 0.740954 0.671555 0
    outer loop
      vertex 5.80398 2.90398 4.9
      vertex 5.70183 3.01669 0
      vertex 5.70183 3.01669 4.9
    endloop
  endfacet
  facet normal 0.740954 0.671555 0
    outer loop
      vertex 5.70183 3.01669 0
      vertex 5.80398 2.90398 4.9
      vertex 5.80398 2.90398 0
    endloop
  endfacet
  facet normal -0.941545 -0.336887 0
    outer loop
      vertex 8.38326 4.44994 0
      vertex 8.33201 4.59316 4.9
      vertex 8.33201 4.59316 0
    endloop
  endfacet
  facet normal -0.941545 -0.336887 0
    outer loop
      vertex 8.33201 4.59316 4.9
      vertex 8.38326 4.44994 0
      vertex 8.38326 4.44994 4.9
    endloop
  endfacet
  facet normal -0.336891 -0.941544 0
    outer loop
      vertex 7.34994 5.48326 0
      vertex 7.49316 5.43201 4.9
      vertex 7.34994 5.48326 4.9
    endloop
  endfacet
  facet normal -0.336891 -0.941544 -0
    outer loop
      vertex 7.49316 5.43201 4.9
      vertex 7.34994 5.48326 0
      vertex 7.49316 5.43201 0
    endloop
  endfacet
  facet normal 0.903988 -0.427558 0
    outer loop
      vertex 5.46799 4.59316 4.9
      vertex 5.53302 4.73066 0
      vertex 5.53302 4.73066 4.9
    endloop
  endfacet
  facet normal 0.903988 -0.427558 0
    outer loop
      vertex 5.53302 4.73066 0
      vertex 5.46799 4.59316 4.9
      vertex 5.46799 4.59316 0
    endloop
  endfacet
  facet normal 0.857731 -0.514098 0
    outer loop
      vertex 5.53302 4.73066 4.9
      vertex 5.61122 4.86113 0
      vertex 5.61122 4.86113 4.9
    endloop
  endfacet
  facet normal 0.857731 -0.514098 0
    outer loop
      vertex 5.61122 4.86113 0
      vertex 5.53302 4.73066 4.9
      vertex 5.53302 4.73066 0
    endloop
  endfacet
  facet normal 0.998796 0.0490661 0
    outer loop
      vertex 5.35746 3.84807 4.9
      vertex 5.35 4 0
      vertex 5.35 4 4.9
    endloop
  endfacet
  facet normal 0.998796 0.0490661 0
    outer loop
      vertex 5.35 4 0
      vertex 5.35746 3.84807 4.9
      vertex 5.35746 3.84807 0
    endloop
  endfacet
  facet normal -0.903988 0.427558 0
    outer loop
      vertex 8.26698 3.26933 0
      vertex 8.33201 3.40684 4.9
      vertex 8.33201 3.40684 0
    endloop
  endfacet
  facet normal -0.903988 0.427558 0
    outer loop
      vertex 8.33201 3.40684 4.9
      vertex 8.26698 3.26933 0
      vertex 8.26698 3.26933 4.9
    endloop
  endfacet
  facet normal -0.336891 0.941544 0
    outer loop
      vertex 7.49316 2.56799 0
      vertex 7.34994 2.51674 4.9
      vertex 7.49316 2.56799 4.9
    endloop
  endfacet
  facet normal -0.336891 0.941544 0
    outer loop
      vertex 7.34994 2.51674 4.9
      vertex 7.49316 2.56799 0
      vertex 7.34994 2.51674 0
    endloop
  endfacet
  facet normal -0.740951 0.671559 0
    outer loop
      vertex 7.99601 2.90398 0
      vertex 8.09817 3.01669 4.9
      vertex 8.09817 3.01669 0
    endloop
  endfacet
  facet normal -0.740951 0.671559 0
    outer loop
      vertex 8.09817 3.01669 4.9
      vertex 7.99601 2.90398 0
      vertex 7.99601 2.90398 4.9
    endloop
  endfacet
  facet normal -0.970031 0.24298 0
    outer loop
      vertex 8.38326 3.55006 0
      vertex 8.42022 3.69761 4.9
      vertex 8.42022 3.69761 0
    endloop
  endfacet
  facet normal -0.970031 0.24298 0
    outer loop
      vertex 8.42022 3.69761 4.9
      vertex 8.38326 3.55006 0
      vertex 8.38326 3.55006 4.9
    endloop
  endfacet
  facet normal 0.24298 0.970031 -0
    outer loop
      vertex 6.59761 2.47978 0
      vertex 6.45006 2.51674 4.9
      vertex 6.59761 2.47978 4.9
    endloop
  endfacet
  facet normal 0.24298 0.970031 0
    outer loop
      vertex 6.45006 2.51674 4.9
      vertex 6.59761 2.47978 0
      vertex 6.45006 2.51674 0
    endloop
  endfacet
  facet normal 0.427553 0.90399 -0
    outer loop
      vertex 6.30684 2.56799 0
      vertex 6.16933 2.63302 4.9
      vertex 6.30684 2.56799 4.9
    endloop
  endfacet
  facet normal 0.427553 0.90399 0
    outer loop
      vertex 6.16933 2.63302 4.9
      vertex 6.30684 2.56799 0
      vertex 6.16933 2.63302 0
    endloop
  endfacet
  facet normal -0.989177 -0.146729 0
    outer loop
      vertex 8.44254 4.15193 0
      vertex 8.42022 4.30239 4.9
      vertex 8.42022 4.30239 0
    endloop
  endfacet
  facet normal -0.989177 -0.146729 0
    outer loop
      vertex 8.42022 4.30239 4.9
      vertex 8.44254 4.15193 0
      vertex 8.44254 4.15193 4.9
    endloop
  endfacet
  facet normal -0.903988 -0.427558 0
    outer loop
      vertex 8.33201 4.59316 0
      vertex 8.26698 4.73066 4.9
      vertex 8.26698 4.73066 0
    endloop
  endfacet
  facet normal -0.903988 -0.427558 0
    outer loop
      vertex 8.26698 4.73066 4.9
      vertex 8.33201 4.59316 0
      vertex 8.33201 4.59316 4.9
    endloop
  endfacet
  facet normal -0.857728 -0.514103 0
    outer loop
      vertex 8.26698 4.73066 0
      vertex 8.18878 4.86113 4.9
      vertex 8.18878 4.86113 0
    endloop
  endfacet
  facet normal -0.857728 -0.514103 0
    outer loop
      vertex 8.18878 4.86113 4.9
      vertex 8.26698 4.73066 0
      vertex 8.26698 4.73066 4.9
    endloop
  endfacet
  facet normal -0.803207 -0.5957 0
    outer loop
      vertex 8.18878 4.86113 0
      vertex 8.09817 4.98331 4.9
      vertex 8.09817 4.98331 0
    endloop
  endfacet
  facet normal -0.803207 -0.5957 0
    outer loop
      vertex 8.09817 4.98331 4.9
      vertex 8.18878 4.86113 0
      vertex 8.18878 4.86113 4.9
    endloop
  endfacet
  facet normal -0.242981 -0.970031 0
    outer loop
      vertex 7.20239 5.52022 0
      vertex 7.34994 5.48326 4.9
      vertex 7.20239 5.52022 4.9
    endloop
  endfacet
  facet normal -0.242981 -0.970031 -0
    outer loop
      vertex 7.34994 5.48326 4.9
      vertex 7.20239 5.52022 0
      vertex 7.34994 5.48326 0
    endloop
  endfacet
  facet normal -0.146728 -0.989177 0
    outer loop
      vertex 7.05193 5.54254 0
      vertex 7.20239 5.52022 4.9
      vertex 7.05193 5.54254 4.9
    endloop
  endfacet
  facet normal -0.146728 -0.989177 -0
    outer loop
      vertex 7.20239 5.52022 4.9
      vertex 7.05193 5.54254 0
      vertex 7.20239 5.52022 0
    endloop
  endfacet
  facet normal -0.0490664 -0.998796 0
    outer loop
      vertex 6.9 5.55 0
      vertex 7.05193 5.54254 4.9
      vertex 6.9 5.55 4.9
    endloop
  endfacet
  facet normal -0.0490664 -0.998796 -0
    outer loop
      vertex 7.05193 5.54254 4.9
      vertex 6.9 5.55 0
      vertex 7.05193 5.54254 0
    endloop
  endfacet
  facet normal -0.595697 -0.803209 0
    outer loop
      vertex 7.76113 5.28878 0
      vertex 7.88331 5.19817 4.9
      vertex 7.76113 5.28878 4.9
    endloop
  endfacet
  facet normal -0.595697 -0.803209 -0
    outer loop
      vertex 7.88331 5.19817 4.9
      vertex 7.76113 5.28878 0
      vertex 7.88331 5.19817 0
    endloop
  endfacet
  facet normal -0.514106 -0.857727 0
    outer loop
      vertex 7.63066 5.36698 0
      vertex 7.76113 5.28878 4.9
      vertex 7.63066 5.36698 4.9
    endloop
  endfacet
  facet normal -0.514106 -0.857727 -0
    outer loop
      vertex 7.76113 5.28878 4.9
      vertex 7.63066 5.36698 0
      vertex 7.76113 5.28878 0
    endloop
  endfacet
  facet normal 0.941545 -0.336887 0
    outer loop
      vertex 5.41674 4.44994 4.9
      vertex 5.46799 4.59316 0
      vertex 5.46799 4.59316 4.9
    endloop
  endfacet
  facet normal 0.941545 -0.336887 0
    outer loop
      vertex 5.46799 4.59316 0
      vertex 5.41674 4.44994 4.9
      vertex 5.41674 4.44994 0
    endloop
  endfacet
  facet normal 0.970031 -0.24298 0
    outer loop
      vertex 5.37978 4.30239 4.9
      vertex 5.41674 4.44994 0
      vertex 5.41674 4.44994 4.9
    endloop
  endfacet
  facet normal 0.970031 -0.24298 0
    outer loop
      vertex 5.41674 4.44994 0
      vertex 5.37978 4.30239 4.9
      vertex 5.37978 4.30239 0
    endloop
  endfacet
  facet normal 0.989176 -0.146735 0
    outer loop
      vertex 5.35746 4.15193 4.9
      vertex 5.37978 4.30239 0
      vertex 5.37978 4.30239 4.9
    endloop
  endfacet
  facet normal 0.989176 -0.146735 0
    outer loop
      vertex 5.37978 4.30239 0
      vertex 5.35746 4.15193 4.9
      vertex 5.35746 4.15193 0
    endloop
  endfacet
  facet normal 0.998796 -0.0490664 0
    outer loop
      vertex 5.35 4 4.9
      vertex 5.35746 4.15193 0
      vertex 5.35746 4.15193 4.9
    endloop
  endfacet
  facet normal 0.998796 -0.0490664 0
    outer loop
      vertex 5.35746 4.15193 0
      vertex 5.35 4 4.9
      vertex 5.35 4 0
    endloop
  endfacet
  facet normal 0.595697 -0.803209 0
    outer loop
      vertex 5.91669 5.19817 0
      vertex 6.03887 5.28878 4.9
      vertex 5.91669 5.19817 4.9
    endloop
  endfacet
  facet normal 0.595697 -0.803209 0
    outer loop
      vertex 6.03887 5.28878 4.9
      vertex 5.91669 5.19817 0
      vertex 6.03887 5.28878 0
    endloop
  endfacet
  facet normal 0.146729 -0.989177 0
    outer loop
      vertex 6.59761 5.52022 0
      vertex 6.74807 5.54254 4.9
      vertex 6.59761 5.52022 4.9
    endloop
  endfacet
  facet normal 0.146729 -0.989177 0
    outer loop
      vertex 6.74807 5.54254 4.9
      vertex 6.59761 5.52022 0
      vertex 6.74807 5.54254 0
    endloop
  endfacet
  facet normal 0.336893 -0.941543 0
    outer loop
      vertex 6.30684 5.43201 0
      vertex 6.45006 5.48326 4.9
      vertex 6.30684 5.43201 4.9
    endloop
  endfacet
  facet normal 0.336893 -0.941543 0
    outer loop
      vertex 6.45006 5.48326 4.9
      vertex 6.30684 5.43201 0
      vertex 6.45006 5.48326 0
    endloop
  endfacet
  facet normal 0.24298 -0.970031 0
    outer loop
      vertex 6.45006 5.48326 0
      vertex 6.59761 5.52022 4.9
      vertex 6.45006 5.48326 4.9
    endloop
  endfacet
  facet normal 0.24298 -0.970031 0
    outer loop
      vertex 6.59761 5.52022 4.9
      vertex 6.45006 5.48326 0
      vertex 6.59761 5.52022 0
    endloop
  endfacet
  facet normal -0.146728 0.989177 0
    outer loop
      vertex 7.20239 2.47978 0
      vertex 7.05193 2.45746 4.9
      vertex 7.20239 2.47978 4.9
    endloop
  endfacet
  facet normal -0.146728 0.989177 0
    outer loop
      vertex 7.05193 2.45746 4.9
      vertex 7.20239 2.47978 0
      vertex 7.05193 2.45746 0
    endloop
  endfacet
  facet normal -0.242981 0.970031 0
    outer loop
      vertex 7.34994 2.51674 0
      vertex 7.20239 2.47978 4.9
      vertex 7.34994 2.51674 4.9
    endloop
  endfacet
  facet normal -0.242981 0.970031 0
    outer loop
      vertex 7.20239 2.47978 4.9
      vertex 7.34994 2.51674 0
      vertex 7.20239 2.47978 0
    endloop
  endfacet
  facet normal -0.514106 0.857727 0
    outer loop
      vertex 7.76113 2.71122 0
      vertex 7.63066 2.63302 4.9
      vertex 7.76113 2.71122 4.9
    endloop
  endfacet
  facet normal -0.514106 0.857727 0
    outer loop
      vertex 7.63066 2.63302 4.9
      vertex 7.76113 2.71122 0
      vertex 7.63066 2.63302 0
    endloop
  endfacet
  facet normal -0.671562 0.740948 0
    outer loop
      vertex 7.99601 2.90398 0
      vertex 7.88331 2.80183 4.9
      vertex 7.99601 2.90398 4.9
    endloop
  endfacet
  facet normal -0.671562 0.740948 0
    outer loop
      vertex 7.88331 2.80183 4.9
      vertex 7.99601 2.90398 0
      vertex 7.88331 2.80183 0
    endloop
  endfacet
  facet normal -0.803207 0.5957 0
    outer loop
      vertex 8.09817 3.01669 0
      vertex 8.18878 3.13887 4.9
      vertex 8.18878 3.13887 0
    endloop
  endfacet
  facet normal -0.803207 0.5957 0
    outer loop
      vertex 8.18878 3.13887 4.9
      vertex 8.09817 3.01669 0
      vertex 8.09817 3.01669 4.9
    endloop
  endfacet
  facet normal -0.857728 0.514103 0
    outer loop
      vertex 8.18878 3.13887 0
      vertex 8.26698 3.26933 4.9
      vertex 8.26698 3.26933 0
    endloop
  endfacet
  facet normal -0.857728 0.514103 0
    outer loop
      vertex 8.26698 3.26933 4.9
      vertex 8.18878 3.13887 0
      vertex 8.18878 3.13887 4.9
    endloop
  endfacet
  facet normal 0.0490661 0.998796 -0
    outer loop
      vertex 6.9 2.45 0
      vertex 6.74807 2.45746 4.9
      vertex 6.9 2.45 4.9
    endloop
  endfacet
  facet normal 0.0490661 0.998796 0
    outer loop
      vertex 6.74807 2.45746 4.9
      vertex 6.9 2.45 0
      vertex 6.74807 2.45746 0
    endloop
  endfacet
  facet normal 0.595697 0.803209 -0
    outer loop
      vertex 6.03887 2.71122 0
      vertex 5.91669 2.80183 4.9
      vertex 6.03887 2.71122 4.9
    endloop
  endfacet
  facet normal 0.595697 0.803209 0
    outer loop
      vertex 5.91669 2.80183 4.9
      vertex 6.03887 2.71122 0
      vertex 5.91669 2.80183 0
    endloop
  endfacet
  facet normal -0.0490664 0.998796 0
    outer loop
      vertex 7.05193 2.45746 0
      vertex 6.9 2.45 4.9
      vertex 7.05193 2.45746 4.9
    endloop
  endfacet
  facet normal -0.0490664 0.998796 0
    outer loop
      vertex 6.9 2.45 4.9
      vertex 7.05193 2.45746 0
      vertex 6.9 2.45 0
    endloop
  endfacet
  facet normal 0.514106 0.857727 -0
    outer loop
      vertex 6.16933 2.63302 0
      vertex 6.03887 2.71122 4.9
      vertex 6.16933 2.63302 4.9
    endloop
  endfacet
  facet normal 0.514106 0.857727 0
    outer loop
      vertex 6.03887 2.71122 4.9
      vertex 6.16933 2.63302 0
      vertex 6.03887 2.71122 0
    endloop
  endfacet
  facet normal 0.671559 0.740951 -0
    outer loop
      vertex 5.91669 2.80183 0
      vertex 5.80398 2.90398 4.9
      vertex 5.91669 2.80183 4.9
    endloop
  endfacet
  facet normal 0.671559 0.740951 0
    outer loop
      vertex 5.80398 2.90398 4.9
      vertex 5.91669 2.80183 0
      vertex 5.80398 2.90398 0
    endloop
  endfacet
  facet normal 0.857731 0.514098 0
    outer loop
      vertex 5.61122 3.13887 4.9
      vertex 5.53302 3.26933 0
      vertex 5.53302 3.26933 4.9
    endloop
  endfacet
  facet normal 0.857731 0.514098 0
    outer loop
      vertex 5.53302 3.26933 0
      vertex 5.61122 3.13887 4.9
      vertex 5.61122 3.13887 0
    endloop
  endfacet
  facet normal 0.941545 0.336887 0
    outer loop
      vertex 5.46799 3.40684 4.9
      vertex 5.41674 3.55006 0
      vertex 5.41674 3.55006 4.9
    endloop
  endfacet
  facet normal 0.941545 0.336887 0
    outer loop
      vertex 5.41674 3.55006 0
      vertex 5.46799 3.40684 4.9
      vertex 5.46799 3.40684 0
    endloop
  endfacet
  facet normal 0.989176 0.146735 0
    outer loop
      vertex 5.37978 3.69761 4.9
      vertex 5.35746 3.84807 0
      vertex 5.35746 3.84807 4.9
    endloop
  endfacet
  facet normal 0.989176 0.146735 0
    outer loop
      vertex 5.35746 3.84807 0
      vertex 5.37978 3.69761 4.9
      vertex 5.37978 3.69761 0
    endloop
  endfacet
  facet normal 0.903988 0.427558 0
    outer loop
      vertex 5.53302 3.26933 4.9
      vertex 5.46799 3.40684 0
      vertex 5.46799 3.40684 4.9
    endloop
  endfacet
  facet normal 0.903988 0.427558 0
    outer loop
      vertex 5.46799 3.40684 0
      vertex 5.53302 3.26933 4.9
      vertex 5.53302 3.26933 0
    endloop
  endfacet
  facet normal -0.740951 -0.671559 0
    outer loop
      vertex 8.09817 4.98331 0
      vertex 7.99601 5.09601 4.9
      vertex 7.99601 5.09601 0
    endloop
  endfacet
  facet normal -0.740951 -0.671559 0
    outer loop
      vertex 7.99601 5.09601 4.9
      vertex 8.09817 4.98331 0
      vertex 8.09817 4.98331 4.9
    endloop
  endfacet
  facet normal -0.427553 -0.90399 0
    outer loop
      vertex 7.49316 5.43201 0
      vertex 7.63066 5.36698 4.9
      vertex 7.49316 5.43201 4.9
    endloop
  endfacet
  facet normal -0.427553 -0.90399 -0
    outer loop
      vertex 7.63066 5.36698 4.9
      vertex 7.49316 5.43201 0
      vertex 7.63066 5.36698 0
    endloop
  endfacet
  facet normal 0.803204 -0.595704 0
    outer loop
      vertex 5.61122 4.86113 4.9
      vertex 5.70183 4.98331 0
      vertex 5.70183 4.98331 4.9
    endloop
  endfacet
  facet normal 0.803204 -0.595704 0
    outer loop
      vertex 5.70183 4.98331 0
      vertex 5.61122 4.86113 4.9
      vertex 5.61122 4.86113 0
    endloop
  endfacet
  facet normal 0.671559 -0.740951 0
    outer loop
      vertex 5.80398 5.09601 0
      vertex 5.91669 5.19817 4.9
      vertex 5.80398 5.09601 4.9
    endloop
  endfacet
  facet normal 0.671559 -0.740951 0
    outer loop
      vertex 5.91669 5.19817 4.9
      vertex 5.80398 5.09601 0
      vertex 5.91669 5.19817 0
    endloop
  endfacet
  facet normal 0.514106 -0.857727 0
    outer loop
      vertex 6.03887 5.28878 0
      vertex 6.16933 5.36698 4.9
      vertex 6.03887 5.28878 4.9
    endloop
  endfacet
  facet normal 0.514106 -0.857727 0
    outer loop
      vertex 6.16933 5.36698 4.9
      vertex 6.03887 5.28878 0
      vertex 6.16933 5.36698 0
    endloop
  endfacet
  facet normal -0.427553 0.90399 0
    outer loop
      vertex 7.63066 2.63302 0
      vertex 7.49316 2.56799 4.9
      vertex 7.63066 2.63302 4.9
    endloop
  endfacet
  facet normal -0.427553 0.90399 0
    outer loop
      vertex 7.49316 2.56799 4.9
      vertex 7.63066 2.63302 0
      vertex 7.49316 2.56799 0
    endloop
  endfacet
  facet normal -0.595697 0.803209 0
    outer loop
      vertex 7.88331 2.80183 0
      vertex 7.76113 2.71122 4.9
      vertex 7.88331 2.80183 4.9
    endloop
  endfacet
  facet normal -0.595697 0.803209 0
    outer loop
      vertex 7.76113 2.71122 4.9
      vertex 7.88331 2.80183 0
      vertex 7.76113 2.71122 0
    endloop
  endfacet
  facet normal -0.941545 0.336887 0
    outer loop
      vertex 8.33201 3.40684 0
      vertex 8.38326 3.55006 4.9
      vertex 8.38326 3.55006 0
    endloop
  endfacet
  facet normal -0.941545 0.336887 0
    outer loop
      vertex 8.38326 3.55006 4.9
      vertex 8.33201 3.40684 0
      vertex 8.33201 3.40684 4.9
    endloop
  endfacet
  facet normal -0.989177 0.146729 0
    outer loop
      vertex 8.42022 3.69761 0
      vertex 8.44254 3.84807 4.9
      vertex 8.44254 3.84807 0
    endloop
  endfacet
  facet normal -0.989177 0.146729 0
    outer loop
      vertex 8.44254 3.84807 4.9
      vertex 8.42022 3.69761 0
      vertex 8.42022 3.69761 4.9
    endloop
  endfacet
  facet normal -0.998795 0.0490724 0
    outer loop
      vertex 8.44254 3.84807 0
      vertex 8.45 4 4.9
      vertex 8.45 4 0
    endloop
  endfacet
  facet normal -0.998795 0.0490724 0
    outer loop
      vertex 8.45 4 4.9
      vertex 8.44254 3.84807 0
      vertex 8.44254 3.84807 4.9
    endloop
  endfacet
  facet normal 0.146729 0.989177 -0
    outer loop
      vertex 6.74807 2.45746 0
      vertex 6.59761 2.47978 4.9
      vertex 6.74807 2.45746 4.9
    endloop
  endfacet
  facet normal 0.146729 0.989177 0
    outer loop
      vertex 6.59761 2.47978 4.9
      vertex 6.74807 2.45746 0
      vertex 6.59761 2.47978 0
    endloop
  endfacet
  facet normal 0.336893 0.941543 -0
    outer loop
      vertex 6.45006 2.51674 0
      vertex 6.30684 2.56799 4.9
      vertex 6.45006 2.51674 4.9
    endloop
  endfacet
  facet normal 0.336893 0.941543 0
    outer loop
      vertex 6.30684 2.56799 4.9
      vertex 6.45006 2.51674 0
      vertex 6.30684 2.56799 0
    endloop
  endfacet
  facet normal 0.803204 0.595704 0
    outer loop
      vertex 5.70183 3.01669 4.9
      vertex 5.61122 3.13887 0
      vertex 5.61122 3.13887 4.9
    endloop
  endfacet
  facet normal 0.803204 0.595704 0
    outer loop
      vertex 5.61122 3.13887 0
      vertex 5.70183 3.01669 4.9
      vertex 5.70183 3.01669 0
    endloop
  endfacet
  facet normal 0.970031 0.24298 0
    outer loop
      vertex 5.41674 3.55006 4.9
      vertex 5.37978 3.69761 0
      vertex 5.37978 3.69761 4.9
    endloop
  endfacet
  facet normal 0.970031 0.24298 0
    outer loop
      vertex 5.37978 3.69761 0
      vertex 5.41674 3.55006 4.9
      vertex 5.41674 3.55006 0
    endloop
  endfacet
  facet normal -0.998795 0.0490721 0
    outer loop
      vertex 8.44254 32.0481 0
      vertex 8.45 32.2 4.9
      vertex 8.45 32.2 0
    endloop
  endfacet
  facet normal -0.998795 0.0490721 0
    outer loop
      vertex 8.45 32.2 4.9
      vertex 8.44254 32.0481 0
      vertex 8.44254 32.0481 4.9
    endloop
  endfacet
  facet normal -0.51411 -0.857724 0
    outer loop
      vertex 7.63066 33.567 0
      vertex 7.76113 33.4888 4.9
      vertex 7.63066 33.567 4.9
    endloop
  endfacet
  facet normal -0.51411 -0.857724 -0
    outer loop
      vertex 7.76113 33.4888 4.9
      vertex 7.63066 33.567 0
      vertex 7.76113 33.4888 0
    endloop
  endfacet
  facet normal 0.427543 -0.903995 0
    outer loop
      vertex 6.16933 33.567 0
      vertex 6.30684 33.632 4.9
      vertex 6.16933 33.567 4.9
    endloop
  endfacet
  facet normal 0.427543 -0.903995 0
    outer loop
      vertex 6.30684 33.632 4.9
      vertex 6.16933 33.567 0
      vertex 6.30684 33.632 0
    endloop
  endfacet
  facet normal 0.941546 -0.336885 0
    outer loop
      vertex 5.41674 32.6499 4.9
      vertex 5.46799 32.7932 0
      vertex 5.46799 32.7932 4.9
    endloop
  endfacet
  facet normal 0.941546 -0.336885 0
    outer loop
      vertex 5.46799 32.7932 0
      vertex 5.41674 32.6499 4.9
      vertex 5.41674 32.6499 0
    endloop
  endfacet
  facet normal 0.85773 0.514101 0
    outer loop
      vertex 5.61122 31.3389 4.9
      vertex 5.53302 31.4693 0
      vertex 5.53302 31.4693 4.9
    endloop
  endfacet
  facet normal 0.85773 0.514101 0
    outer loop
      vertex 5.53302 31.4693 0
      vertex 5.61122 31.3389 4.9
      vertex 5.61122 31.3389 0
    endloop
  endfacet
  facet normal -0.970032 -0.242978 0
    outer loop
      vertex 8.42022 32.5024 0
      vertex 8.38326 32.6499 4.9
      vertex 8.38326 32.6499 0
    endloop
  endfacet
  facet normal -0.970032 -0.242978 0
    outer loop
      vertex 8.38326 32.6499 4.9
      vertex 8.42022 32.5024 0
      vertex 8.42022 32.5024 4.9
    endloop
  endfacet
  facet normal -0.941546 -0.336885 0
    outer loop
      vertex 8.38326 32.6499 0
      vertex 8.33201 32.7932 4.9
      vertex 8.33201 32.7932 0
    endloop
  endfacet
  facet normal -0.941546 -0.336885 0
    outer loop
      vertex 8.33201 32.7932 4.9
      vertex 8.38326 32.6499 0
      vertex 8.38326 32.6499 4.9
    endloop
  endfacet
  facet normal -0.740937 -0.671575 0
    outer loop
      vertex 8.09817 33.1833 0
      vertex 7.99601 33.296 4.9
      vertex 7.99601 33.296 0
    endloop
  endfacet
  facet normal -0.740937 -0.671575 0
    outer loop
      vertex 7.99601 33.296 4.9
      vertex 8.09817 33.1833 0
      vertex 8.09817 33.1833 4.9
    endloop
  endfacet
  facet normal -0.427543 -0.903995 0
    outer loop
      vertex 7.49316 33.632 0
      vertex 7.63066 33.567 4.9
      vertex 7.49316 33.632 4.9
    endloop
  endfacet
  facet normal -0.427543 -0.903995 -0
    outer loop
      vertex 7.63066 33.567 4.9
      vertex 7.49316 33.632 0
      vertex 7.63066 33.567 0
    endloop
  endfacet
  facet normal 0.998796 0.0490658 0
    outer loop
      vertex 5.35746 32.0481 4.9
      vertex 5.35 32.2 0
      vertex 5.35 32.2 4.9
    endloop
  endfacet
  facet normal 0.998796 0.0490658 0
    outer loop
      vertex 5.35 32.2 0
      vertex 5.35746 32.0481 4.9
      vertex 5.35746 32.0481 0
    endloop
  endfacet
  facet normal 0.671569 -0.740942 0
    outer loop
      vertex 5.80398 33.296 0
      vertex 5.91669 33.3982 4.9
      vertex 5.80398 33.296 4.9
    endloop
  endfacet
  facet normal 0.671569 -0.740942 0
    outer loop
      vertex 5.91669 33.3982 4.9
      vertex 5.80398 33.296 0
      vertex 5.91669 33.3982 0
    endloop
  endfacet
  facet normal -0.803207 0.5957 0
    outer loop
      vertex 8.09817 31.2167 0
      vertex 8.18878 31.3389 4.9
      vertex 8.18878 31.3389 0
    endloop
  endfacet
  facet normal -0.803207 0.5957 0
    outer loop
      vertex 8.18878 31.3389 4.9
      vertex 8.09817 31.2167 0
      vertex 8.09817 31.2167 4.9
    endloop
  endfacet
  facet normal -0.336891 0.941544 0
    outer loop
      vertex 7.49316 30.768 0
      vertex 7.34994 30.7167 4.9
      vertex 7.49316 30.768 4.9
    endloop
  endfacet
  facet normal -0.336891 0.941544 0
    outer loop
      vertex 7.34994 30.7167 4.9
      vertex 7.49316 30.768 0
      vertex 7.34994 30.7167 0
    endloop
  endfacet
  facet normal -0.740948 0.671562 0
    outer loop
      vertex 7.99601 31.104 0
      vertex 8.09817 31.2167 4.9
      vertex 8.09817 31.2167 0
    endloop
  endfacet
  facet normal -0.740948 0.671562 0
    outer loop
      vertex 8.09817 31.2167 4.9
      vertex 7.99601 31.104 0
      vertex 7.99601 31.104 4.9
    endloop
  endfacet
  facet normal -0.0490664 0.998796 0
    outer loop
      vertex 7.05193 30.6575 0
      vertex 6.9 30.65 4.9
      vertex 7.05193 30.6575 4.9
    endloop
  endfacet
  facet normal -0.0490664 0.998796 0
    outer loop
      vertex 6.9 30.65 4.9
      vertex 7.05193 30.6575 0
      vertex 6.9 30.65 0
    endloop
  endfacet
  facet normal 0.427553 0.90399 -0
    outer loop
      vertex 6.30684 30.768 0
      vertex 6.16933 30.833 4.9
      vertex 6.30684 30.768 4.9
    endloop
  endfacet
  facet normal 0.427553 0.90399 0
    outer loop
      vertex 6.16933 30.833 4.9
      vertex 6.30684 30.768 0
      vertex 6.16933 30.833 0
    endloop
  endfacet
  facet normal -0.989177 -0.146729 0
    outer loop
      vertex 8.44254 32.3519 0
      vertex 8.42022 32.5024 4.9
      vertex 8.42022 32.5024 0
    endloop
  endfacet
  facet normal -0.989177 -0.146729 0
    outer loop
      vertex 8.42022 32.5024 4.9
      vertex 8.44254 32.3519 0
      vertex 8.44254 32.3519 4.9
    endloop
  endfacet
  facet normal -0.903987 -0.42756 0
    outer loop
      vertex 8.33201 32.7932 0
      vertex 8.26698 32.9307 4.9
      vertex 8.26698 32.9307 0
    endloop
  endfacet
  facet normal -0.903987 -0.42756 0
    outer loop
      vertex 8.26698 32.9307 4.9
      vertex 8.33201 32.7932 0
      vertex 8.33201 32.7932 4.9
    endloop
  endfacet
  facet normal -0.85773 -0.5141 0
    outer loop
      vertex 8.26698 32.9307 0
      vertex 8.18878 33.0611 4.9
      vertex 8.18878 33.0611 0
    endloop
  endfacet
  facet normal -0.85773 -0.5141 0
    outer loop
      vertex 8.18878 33.0611 4.9
      vertex 8.26698 32.9307 0
      vertex 8.26698 32.9307 4.9
    endloop
  endfacet
  facet normal -0.803212 -0.595694 0
    outer loop
      vertex 8.18878 33.0611 0
      vertex 8.09817 33.1833 4.9
      vertex 8.09817 33.1833 0
    endloop
  endfacet
  facet normal -0.803212 -0.595694 0
    outer loop
      vertex 8.09817 33.1833 4.9
      vertex 8.18878 33.0611 0
      vertex 8.18878 33.0611 4.9
    endloop
  endfacet
  facet normal -0.671572 -0.740939 0
    outer loop
      vertex 7.88331 33.3982 0
      vertex 7.99601 33.296 4.9
      vertex 7.88331 33.3982 4.9
    endloop
  endfacet
  facet normal -0.671572 -0.740939 -0
    outer loop
      vertex 7.99601 33.296 4.9
      vertex 7.88331 33.3982 0
      vertex 7.99601 33.296 0
    endloop
  endfacet
  facet normal 0.0490786 -0.998795 0
    outer loop
      vertex 6.74807 33.7425 0
      vertex 6.9 33.75 4.9
      vertex 6.74807 33.7425 4.9
    endloop
  endfacet
  facet normal 0.0490786 -0.998795 0
    outer loop
      vertex 6.9 33.75 4.9
      vertex 6.74807 33.7425 0
      vertex 6.9 33.75 0
    endloop
  endfacet
  facet normal -0.336902 -0.94154 0
    outer loop
      vertex 7.34994 33.6833 0
      vertex 7.49316 33.632 4.9
      vertex 7.34994 33.6833 4.9
    endloop
  endfacet
  facet normal -0.336902 -0.94154 -0
    outer loop
      vertex 7.49316 33.632 4.9
      vertex 7.34994 33.6833 0
      vertex 7.49316 33.632 0
    endloop
  endfacet
  facet normal -0.242963 -0.970035 0
    outer loop
      vertex 7.20239 33.7202 0
      vertex 7.34994 33.6833 4.9
      vertex 7.20239 33.7202 4.9
    endloop
  endfacet
  facet normal -0.242963 -0.970035 -0
    outer loop
      vertex 7.34994 33.6833 4.9
      vertex 7.20239 33.7202 0
      vertex 7.34994 33.6833 0
    endloop
  endfacet
  facet normal -0.146734 -0.989176 0
    outer loop
      vertex 7.05193 33.7425 0
      vertex 7.20239 33.7202 4.9
      vertex 7.05193 33.7425 4.9
    endloop
  endfacet
  facet normal -0.146734 -0.989176 -0
    outer loop
      vertex 7.20239 33.7202 4.9
      vertex 7.05193 33.7425 0
      vertex 7.20239 33.7202 0
    endloop
  endfacet
  facet normal 0.989176 -0.146735 0
    outer loop
      vertex 5.35746 32.3519 4.9
      vertex 5.37978 32.5024 0
      vertex 5.37978 32.5024 4.9
    endloop
  endfacet
  facet normal 0.989176 -0.146735 0
    outer loop
      vertex 5.37978 32.5024 0
      vertex 5.35746 32.3519 4.9
      vertex 5.35746 32.3519 0
    endloop
  endfacet
  facet normal 0.803209 -0.595698 0
    outer loop
      vertex 5.61122 33.0611 4.9
      vertex 5.70183 33.1833 0
      vertex 5.70183 33.1833 4.9
    endloop
  endfacet
  facet normal 0.803209 -0.595698 0
    outer loop
      vertex 5.70183 33.1833 0
      vertex 5.61122 33.0611 4.9
      vertex 5.61122 33.0611 0
    endloop
  endfacet
  facet normal 0.903987 -0.42756 0
    outer loop
      vertex 5.46799 32.7932 4.9
      vertex 5.53302 32.9307 0
      vertex 5.53302 32.9307 4.9
    endloop
  endfacet
  facet normal 0.903987 -0.42756 0
    outer loop
      vertex 5.53302 32.9307 0
      vertex 5.46799 32.7932 4.9
      vertex 5.46799 32.7932 0
    endloop
  endfacet
  facet normal 0.857733 -0.514096 0
    outer loop
      vertex 5.53302 32.9307 4.9
      vertex 5.61122 33.0611 0
      vertex 5.61122 33.0611 4.9
    endloop
  endfacet
  facet normal 0.857733 -0.514096 0
    outer loop
      vertex 5.61122 33.0611 0
      vertex 5.53302 32.9307 4.9
      vertex 5.53302 32.9307 0
    endloop
  endfacet
  facet normal 0.146735 -0.989176 0
    outer loop
      vertex 6.59761 33.7202 0
      vertex 6.74807 33.7425 4.9
      vertex 6.59761 33.7202 4.9
    endloop
  endfacet
  facet normal 0.146735 -0.989176 0
    outer loop
      vertex 6.74807 33.7425 4.9
      vertex 6.59761 33.7202 0
      vertex 6.74807 33.7425 0
    endloop
  endfacet
  facet normal 0.242962 -0.970036 0
    outer loop
      vertex 6.45006 33.6833 0
      vertex 6.59761 33.7202 4.9
      vertex 6.45006 33.6833 4.9
    endloop
  endfacet
  facet normal 0.242962 -0.970036 0
    outer loop
      vertex 6.59761 33.7202 4.9
      vertex 6.45006 33.6833 0
      vertex 6.59761 33.7202 0
    endloop
  endfacet
  facet normal 0.51411 -0.857724 0
    outer loop
      vertex 6.03887 33.4888 0
      vertex 6.16933 33.567 4.9
      vertex 6.03887 33.4888 4.9
    endloop
  endfacet
  facet normal 0.51411 -0.857724 0
    outer loop
      vertex 6.16933 33.567 4.9
      vertex 6.03887 33.4888 0
      vertex 6.16933 33.567 0
    endloop
  endfacet
  facet normal 0.595693 -0.803212 0
    outer loop
      vertex 5.91669 33.3982 0
      vertex 6.03887 33.4888 4.9
      vertex 5.91669 33.3982 4.9
    endloop
  endfacet
  facet normal 0.595693 -0.803212 0
    outer loop
      vertex 6.03887 33.4888 4.9
      vertex 5.91669 33.3982 0
      vertex 6.03887 33.4888 0
    endloop
  endfacet
  facet normal 0.74094 -0.671571 0
    outer loop
      vertex 5.70183 33.1833 4.9
      vertex 5.80398 33.296 0
      vertex 5.80398 33.296 4.9
    endloop
  endfacet
  facet normal 0.74094 -0.671571 0
    outer loop
      vertex 5.80398 33.296 0
      vertex 5.70183 33.1833 4.9
      vertex 5.70183 33.1833 0
    endloop
  endfacet
  facet normal -0.998795 -0.0490733 0
    outer loop
      vertex 8.45 32.2 0
      vertex 8.44254 32.3519 4.9
      vertex 8.44254 32.3519 0
    endloop
  endfacet
  facet normal -0.998795 -0.0490733 0
    outer loop
      vertex 8.44254 32.3519 4.9
      vertex 8.45 32.2 0
      vertex 8.45 32.2 4.9
    endloop
  endfacet
  facet normal -0.970032 0.242978 0
    outer loop
      vertex 8.38326 31.7501 0
      vertex 8.42022 31.8976 4.9
      vertex 8.42022 31.8976 0
    endloop
  endfacet
  facet normal -0.970032 0.242978 0
    outer loop
      vertex 8.42022 31.8976 4.9
      vertex 8.38326 31.7501 0
      vertex 8.38326 31.7501 4.9
    endloop
  endfacet
  facet normal -0.146734 0.989176 0
    outer loop
      vertex 7.20239 30.6798 0
      vertex 7.05193 30.6575 4.9
      vertex 7.20239 30.6798 4.9
    endloop
  endfacet
  facet normal -0.146734 0.989176 0
    outer loop
      vertex 7.05193 30.6575 4.9
      vertex 7.20239 30.6798 0
      vertex 7.05193 30.6575 0
    endloop
  endfacet
  facet normal -0.941544 0.336889 0
    outer loop
      vertex 8.33201 31.6068 0
      vertex 8.38326 31.7501 4.9
      vertex 8.38326 31.7501 0
    endloop
  endfacet
  facet normal -0.941544 0.336889 0
    outer loop
      vertex 8.38326 31.7501 4.9
      vertex 8.33201 31.6068 0
      vertex 8.33201 31.6068 4.9
    endloop
  endfacet
  facet normal -0.857727 0.514106 0
    outer loop
      vertex 8.18878 31.3389 0
      vertex 8.26698 31.4693 4.9
      vertex 8.26698 31.4693 0
    endloop
  endfacet
  facet normal -0.857727 0.514106 0
    outer loop
      vertex 8.26698 31.4693 4.9
      vertex 8.18878 31.3389 0
      vertex 8.18878 31.3389 4.9
    endloop
  endfacet
  facet normal -0.242975 0.970032 0
    outer loop
      vertex 7.34994 30.7167 0
      vertex 7.20239 30.6798 4.9
      vertex 7.34994 30.7167 4.9
    endloop
  endfacet
  facet normal -0.242975 0.970032 0
    outer loop
      vertex 7.20239 30.6798 4.9
      vertex 7.34994 30.7167 0
      vertex 7.20239 30.6798 0
    endloop
  endfacet
  facet normal -0.514101 0.85773 0
    outer loop
      vertex 7.76113 30.9112 0
      vertex 7.63066 30.833 4.9
      vertex 7.76113 30.9112 4.9
    endloop
  endfacet
  facet normal -0.514101 0.85773 0
    outer loop
      vertex 7.63066 30.833 4.9
      vertex 7.76113 30.9112 0
      vertex 7.63066 30.833 0
    endloop
  endfacet
  facet normal -0.671565 0.740945 0
    outer loop
      vertex 7.99601 31.104 0
      vertex 7.88331 31.0018 4.9
      vertex 7.99601 31.104 4.9
    endloop
  endfacet
  facet normal -0.671565 0.740945 0
    outer loop
      vertex 7.88331 31.0018 4.9
      vertex 7.99601 31.104 0
      vertex 7.88331 31.0018 0
    endloop
  endfacet
  facet normal 0.146735 0.989176 -0
    outer loop
      vertex 6.74807 30.6575 0
      vertex 6.59761 30.6798 4.9
      vertex 6.74807 30.6575 4.9
    endloop
  endfacet
  facet normal 0.146735 0.989176 0
    outer loop
      vertex 6.59761 30.6798 4.9
      vertex 6.74807 30.6575 0
      vertex 6.59761 30.6798 0
    endloop
  endfacet
  facet normal 0.242974 0.970033 -0
    outer loop
      vertex 6.59761 30.6798 0
      vertex 6.45006 30.7167 4.9
      vertex 6.59761 30.6798 4.9
    endloop
  endfacet
  facet normal 0.242974 0.970033 0
    outer loop
      vertex 6.45006 30.7167 4.9
      vertex 6.59761 30.6798 0
      vertex 6.45006 30.7167 0
    endloop
  endfacet
  facet normal 0.0490661 0.998796 -0
    outer loop
      vertex 6.9 30.65 0
      vertex 6.74807 30.6575 4.9
      vertex 6.9 30.65 4.9
    endloop
  endfacet
  facet normal 0.0490661 0.998796 0
    outer loop
      vertex 6.74807 30.6575 4.9
      vertex 6.9 30.65 0
      vertex 6.74807 30.6575 0
    endloop
  endfacet
  facet normal 0.336893 0.941543 -0
    outer loop
      vertex 6.45006 30.7167 0
      vertex 6.30684 30.768 4.9
      vertex 6.45006 30.7167 4.9
    endloop
  endfacet
  facet normal 0.336893 0.941543 0
    outer loop
      vertex 6.30684 30.768 4.9
      vertex 6.45006 30.7167 0
      vertex 6.30684 30.768 0
    endloop
  endfacet
  facet normal 0.595701 0.803206 -0
    outer loop
      vertex 6.03887 30.9112 0
      vertex 5.91669 31.0018 4.9
      vertex 6.03887 30.9112 4.9
    endloop
  endfacet
  facet normal 0.595701 0.803206 0
    outer loop
      vertex 5.91669 31.0018 4.9
      vertex 6.03887 30.9112 0
      vertex 5.91669 31.0018 0
    endloop
  endfacet
  facet normal 0.941544 0.336889 0
    outer loop
      vertex 5.46799 31.6068 4.9
      vertex 5.41674 31.7501 0
      vertex 5.41674 31.7501 4.9
    endloop
  endfacet
  facet normal 0.941544 0.336889 0
    outer loop
      vertex 5.41674 31.7501 0
      vertex 5.46799 31.6068 4.9
      vertex 5.46799 31.6068 0
    endloop
  endfacet
  facet normal 0.989176 0.146735 0
    outer loop
      vertex 5.37978 31.8976 4.9
      vertex 5.35746 32.0481 0
      vertex 5.35746 32.0481 4.9
    endloop
  endfacet
  facet normal 0.989176 0.146735 0
    outer loop
      vertex 5.35746 32.0481 0
      vertex 5.37978 31.8976 4.9
      vertex 5.37978 31.8976 0
    endloop
  endfacet
  facet normal 0.740951 0.671559 0
    outer loop
      vertex 5.80398 31.104 4.9
      vertex 5.70183 31.2167 0
      vertex 5.70183 31.2167 4.9
    endloop
  endfacet
  facet normal 0.740951 0.671559 0
    outer loop
      vertex 5.70183 31.2167 0
      vertex 5.80398 31.104 4.9
      vertex 5.80398 31.104 0
    endloop
  endfacet
  facet normal -0.595693 -0.803212 0
    outer loop
      vertex 7.76113 33.4888 0
      vertex 7.88331 33.3982 4.9
      vertex 7.76113 33.4888 4.9
    endloop
  endfacet
  facet normal -0.595693 -0.803212 -0
    outer loop
      vertex 7.88331 33.3982 4.9
      vertex 7.76113 33.4888 0
      vertex 7.88331 33.3982 0
    endloop
  endfacet
  facet normal -0.0490789 -0.998795 0
    outer loop
      vertex 6.9 33.75 0
      vertex 7.05193 33.7425 4.9
      vertex 6.9 33.75 4.9
    endloop
  endfacet
  facet normal -0.0490789 -0.998795 -0
    outer loop
      vertex 7.05193 33.7425 4.9
      vertex 6.9 33.75 0
      vertex 7.05193 33.7425 0
    endloop
  endfacet
  facet normal 0.998795 -0.049067 0
    outer loop
      vertex 5.35 32.2 4.9
      vertex 5.35746 32.3519 0
      vertex 5.35746 32.3519 4.9
    endloop
  endfacet
  facet normal 0.998795 -0.049067 0
    outer loop
      vertex 5.35746 32.3519 0
      vertex 5.35 32.2 4.9
      vertex 5.35 32.2 0
    endloop
  endfacet
  facet normal 0.970032 -0.242978 0
    outer loop
      vertex 5.37978 32.5024 4.9
      vertex 5.41674 32.6499 0
      vertex 5.41674 32.6499 4.9
    endloop
  endfacet
  facet normal 0.970032 -0.242978 0
    outer loop
      vertex 5.41674 32.6499 0
      vertex 5.37978 32.5024 4.9
      vertex 5.37978 32.5024 0
    endloop
  endfacet
  facet normal 0.336904 -0.941539 0
    outer loop
      vertex 6.30684 33.632 0
      vertex 6.45006 33.6833 4.9
      vertex 6.30684 33.632 4.9
    endloop
  endfacet
  facet normal 0.336904 -0.941539 0
    outer loop
      vertex 6.45006 33.6833 4.9
      vertex 6.30684 33.632 0
      vertex 6.45006 33.6833 0
    endloop
  endfacet
  facet normal -0.903989 0.427556 0
    outer loop
      vertex 8.26698 31.4693 0
      vertex 8.33201 31.6068 4.9
      vertex 8.33201 31.6068 0
    endloop
  endfacet
  facet normal -0.903989 0.427556 0
    outer loop
      vertex 8.33201 31.6068 4.9
      vertex 8.26698 31.4693 0
      vertex 8.26698 31.4693 4.9
    endloop
  endfacet
  facet normal -0.427553 0.90399 0
    outer loop
      vertex 7.63066 30.833 0
      vertex 7.49316 30.768 4.9
      vertex 7.63066 30.833 4.9
    endloop
  endfacet
  facet normal -0.427553 0.90399 0
    outer loop
      vertex 7.49316 30.768 4.9
      vertex 7.63066 30.833 0
      vertex 7.49316 30.768 0
    endloop
  endfacet
  facet normal -0.595701 0.803206 0
    outer loop
      vertex 7.88331 31.0018 0
      vertex 7.76113 30.9112 4.9
      vertex 7.88331 31.0018 4.9
    endloop
  endfacet
  facet normal -0.595701 0.803206 0
    outer loop
      vertex 7.76113 30.9112 4.9
      vertex 7.88331 31.0018 0
      vertex 7.76113 30.9112 0
    endloop
  endfacet
  facet normal 0.514101 0.85773 -0
    outer loop
      vertex 6.16933 30.833 0
      vertex 6.03887 30.9112 4.9
      vertex 6.16933 30.833 4.9
    endloop
  endfacet
  facet normal 0.514101 0.85773 0
    outer loop
      vertex 6.03887 30.9112 4.9
      vertex 6.16933 30.833 0
      vertex 6.03887 30.9112 0
    endloop
  endfacet
  facet normal 0.970032 0.242978 0
    outer loop
      vertex 5.41674 31.7501 4.9
      vertex 5.37978 31.8976 0
      vertex 5.37978 31.8976 4.9
    endloop
  endfacet
  facet normal 0.970032 0.242978 0
    outer loop
      vertex 5.37978 31.8976 0
      vertex 5.41674 31.7501 4.9
      vertex 5.41674 31.7501 0
    endloop
  endfacet
  facet normal 0.903989 0.427556 0
    outer loop
      vertex 5.53302 31.4693 4.9
      vertex 5.46799 31.6068 0
      vertex 5.46799 31.6068 4.9
    endloop
  endfacet
  facet normal 0.903989 0.427556 0
    outer loop
      vertex 5.46799 31.6068 0
      vertex 5.53302 31.4693 4.9
      vertex 5.53302 31.4693 0
    endloop
  endfacet
  facet normal 0.803204 0.595704 0
    outer loop
      vertex 5.70183 31.2167 4.9
      vertex 5.61122 31.3389 0
      vertex 5.61122 31.3389 4.9
    endloop
  endfacet
  facet normal 0.803204 0.595704 0
    outer loop
      vertex 5.61122 31.3389 0
      vertex 5.70183 31.2167 4.9
      vertex 5.70183 31.2167 0
    endloop
  endfacet
  facet normal 0.671562 0.740948 -0
    outer loop
      vertex 5.91669 31.0018 0
      vertex 5.80398 31.104 4.9
      vertex 5.91669 31.0018 4.9
    endloop
  endfacet
  facet normal 0.671562 0.740948 0
    outer loop
      vertex 5.80398 31.104 4.9
      vertex 5.91669 31.0018 0
      vertex 5.80398 31.104 0
    endloop
  endfacet
  facet normal -0.989177 0.146729 0
    outer loop
      vertex 8.42022 31.8976 0
      vertex 8.44254 32.0481 4.9
      vertex 8.44254 32.0481 0
    endloop
  endfacet
  facet normal -0.989177 0.146729 0
    outer loop
      vertex 8.44254 32.0481 4.9
      vertex 8.42022 31.8976 0
      vertex 8.42022 31.8976 4.9
    endloop
  endfacet
endsolid OpenSCAD_Model
