solid OpenSCAD_Model
  facet normal -0 0 1
    outer loop
      vertex -1.8 98.8 1.8
      vertex 138.8 -1.8 1.8
      vertex 138.8 98.8 1.8
    endloop
  endfacet
  facet normal 0 0 1
    outer loop
      vertex 138.8 -1.8 1.8
      vertex -1.8 98.8 1.8
      vertex -1.8 -1.8 1.8
    endloop
  endfacet
  facet normal 0 0 -1
    outer loop
      vertex -1.8 -1.8 0
      vertex 138.8 98.8 0
      vertex 138.8 -1.8 0
    endloop
  endfacet
  facet normal -0 0 -1
    outer loop
      vertex 138.8 98.8 0
      vertex -1.8 -1.8 0
      vertex -1.8 98.8 0
    endloop
  endfacet
  facet normal 0 -1 0
    outer loop
      vertex -1.8 -1.8 0
      vertex 138.8 -1.8 1.8
      vertex -1.8 -1.8 1.8
    endloop
  endfacet
  facet normal 0 -1 -0
    outer loop
      vertex 138.8 -1.8 1.8
      vertex -1.8 -1.8 0
      vertex 138.8 -1.8 0
    endloop
  endfacet
  facet normal 1 -0 0
    outer loop
      vertex 138.8 -1.8 1.8
      vertex 138.8 98.8 0
      vertex 138.8 98.8 1.8
    endloop
  endfacet
  facet normal 1 0 0
    outer loop
      vertex 138.8 98.8 0
      vertex 138.8 -1.8 1.8
      vertex 138.8 -1.8 0
    endloop
  endfacet
  facet normal 0 1 -0
    outer loop
      vertex 138.8 98.8 0
      vertex -1.8 98.8 1.8
      vertex 138.8 98.8 1.8
    endloop
  endfacet
  facet normal 0 1 0
    outer loop
      vertex -1.8 98.8 1.8
      vertex 138.8 98.8 0
      vertex -1.8 98.8 0
    endloop
  endfacet
  facet normal -1 0 0
    outer loop
      vertex -1.8 -1.8 0
      vertex -1.8 98.8 1.8
      vertex -1.8 98.8 0
    endloop
  endfacet
  facet normal -1 -0 0
    outer loop
      vertex -1.8 98.8 1.8
      vertex -1.8 -1.8 0
      vertex -1.8 -1.8 1.8
    endloop
  endfacet
endsolid OpenSCAD_Model
