solid OpenSCAD_Model
  facet normal -1 0 0
    outer loop
      vertex 0 0 1.6
      vertex 0 13.2 53.2
      vertex 0 13.2 1.6
    endloop
  endfacet
  facet normal -1 -0 0
    outer loop
      vertex 0 13.2 53.2
      vertex 0 0 1.6
      vertex 0 0 53.2
    endloop
  endfacet
  facet normal 0 0 1
    outer loop
      vertex 21.2 13.2 53.2
      vertex 19.6 11.6 53.2
      vertex 21.2 0 53.2
    endloop
  endfacet
  facet normal 0 0 1
    outer loop
      vertex 21.2 13.2 53.2
      vertex 1.6 11.6 53.2
      vertex 19.6 11.6 53.2
    endloop
  endfacet
  facet normal 0 0 1
    outer loop
      vertex 1.6 11.6 53.2
      vertex 0 13.2 53.2
      vertex 1.6 1.6 53.2
    endloop
  endfacet
  facet normal -0 0 1
    outer loop
      vertex 0 13.2 53.2
      vertex 1.6 11.6 53.2
      vertex 21.2 13.2 53.2
    endloop
  endfacet
  facet normal -0 0 1
    outer loop
      vertex 19.6 1.6 53.2
      vertex 21.2 0 53.2
      vertex 19.6 11.6 53.2
    endloop
  endfacet
  facet normal -0 0 1
    outer loop
      vertex 1.6 1.6 53.2
      vertex 21.2 0 53.2
      vertex 19.6 1.6 53.2
    endloop
  endfacet
  facet normal 0 0 1
    outer loop
      vertex 1.6 1.6 53.2
      vertex 0 0 53.2
      vertex 21.2 0 53.2
    endloop
  endfacet
  facet normal 0 0 1
    outer loop
      vertex 0 0 53.2
      vertex 1.6 1.6 53.2
      vertex 0 13.2 53.2
    endloop
  endfacet
  facet normal 1 -0 0
    outer loop
      vertex 21.2 0 53.2
      vertex 21.2 13.2 1.6
      vertex 21.2 13.2 53.2
    endloop
  endfacet
  facet normal 1 0 0
    outer loop
      vertex 21.2 13.2 1.6
      vertex 21.2 0 53.2
      vertex 21.2 0 1.6
    endloop
  endfacet
  facet normal 0 1 -0
    outer loop
      vertex 21.2 13.2 1.6
      vertex 0 13.2 53.2
      vertex 21.2 13.2 53.2
    endloop
  endfacet
  facet normal 0 1 0
    outer loop
      vertex 0 13.2 53.2
      vertex 21.2 13.2 1.6
      vertex 0 13.2 1.6
    endloop
  endfacet
  facet normal 0 0 -1
    outer loop
      vertex 26.2 -5 0
      vertex 19.6 1.6 0
      vertex 26.2 18.2 0
    endloop
  endfacet
  facet normal 0 0 -1
    outer loop
      vertex 26.2 -5 0
      vertex 1.6 1.6 0
      vertex 19.6 1.6 0
    endloop
  endfacet
  facet normal -0 0 -1
    outer loop
      vertex 1.6 1.6 0
      vertex -5 -5 0
      vertex 1.6 11.6 0
    endloop
  endfacet
  facet normal 0 0 -1
    outer loop
      vertex -5 -5 0
      vertex 1.6 1.6 0
      vertex 26.2 -5 0
    endloop
  endfacet
  facet normal 0 0 -1
    outer loop
      vertex 19.6 11.6 0
      vertex 26.2 18.2 0
      vertex 19.6 1.6 0
    endloop
  endfacet
  facet normal 0 0 -1
    outer loop
      vertex 1.6 11.6 0
      vertex 26.2 18.2 0
      vertex 19.6 11.6 0
    endloop
  endfacet
  facet normal 0 0 -1
    outer loop
      vertex 1.6 11.6 0
      vertex -5 18.2 0
      vertex 26.2 18.2 0
    endloop
  endfacet
  facet normal 0 0 -1
    outer loop
      vertex -5 18.2 0
      vertex 1.6 11.6 0
      vertex -5 -5 0
    endloop
  endfacet
  facet normal 0 -1 0
    outer loop
      vertex 0 0 1.6
      vertex 21.2 0 53.2
      vertex 0 0 53.2
    endloop
  endfacet
  facet normal 0 -1 -0
    outer loop
      vertex 21.2 0 53.2
      vertex 0 0 1.6
      vertex 21.2 0 1.6
    endloop
  endfacet
  facet normal -1 0 0
    outer loop
      vertex -5 -5 0
      vertex -5 18.2 1.6
      vertex -5 18.2 0
    endloop
  endfacet
  facet normal -1 -0 0
    outer loop
      vertex -5 18.2 1.6
      vertex -5 -5 0
      vertex -5 -5 1.6
    endloop
  endfacet
  facet normal 0 0 1
    outer loop
      vertex 26.2 18.2 1.6
      vertex 21.2 13.2 1.6
      vertex 26.2 -5 1.6
    endloop
  endfacet
  facet normal 0 0 1
    outer loop
      vertex 26.2 18.2 1.6
      vertex 0 13.2 1.6
      vertex 21.2 13.2 1.6
    endloop
  endfacet
  facet normal 0 0 1
    outer loop
      vertex 0 13.2 1.6
      vertex -5 18.2 1.6
      vertex 0 0 1.6
    endloop
  endfacet
  facet normal -0 0 1
    outer loop
      vertex -5 18.2 1.6
      vertex 0 13.2 1.6
      vertex 26.2 18.2 1.6
    endloop
  endfacet
  facet normal -0 0 1
    outer loop
      vertex 21.2 0 1.6
      vertex 26.2 -5 1.6
      vertex 21.2 13.2 1.6
    endloop
  endfacet
  facet normal -0 0 1
    outer loop
      vertex 0 0 1.6
      vertex 26.2 -5 1.6
      vertex 21.2 0 1.6
    endloop
  endfacet
  facet normal 0 0 1
    outer loop
      vertex 0 0 1.6
      vertex -5 -5 1.6
      vertex 26.2 -5 1.6
    endloop
  endfacet
  facet normal 0 0 1
    outer loop
      vertex -5 -5 1.6
      vertex 0 0 1.6
      vertex -5 18.2 1.6
    endloop
  endfacet
  facet normal 1 -0 0
    outer loop
      vertex 26.2 -5 1.6
      vertex 26.2 18.2 0
      vertex 26.2 18.2 1.6
    endloop
  endfacet
  facet normal 1 0 0
    outer loop
      vertex 26.2 18.2 0
      vertex 26.2 -5 1.6
      vertex 26.2 -5 0
    endloop
  endfacet
  facet normal 0 -1 0
    outer loop
      vertex -5 -5 0
      vertex 26.2 -5 1.6
      vertex -5 -5 1.6
    endloop
  endfacet
  facet normal 0 -1 -0
    outer loop
      vertex 26.2 -5 1.6
      vertex -5 -5 0
      vertex 26.2 -5 0
    endloop
  endfacet
  facet normal 0 1 -0
    outer loop
      vertex 26.2 18.2 0
      vertex -5 18.2 1.6
      vertex 26.2 18.2 1.6
    endloop
  endfacet
  facet normal 0 1 0
    outer loop
      vertex -5 18.2 1.6
      vertex 26.2 18.2 0
      vertex -5 18.2 0
    endloop
  endfacet
  facet normal 1 -0 0
    outer loop
      vertex 1.6 1.6 53.2
      vertex 1.6 11.6 0
      vertex 1.6 11.6 53.2
    endloop
  endfacet
  facet normal 1 0 0
    outer loop
      vertex 1.6 11.6 0
      vertex 1.6 1.6 53.2
      vertex 1.6 1.6 0
    endloop
  endfacet
  facet normal -1 0 0
    outer loop
      vertex 19.6 1.6 0
      vertex 19.6 11.6 53.2
      vertex 19.6 11.6 0
    endloop
  endfacet
  facet normal -1 -0 0
    outer loop
      vertex 19.6 11.6 53.2
      vertex 19.6 1.6 0
      vertex 19.6 1.6 53.2
    endloop
  endfacet
  facet normal 0 1 -0
    outer loop
      vertex 19.6 1.6 0
      vertex 1.6 1.6 53.2
      vertex 19.6 1.6 53.2
    endloop
  endfacet
  facet normal 0 1 0
    outer loop
      vertex 1.6 1.6 53.2
      vertex 19.6 1.6 0
      vertex 1.6 1.6 0
    endloop
  endfacet
  facet normal 0 -1 0
    outer loop
      vertex 1.6 11.6 0
      vertex 19.6 11.6 53.2
      vertex 1.6 11.6 53.2
    endloop
  endfacet
  facet normal 0 -1 -0
    outer loop
      vertex 19.6 11.6 53.2
      vertex 1.6 11.6 0
      vertex 19.6 11.6 0
    endloop
  endfacet
endsolid OpenSCAD_Model
