solid OpenSCAD_Model
  facet normal -1 0 0
    outer loop
      vertex 0 0 1.6
      vertex 0 11.2 53.2
      vertex 0 11.2 1.6
    endloop
  endfacet
  facet normal -1 -0 0
    outer loop
      vertex 0 11.2 53.2
      vertex 0 0 1.6
      vertex 0 0 53.2
    endloop
  endfacet
  facet normal 0 0 1
    outer loop
      vertex 25.2 11.2 53.2
      vertex 23.6 9.6 53.2
      vertex 25.2 0 53.2
    endloop
  endfacet
  facet normal 0 0 1
    outer loop
      vertex 25.2 11.2 53.2
      vertex 1.6 9.6 53.2
      vertex 23.6 9.6 53.2
    endloop
  endfacet
  facet normal 0 0 1
    outer loop
      vertex 1.6 9.6 53.2
      vertex 0 11.2 53.2
      vertex 1.6 1.6 53.2
    endloop
  endfacet
  facet normal -0 0 1
    outer loop
      vertex 0 11.2 53.2
      vertex 1.6 9.6 53.2
      vertex 25.2 11.2 53.2
    endloop
  endfacet
  facet normal -0 0 1
    outer loop
      vertex 23.6 1.6 53.2
      vertex 25.2 0 53.2
      vertex 23.6 9.6 53.2
    endloop
  endfacet
  facet normal -0 0 1
    outer loop
      vertex 1.6 1.6 53.2
      vertex 25.2 0 53.2
      vertex 23.6 1.6 53.2
    endloop
  endfacet
  facet normal 0 0 1
    outer loop
      vertex 1.6 1.6 53.2
      vertex 0 0 53.2
      vertex 25.2 0 53.2
    endloop
  endfacet
  facet normal 0 0 1
    outer loop
      vertex 0 0 53.2
      vertex 1.6 1.6 53.2
      vertex 0 11.2 53.2
    endloop
  endfacet
  facet normal 1 -0 0
    outer loop
      vertex 25.2 0 53.2
      vertex 25.2 11.2 1.6
      vertex 25.2 11.2 53.2
    endloop
  endfacet
  facet normal 1 0 0
    outer loop
      vertex 25.2 11.2 1.6
      vertex 25.2 0 53.2
      vertex 25.2 0 1.6
    endloop
  endfacet
  facet normal 0 1 -0
    outer loop
      vertex 25.2 11.2 1.6
      vertex 0 11.2 53.2
      vertex 25.2 11.2 53.2
    endloop
  endfacet
  facet normal 0 1 0
    outer loop
      vertex 0 11.2 53.2
      vertex 25.2 11.2 1.6
      vertex 0 11.2 1.6
    endloop
  endfacet
  facet normal 0 0 -1
    outer loop
      vertex 30.2 -5 0
      vertex 23.6 1.6 0
      vertex 30.2 16.2 0
    endloop
  endfacet
  facet normal 0 0 -1
    outer loop
      vertex 30.2 -5 0
      vertex 1.6 1.6 0
      vertex 23.6 1.6 0
    endloop
  endfacet
  facet normal -0 0 -1
    outer loop
      vertex 1.6 1.6 0
      vertex -5 -5 0
      vertex 1.6 9.6 0
    endloop
  endfacet
  facet normal 0 0 -1
    outer loop
      vertex -5 -5 0
      vertex 1.6 1.6 0
      vertex 30.2 -5 0
    endloop
  endfacet
  facet normal 0 0 -1
    outer loop
      vertex 23.6 9.6 0
      vertex 30.2 16.2 0
      vertex 23.6 1.6 0
    endloop
  endfacet
  facet normal 0 0 -1
    outer loop
      vertex 1.6 9.6 0
      vertex 30.2 16.2 0
      vertex 23.6 9.6 0
    endloop
  endfacet
  facet normal 0 0 -1
    outer loop
      vertex 1.6 9.6 0
      vertex -5 16.2 0
      vertex 30.2 16.2 0
    endloop
  endfacet
  facet normal 0 0 -1
    outer loop
      vertex -5 16.2 0
      vertex 1.6 9.6 0
      vertex -5 -5 0
    endloop
  endfacet
  facet normal 0 -1 0
    outer loop
      vertex 0 0 1.6
      vertex 25.2 0 53.2
      vertex 0 0 53.2
    endloop
  endfacet
  facet normal 0 -1 -0
    outer loop
      vertex 25.2 0 53.2
      vertex 0 0 1.6
      vertex 25.2 0 1.6
    endloop
  endfacet
  facet normal -1 0 0
    outer loop
      vertex -5 -5 0
      vertex -5 16.2 1.6
      vertex -5 16.2 0
    endloop
  endfacet
  facet normal -1 -0 0
    outer loop
      vertex -5 16.2 1.6
      vertex -5 -5 0
      vertex -5 -5 1.6
    endloop
  endfacet
  facet normal 0 0 1
    outer loop
      vertex 30.2 16.2 1.6
      vertex 25.2 11.2 1.6
      vertex 30.2 -5 1.6
    endloop
  endfacet
  facet normal 0 0 1
    outer loop
      vertex 30.2 16.2 1.6
      vertex 0 11.2 1.6
      vertex 25.2 11.2 1.6
    endloop
  endfacet
  facet normal 0 0 1
    outer loop
      vertex 0 11.2 1.6
      vertex -5 16.2 1.6
      vertex 0 0 1.6
    endloop
  endfacet
  facet normal -0 0 1
    outer loop
      vertex -5 16.2 1.6
      vertex 0 11.2 1.6
      vertex 30.2 16.2 1.6
    endloop
  endfacet
  facet normal -0 0 1
    outer loop
      vertex 25.2 0 1.6
      vertex 30.2 -5 1.6
      vertex 25.2 11.2 1.6
    endloop
  endfacet
  facet normal -0 0 1
    outer loop
      vertex 0 0 1.6
      vertex 30.2 -5 1.6
      vertex 25.2 0 1.6
    endloop
  endfacet
  facet normal 0 0 1
    outer loop
      vertex 0 0 1.6
      vertex -5 -5 1.6
      vertex 30.2 -5 1.6
    endloop
  endfacet
  facet normal 0 0 1
    outer loop
      vertex -5 -5 1.6
      vertex 0 0 1.6
      vertex -5 16.2 1.6
    endloop
  endfacet
  facet normal 1 -0 0
    outer loop
      vertex 30.2 -5 1.6
      vertex 30.2 16.2 0
      vertex 30.2 16.2 1.6
    endloop
  endfacet
  facet normal 1 0 0
    outer loop
      vertex 30.2 16.2 0
      vertex 30.2 -5 1.6
      vertex 30.2 -5 0
    endloop
  endfacet
  facet normal 0 -1 0
    outer loop
      vertex -5 -5 0
      vertex 30.2 -5 1.6
      vertex -5 -5 1.6
    endloop
  endfacet
  facet normal 0 -1 -0
    outer loop
      vertex 30.2 -5 1.6
      vertex -5 -5 0
      vertex 30.2 -5 0
    endloop
  endfacet
  facet normal 0 1 -0
    outer loop
      vertex 30.2 16.2 0
      vertex -5 16.2 1.6
      vertex 30.2 16.2 1.6
    endloop
  endfacet
  facet normal 0 1 0
    outer loop
      vertex -5 16.2 1.6
      vertex 30.2 16.2 0
      vertex -5 16.2 0
    endloop
  endfacet
  facet normal 1 -0 0
    outer loop
      vertex 1.6 1.6 53.2
      vertex 1.6 9.6 0
      vertex 1.6 9.6 53.2
    endloop
  endfacet
  facet normal 1 0 0
    outer loop
      vertex 1.6 9.6 0
      vertex 1.6 1.6 53.2
      vertex 1.6 1.6 0
    endloop
  endfacet
  facet normal -1 0 0
    outer loop
      vertex 23.6 1.6 0
      vertex 23.6 9.6 53.2
      vertex 23.6 9.6 0
    endloop
  endfacet
  facet normal -1 -0 0
    outer loop
      vertex 23.6 9.6 53.2
      vertex 23.6 1.6 0
      vertex 23.6 1.6 53.2
    endloop
  endfacet
  facet normal 0 -1 0
    outer loop
      vertex 1.6 9.6 0
      vertex 23.6 9.6 53.2
      vertex 1.6 9.6 53.2
    endloop
  endfacet
  facet normal 0 -1 -0
    outer loop
      vertex 23.6 9.6 53.2
      vertex 1.6 9.6 0
      vertex 23.6 9.6 0
    endloop
  endfacet
  facet normal 0 1 -0
    outer loop
      vertex 23.6 1.6 0
      vertex 1.6 1.6 53.2
      vertex 23.6 1.6 53.2
    endloop
  endfacet
  facet normal 0 1 0
    outer loop
      vertex 1.6 1.6 53.2
      vertex 23.6 1.6 0
      vertex 1.6 1.6 0
    endloop
  endfacet
endsolid OpenSCAD_Model
